<?xml version="1.0" ?><svg id="bernie" viewBox="0 0 477.97637 477.99409" xmlns="http://www.w3.org/2000/svg"><defs><style>.cls-1{fill:#59bfff;}.cls-2{fill:#fff;}</style></defs><title/><circle class="cls-1" cx="238.98818" cy="238.98818" r="238.98818"/><path class="cls-2" d="M281.00452,247.24469c6.7901,1.30493,28.89185-1.12482,32.5105-2.18384s17.52588-4.47247,17.32959-18.25342c-0.07538-5.4425.1554-11.88831,0.1554-11.9624v-0.00531c-1-7.5426-6.38446-9.94666-17.23657-11.88245a80.24977,80.24977,0,0,0-13.30206-.95026c-1.88147,0-3.82855.04541-5.80908,0.13635a53.55865,53.55865,0,0,0,2.45691,5.6073c-3.80127,3.02411-10.53461.06311-14.8418,2.38281-3.21844,1.73547-9.63489,7.118-2.84314,9.6333a8.687,8.687,0,0,0,2.57886.57269,3.5548,3.5548,0,0,0,1.10394.95874c4.40125,2.39465,10.27277,1.17047,14.5874,3.728,4.96143,2.94086,7.70374,17.32989,6.77954,17.41394-15.02527,1.36591-28.57281,3.75513-36.5387-6.82971-2.21973-2.94946-4.15106-6.4552-6.61267-9.14581a46.00242,46.00242,0,0,0,3.53369,8.67651C267.484,239.89911,274.77209,246.0379,281.00452,247.24469Z" transform="translate(-17.01182 -17.00591)"/><path class="cls-2" d="M313.9892,130.66486l0.00342,0.0033c8.20245,7.41876,9.46008,16.4541,6.98877,22.04138a10.71007,10.71007,0,0,1-3.28009,4.23456,0.064,0.064,0,0,0-.00708.10388c2.02118,1.62872,10.885,8.50189,13.25818,10.04932,16.205,10.56616,6.84,16.73413,3.16437,16.7514a0.06391,0.06391,0,0,0-.03491.11908c8.78406,6.42926,15.08661,16.08112,16.54047,25.75507a26.77113,26.77113,0,0,1-3.65833,18.364,0.07279,0.07279,0,0,0,.074.10944,7.28023,7.28023,0,0,0,4.18213-2.24988c2.19666-2.45459,4.75208-1.13269,5.30444.27a38.2453,38.2453,0,0,1,2.4613,13.53741,0.07137,0.07137,0,0,0,.13324.03461,38.50815,38.50815,0,0,0,4.62445-13.37128c0.6615-4.203,2.92133-5.39819,4.34918-5.23761,1.46167,0.16431,5.06628.418,6.59918,0.51093a2.13827,2.13827,0,0,0,.28-0.59192c-1.86945-3.19214-1.60492-6.55127-1.38727-9.3078,0.08069-1.00037.14886-1.87866,0.135-2.674q-0.49026-1.7439-1.15656-3.45551a8.63282,8.63282,0,0,0-2.46716-1.88971,3.19848,3.19848,0,0,1-1.38666-4.08258,3.38163,3.38163,0,0,1,3.026-1.92059c6.47815-.2254,10.19214-0.43939,13.918-8.54626a0.071,0.071,0,0,0-.05127-0.10028c-5.49365-.89008-10.64581-4.43628-14.26141-7.51178a3.17269,3.17269,0,0,1,1.03949-5.52533,6.2852,6.2852,0,0,0,4.59082-3.84753,0.073,0.073,0,0,0-.05493-0.09955c-11.70746-1.89655-16.47552-14.33038-20.387-24.52948-4.091-10.66919-6.99756-17.31769-12.84851-17.32324-2.2887-.00226-3.288-1.42987-3.1051-3.29468,0.4306-4.39075,1.47327-7.88147,3.83569-10.24292a0.06729,0.06729,0,0,0-.02307-0.11072c-0.612-.25122-1.185-0.51678-1.76733-0.77893q-0.10089.1962-.20288,0.39172c-0.04779.00562-.09515,0.00043-0.14288,0.00928a2.47959,2.47959,0,0,0-.584.204,11.03294,11.03294,0,0,0-.471-1.24927,80.22741,80.22741,0,0,1-14.37189-9.30951c-7.553-5.77521-13.04016-10.17212-25.06366-8.626-3.12628.40179-5.29114-2.61432-2.97571-5.00531l0.00262-.00317c-0.07947-.1391-0.17468-0.26483-0.24677-0.41022,0.664-.60956,1.3465-1.18433,2.03876-1.74225a31.041,31.041,0,0,1,8.47968-6.69189,0.07113,0.07113,0,0,0-.01422-0.131c-9.508-2.76044-14.17676-1.41394-24.44348-.1167a3.17842,3.17842,0,0,1-3.15417-1.54388,49.98687,49.98687,0,0,0-13.03351-14.0683,0.07141,0.07141,0,0,0-.11139.07147c0.20007,1.10443,1.2041,5.73236,1.31348,7.03357,0.08118,0.965.36749,4.19806-2.93555,4.231-3.72516.03687-17.17889-10.06927-38.632-15.57654-11.58368-1.91309-23.45868-2.30237-35.21521-3.36737-9.28687-.09033-18.66168-1.56537-27.69891-3.17578,3.69513,2.48846,10.03754,5.79675,16.3316,6.32129,8.07,1.48657,13.99963,2.47131,19.358,3.18951,0.86426,0.01129,1.72644.02368,2.61853,0.01941a0.69812,0.69812,0,0,1,.11371.02869,3.67927,3.67927,0,0,1,2.098.54736c4.00677,0.44666,7.95313.77313,12.57159,1.08679-11.12018,11.00482-33.68036,9.80774-44.45984,21.14648-3.61951,3.80731-10.42615,4.069-10.928,5.00867-1.51929,2.845-3.921,3.66705-7.28528,4.55334a121.14776,121.14776,0,0,0-17.75793,6.83c3.24677,20.04022.14484,40.63757-11.27234,56.18231-5.09723,6.94006-9.33545,12.26489-6.99927,21.16254a56.592,56.592,0,0,1,1.86011,12.55084c-1.50079,5.48328-5.92242,9.88275-10.75775,13.28394-3.16119,6.48779-9.273,9.65527-18.84967,9.15283a0.07239,0.07239,0,0,0-.07458.08728,9.5411,9.5411,0,0,0,2.133,4.51886,8.22083,8.22083,0,0,0,5.24158,2.41028,9.95055,9.95055,0,0,1,3.50067.06586c0.76306-.05145,1.57672-0.138,2.45837-0.27277,2.63416-.40265,3.96167,2.51758,3.42407,4.12891-0.17511.52448-.34381,1.105-0.51416,1.72461-1.19128,4.33453-1.90723,10.84406,5.98773,18.59692a0.96286,0.96286,0,0,0,.9126.041,44.29525,44.29525,0,0,1-.13141-9.53455,18.833,18.833,0,0,1-.22015-2.39154,11.46386,11.46386,0,0,1,.19324-2.18787,4.826,4.826,0,0,0,.67029.77924c0.28955-1.27661.64795-2.5636,1.04077-3.96063,0.84344-2.99994,5.048-1.867,5.73053-.832,1.53583,2.33221,5.69171,6.24725,10.63385,5.89337a0.07266,0.07266,0,0,0,.06055-0.10559,36.3168,36.3168,0,0,1-3.43915-9.58264,41.8788,41.8788,0,0,1-.8382-11.77673c0.43091-6.0556,6.06921-24.10266,10.64178-32.37262-0.035-.1825-0.06976-0.36511-0.11853-0.5401,0.01208-.05542.02527-0.1106,0.03729-0.166a1.87221,1.87221,0,0,0-.86493-1.88373,22.20171,22.20171,0,0,1-7.20868-4.97266c-1.02136-.96893-1.76727-5.40906,2.50586-5.35889,5.06683,0.05939,7.13324-1.39014,8.78363-4.8974a3.58175,3.58175,0,0,0-.49774-1.80908c0.03729-.05219.07257-0.10364,0.1087-0.15552,0.83661-1.04492,1.60559-2.14,2.33411-3.26166,0.89142-2.70312,1.94452-6.00775,3.51624-10.00189q1.19165-3.0282,2.39185-5.91675a3.89878,3.89878,0,0,0-.3233-1.30609c0.77374-1.08337,1.52307-2.18182,2.2793-3.276,12.6626-28.90039,27.6261-46.9729,62.43365-54.35571A171.77535,171.77535,0,0,1,241.366,82.77057c2.92023-.03888,6.51306.70374,7.36963,4.13007,0.55811,2.23248-5.8678,7.302-16.25079,11.2973a0.07113,0.07113,0,0,0-.03833.05823c0.00006,0.01038-.00208.02075-0.00159,0.03107a0.05489,0.05489,0,0,0,.04822.049c7.29852,0.41534,24.14038-1.61639,31.52173-4.88348,3.70453-1.63965,8.92743.18225,14.611,3.74957a2.41849,2.41849,0,0,0,.32385-0.28638c0.05841-.00446.1145-0.01447,0.17163-0.02277-0.04022.18848-.06207,0.37982-0.08539,0.57092C294.50092,107.3587,313.16742,129.78894,313.9892,130.66486Z" transform="translate(-17.01182 -17.00591)"/><path class="cls-2" d="M314.43665,198.46027c7.85986,1.40155,15.55371,3.44885,19.00848,9.87207a0.06208,0.06208,0,0,0,.06122.03754c1.23962-.10449,7.10742-1.121,9.72681-1.70129a0.07039,0.07039,0,0,0,.04926-0.09344c-2.58258-7.89471-9.66382-14.481-16.9118-19.9552-5.64783-4.26569-1.78253-8.75226,2.592-8.81555a34.25242,34.25242,0,0,0,3.78784-.25018,0.06973,0.06973,0,0,0,.03894-0.1203c-1.725-1.67145-22.36316-17.28113-23.84912-19.99316-2.28717-4.17426,1.61053-5.16394,2.9043-5.05463a3.09506,3.09506,0,0,0,3.288-2.26636c2.96179-8.89215-8.52368-18.21393-10.52869-20.45062-11.38525-12.701-27.87872-32.51178-36.837-29.371a136.40794,136.40794,0,0,1-34.29889,6.04712c4.17273,3.45959,9.95044,6.71973,13.01709,9.65393a142.34384,142.34384,0,0,1,19.295,21.89337c8.56781,12.46838,12.21967,31.47723.231,43.1225-2.95886,2.87408-6.70844,5.13275-8.57739,8.81-0.774,1.52289.78113,8.59711,1.96442,8.90521,2.83582,0.73846,6.72473-1.69037,9.64246-1.96228,3.8252-.35651,11.05359-3.39551,14.60284-1.794,1.95892,0.88385,6.6131,1.38354,8.53711,2.39038a2.57725,2.57725,0,0,1,.68848.9032C301.157,197.58307,308.9931,197.49005,314.43665,198.46027Z" transform="translate(-17.01182 -17.00591)"/><path class="cls-2" d="M341.43866,284.75085L342.897,302.8075c0.005,2.41956,2.026,3.49548,2.90417,3.219,0.36-.42975.72162-0.85785,1.10193-1.27094a7.59474,7.59474,0,0,0,3.68457-2.778q0.98053-1.40533,1.96112-2.81061a70.30729,70.30729,0,0,0-.1734-7.67145c-0.06647-.09918-0.1228-0.20428-0.19336-0.30084,0.04626-.33154.10785-0.65936,0.15912-0.98968-0.00189-.151-0.00421-0.30237-0.00421-0.452,0-8.90656,5.58539-22.96863,10.12115-29.34711,2.57227-5.47479,5.26733-10.88886,8.12805-16.22705q0.5137-.866,1.00281-1.75342a33.7053,33.7053,0,0,0,.26837-4.29492c0-1.812-.95538-4.31592-2.17474-6.7934q-0.21368-.11508-0.43372-0.2149c-1.41833,5.806-4.52673,14.01959-11.81409,20.22241-2.05878,1.75238-6.018.76129-5.09454-5.38928a49.07468,49.07468,0,0,0-.01593-12.68109,0.06927,0.06927,0,0,0-.10046-0.04968c-5.38159,2.61023-11.86786,1.13446-12.22693,1.13361-2.17938-.005-2.6958-3.08142-0.96338-5.34686,3.65167-4.77527,7.17291-9.2583,7.21082-14.69324a0.07419,0.07419,0,0,0-.07312-0.07526c-4.35712.02734-10.13208,0.47675-10.80878,0.56494a0.06108,0.06108,0,0,0-.06091.06079c-0.00378.91541-.0882,6.80756-0.01721,11.87421a20.27345,20.27345,0,0,1-9.26166,17.73041l-0.00012.00043-0.00018-.00012a36.65345,36.65345,0,0,1-11.43848,5.013c-3.3761.91266-23.81055,3.36023-34.477,2.24182-7.67822-.805-16.083-8.617-19.26617-14.37878a47.3693,47.3693,0,0,1-5.01031-14.65417,13.0882,13.0882,0,0,0-7.97815.23523c-10.38458,3.1507-6.61469,22.611-6.25464,30.94141,0.19928,4.61017,1.70685,14.47833,6.39771,16.99268,4.851,2.6001,9.41779-3.40656,14.24268,1.21808,9.14008,8.77948,5.18091,20.72534,4.55139,30.54919-0.12219,1.90643-1.80695,11.322-.80945,12.95123,0.94836,1.54907,9.77905,2.55841,11.04822,3.85773,3.33862,3.418-12.16418,5.75012-15.66663,9,3.6908,3.11322,14.66882.3396,19.469-.184,7.43542-.81116,5.47064,3.78137,1.07654,6.93719a108.89013,108.89013,0,0,1-22.21588,12.80359c-2.34711.95441-4.807,1.84827-6.6405,3.59692-1.00281.95636-1.80652,2.46973-1.14325,3.6864a3.594,3.594,0,0,0,1.50958,1.29334,23.79147,23.79147,0,0,0,7.41241,2.6203c2.27838,0.39911,4.6377.47095,6.80792,1.27155,6.91638,2.55151,9.77936,13.84631,7.63245,20.30609-2.01648,6.06738-7.83362,10.26947-10.38452,16.03918a68.38361,68.38361,0,0,0,20.91382-4.03094,0.075,0.075,0,0,0,.03052-0.02136c8.79974-10.20795,16.41541-23.48041,19.23291-35.46906a0.072,0.072,0,0,1,.14112.00635c1.46967,10.41986-3.82367,23.75671-7.81366,29.985a0.06838,0.06838,0,0,0,.10181.08984c2.86615-2.36639,24.57245-25.79059,30.91742-36.32281a67.42762,67.42762,0,0,0,5.76172-12.59479c0.10712-.46783.22174-0.93359,0.3161-1.405a0.74136,0.74136,0,0,1,.14331.05023q0.4313-1.30518.82758-2.62976a0.926,0.926,0,0,1-.01324-0.21881c0.04773-.06335.0874-0.13025,0.13452-0.19385C342.33307,311.13477,341.43866,284.75085,341.43866,284.75085Z" transform="translate(-17.01182 -17.00591)"/><path class="cls-2" d="M274.73572,418.03278c29.18768-13.2475,45.35742-40.58875,47.60583-44.58838a0.07563,0.07563,0,0,0-.12091-0.087c-5.74695,6.12384-15.24182,17.53613-31.5249,24.79578a69.09944,69.09944,0,0,1-8.204,3.71472,7.23037,7.23037,0,0,0-.566-0.45325,80.65052,80.65052,0,0,1-18.03784,3.1795,45.08584,45.08584,0,0,0-6.91486,7.95331q-2.74869,3.86984-5.55133,7.66846C260.85236,420.6748,270.17242,420.10394,274.73572,418.03278Z" transform="translate(-17.01182 -17.00591)"/><path class="cls-2" d="M286.37115,424.60571c-0.04523.01422-.09393,0.06232-0.06683,0.1012,3.58844,5.14661,18.66644,28.8725,24.3645,32.62671-0.00433-.00568-0.012-0.00964-0.0047-0.02057C317.47821,447.06787,322,407.16864,323,392.18982v-0.00519c0-1.51556.17816-2.91406,0.18542-4.11676C316.11084,400.08887,306.97888,418.10376,286.37115,424.60571Z" transform="translate(-17.01182 -17.00591)"/><path class="cls-2" d="M216.1278,221.51342c-1.92087-1.84427-4.33449-5.00491-7.18453-5.36892a7.6266,7.6266,0,0,0-4.02754.91591c-1.64333.6688-3.29883,0.88711-4.97543,1.439a9.6975,9.6975,0,0,0-3.26287,1.7559,2.286,2.286,0,0,0-.41641-0.11426c-1.05742-.90848-2.50847-1.04275-4.47532.36327a4.48322,4.48322,0,0,0,.0476,7.43353,4.014,4.014,0,0,0,1.62629,1.87016,3.32624,3.32624,0,0,0,2.96869.9529,7.32735,7.32735,0,0,0,1.98443-.10216,2.71373,2.71373,0,0,0,1.718-1.02511c2.0423-.42919,4.09413-1.26985,6.06091-1.66172a21.76759,21.76759,0,0,0,7.30338-2.59184c0.10561,0.03313.20919,0.06707,0.32642,0.0954C216.05606,226.01531,217.88945,223.20482,216.1278,221.51342Z" transform="translate(-17.01182 -17.00591)"/><path class="cls-2" d="M343.10883,416.7962c-4.43652-15.929-8.52991-29.8634-10.89624-35.20343a0.07284,0.07284,0,0,0-.08252-0.04279,0.25983,0.25983,0,0,0-.16794.07111c0.05835,0.89124.03787,1.80237,0.03787,2.72711v0.00562c0,0.95056.19409,1.91571,0.22345,2.89014,0.00037,0.0105.05759,0.02087,0.05789,0.03137h0c0.2702,9.01312-.02782,18.78607-0.34367,24.74854a0.22053,0.22053,0,0,1,.05772.09381c-0.02826.53009-.00248,1.02734-0.00248,1.49255a21.237,21.237,0,0,1-.36059,3.93878c-4.22321,26.718-10.71331,40.12256-13.53808,45.46149-1.01666,1.92145-1.78616,4.3924-3.90738,5.40491-0.04395.021-.08665,0.02942-0.13054,0.04871a3.68061,3.68061,0,0,1-.58157.21631c-0.03925.011-.0782,0.019-0.11738,0.02875a3.55414,3.55414,0,0,1-.49854.08459c-1.90112.22247-3.67783-.95972-5.21433-2.46057-3.72028-3.42346-18.32561-22.5639-26.65355-33.19409a0.06853,0.06853,0,0,0-.11773.01685c-2.54791,5.85522-6.176,11.76093-10.85815,15.53882-6.146,4.95935-8.15637,7.18579-1.756,14.38916,8.5838,9.6615,13.41846,16.41882,7.3363,21.37921-8.561,6.98138-34.91388,6.13879-44.28876,1.42236s-7.63354-11.28064-.21558-20.569c5.509-6.89807,10.46-9.20605,2.3136-16.50525-4.40118-3.94348-9.81714-11.49536-12.18585-14.22174a0.072,0.072,0,0,0-.10748,0c-19.92578,22.365-22.06921,28.75-25.7782,32.70807-2.60315,2.77771-5.86364,8.433-16.32106,15.012C205.63821,491.54,222.58905,495,256.01184,495a238.03892,238.03892,0,0,0,102.353-22.97931c-1.31653-4.49677-2.85791-10.00513-4.53064-16.07959C350.70544,444.81787,346.83356,430.26239,343.10883,416.7962Zm-71.38721,30.38617c0.1272-.12311.24481-0.26233,0.3703-0.38849C271.96643,446.92,271.84882,447.05927,271.72162,447.18237Zm5.83154-7.53406c0.08466-.141.16058-0.28748,0.24384-0.42938C277.71375,439.36084,277.63782,439.50732,277.55316,439.64832Zm1.20782-2.12708c0.04248-.0791.07989-0.1601,0.12195-0.23938C278.84088,437.36115,278.80347,437.44214,278.761,437.52124Zm2.11584-4.3681a0.0663,0.0663,0,0,1,.10992-0.01575Zm51.40289-28.72443c0.004-.13037.00745-0.26514,0.01135-0.39667C332.28717,404.16357,332.28369,404.29834,332.27972,404.42871Zm9.68073,9.10419c-0.01147-.06012-0.02209-0.12372-0.03363-0.18372C341.93835,413.40918,341.949,413.47278,341.96045,413.5329Z" transform="translate(-17.01182 -17.00591)"/><path d="M176.93926,242.40584c-2.87977-2.62284,2.98122-1.97325,6.68374-.70579,12.06977,4.13177,20.86746,1.68542,26.05464-1.33473,3.58925-2.08977,12.64418-6.9223,10.80253-3.33276C212.50248,252.58179,188.70462,253.12152,176.93926,242.40584Z" transform="translate(-17.01182 -17.00591)"/><path d="M274.36213,229.83608c-2.74226-3.15566,5.618-.06956,8.399,1.15587,10.237,4.51089,15.39776,3.69763,20.62145,1.24978,3.40729-1.59667,13.98132-7.35429,12.13534-3.61376C310.275,239.25173,287.96856,245.49373,274.36213,229.83608Z" transform="translate(-17.01182 -17.00591)"/><path d="M264.403,198.08895c-6.1734,1.63028-4.08877-8.91047,2.39617-11.00532,6.76216-2.1844,21.42908-2.84264,25.15734-3.02455,3.44367-.168,18.84922,2.16382,24.11064,3.64772,7.3584,2.07532,7.86249,10.56611.69548,8.9047a82.48672,82.48672,0,0,0-13.17026-1.72093c-5.504-.36443-9.04835-1.55448-14.561-1.55448-4.42092,0-8.193,1.30894-13.08891,2.04886A89.86305,89.86305,0,0,0,264.403,198.08895Z" transform="translate(-17.01182 -17.00591)"/><path class="cls-2" d="M221.68256,204.35925c-2.27747.19116-7.68628-1.47766-11.9931-2.35223a98.569,98.569,0,0,0-15.20142-1.84955c-4.10767-.18457-8.17352,2.72754-10.862,3.49347s-3.72308,1.64636-7.82483,2.848c-1.78278.52228-4.33282,0.93115-5.78717,0.27838-5.15137,3.143-11.60217,7.98877-8.93463,8.74976a61.17367,61.17367,0,0,1,18.76392-7.47662C188.23315,206.68213,197.78278,207.184,207,207c6.88049-.13733,15.1839,1.00537,19.539-5.27411a1.53276,1.53276,0,0,0,.33636-1.24176C225.6062,202.507,223.06763,204.243,221.68256,204.35925Z" transform="translate(-17.01182 -17.00591)"/><path d="M227.09357,196.57233c-1.74646-2.31769-5.49585-2.43988-11.41846-4.00415s-7.0871-1.99323-13.059-2.65027c-3.96606-.43634-5.70032-0.649-13.56372,1.25482-6.73956,1.63165-8.87653,4.18378-12.76929,7.10449-3.6955,2.77264-7.53,4.30493-7.39685,6.89233a1.76273,1.76273,0,0,0,1.12781,1.60779c1.45435,0.65277,4.00439.2439,5.78717-.27838,4.10175-1.20166,5.13641-2.08215,7.82483-2.848s6.75433-3.678,10.862-3.49347a98.569,98.569,0,0,1,15.20142,1.84955c4.30682,0.87457,9.71564,2.5434,11.9931,2.35223,1.38507-.11627,3.92364-1.85229,5.19281-3.87512C227.69305,199.18091,227.98834,197.75977,227.09357,196.57233Z" transform="translate(-17.01182 -17.00591)"/><path d="M240.76691,358.01258c-5.48053,3.01259-2.93652-3.25863,5.47825-6.59756,9.72891-3.86037,18.90308-4.51932,31.70262-2.02185,7.05845,1.37726,12.53749,7.34462,6.11776,5.16472C277.4464,352.31028,247.05171,354.55789,240.76691,358.01258Z" transform="translate(-17.01182 -17.00591)"/><path d="M237.40588,333.87145c-13.4807-1.22552-8.92466,4.75021,3.45113,5.7222,8.13118,0.63863,14.29187-2.73712,18.88118-3.36137,5.55248-.75527,14.25,1,26.5-3,9.83012-3.20984,2.03817-7.1149-5.439-3.79173-3.69559,1.64248-14.22882,2.99583-21.17871,3.80287A150.26138,150.26138,0,0,1,237.40588,333.87145Z" transform="translate(-17.01182 -17.00591)"/><path d="M232.46219,205.75573c-3.34969,3.08668-3.19039-1.40469-1.42717-3.76645a17.2079,17.2079,0,0,0,3.56737-10.83428c-0.08667-5.20044,1.59788-9.79306,2.74685-3.20967C238.28966,193.33381,240.49871,198.35022,232.46219,205.75573Z" transform="translate(-17.01182 -17.00591)"/><path d="M248.87035,201.98928c-2.74671-1.43569-3.41251-6.74892-2.35859-12.38578,0.60972-3.26105,4.52926-4.75738,3.3859,2.66389-0.58916,3.82411-.45116,5.5668,1.5424,7.18936C254.80782,202.19777,253.85615,204.59532,248.87035,201.98928Z" transform="translate(-17.01182 -17.00591)"/><path d="M343.18954,255.81284c2.10087,4.64921,4.812,6.01121,2.78279,13.06632-1.34135,4.6635-5.17356,7.24659-4.457,8.7173s8.11388,1.9877,9.998-7.326a16.35164,16.35164,0,0,0-2.28135-11.6627C347.93486,256.34178,343.18954,255.81284,343.18954,255.81284Z" transform="translate(-17.01182 -17.00591)"/><path d="M133.96411,259.13748c-2.25086,4.64921-1.95643,7.69423-1.47184,11.187,0.56155,4.04751,5.21621,9.49645,4.44854,10.96715s-7.11534,1.3553-8.65068-8.03839-1.91918-11.84566,0-13.74523S133.96411,259.13748,133.96411,259.13748Z" transform="translate(-17.01182 -17.00591)"/><path d="M320.18972,294.63133c4.05428,19.72043,4.05428,29.31145,0,49.03091C329.388,326.48551,329.388,309.85927,320.18972,294.63133Z" transform="translate(-17.01182 -17.00591)"/><path d="M175.28063,297.55866c0,14.58465,2.87852,32.37408,10.84932,53.12752C171.52771,330.31344,168.63352,314.84084,175.28063,297.55866Z" transform="translate(-17.01182 -17.00591)"/><path d="M277.04661,274.39828a12.51255,12.51255,0,0,1-.75031,3.699c-1.47837,3.62509-5.11511,7.18159-9.48218,6.50487a5.087,5.087,0,0,1-2.1915-1.04646c-2.2156-.88669-4.1499.32651-5.708,0.57133a10.39557,10.39557,0,0,1-7.18559,3.16725c-2.21225.017-4.79247-.74476-5.96412-1.97162-0.49827-.52-7.67383-0.69513-8.51227.5203a3.81676,3.81676,0,0,1-2.92458,1.62085c-0.13245.01255-10.80809,0.75832-11.22889-8.20184-2.93749,7.08233-6.7992,11.26648-9.84041,18.76092-3.71181,9.14652-8.52588,19.45019-10.2538,38.37813-3.735-20.13584,7.3792-52.20875,21.81906-71.98907,0.12073-.24286,3.9999-6.66585,5.02856-8.32629,3.08586-4.98112,8.26334-16.50546,7.40649-12.26552a39.43337,39.43337,0,0,0-.49941,13.38266c0.69591,5.01826,3.45187,10.20659,1.92666,10.399-0.63629.0803-2.50419,1.01523-4.81682-4.56838a15.32954,15.32954,0,0,1-1.03949-6.92144,65.64106,65.64106,0,0,1-3.6145,9.30545c-2.29311,4.29931-3.87186,8.54926-2.10741,12.69967,1.11812,2.62018,3.54646,5.37253,6.67774,5.12883-1.66463-3.48122.09174-5.79022,2.26244-7.01541,2.51813-1.42678,6.79513-.58834,10.55546,3.561,1.63005,1.79847,2.51785,2.246,4.48585,2.37258a7.38075,7.38075,0,0,0,5.19185-1.62754,29.46089,29.46089,0,0,0,2.29925-3.06046c0.85518-1.214,1.47251-2.35975,3.361-2.97988A4.21424,4.21424,0,0,1,267.578,277.287a8.06978,8.06978,0,0,1-.2002,3.05934c2.17349,0.213,4.14177-1.77253,4.98049-3.84732,0.88-2.164.60032-4.85223-.36583-7.531-1.62224-4.49784-6.6836-9.94119-7.59426-11.53137-0.33265-.57941-1.2545-1.90733-1.78567-2.84393,1.17726,3.71491,1.22849,6.57763.347,8.074-2.6985,4.58071-3.31406-.80144-2.903-5.464,0.26646-3.02244-.58722-7.68415-1.76957-12.21724-2.18574-8.20788,3.4727,3.72425,6.43808,7.53337,1.73629,2.23065,5.36592,6.287,7.53543,9.00822,6.97061,8.74333,20.73514,16.89782,34.11129,57.61967C295.39371,298.48115,289.57828,289.47612,277.04661,274.39828Z" transform="translate(-17.01182 -17.00591)"/><path d="M221.88842,176.64511c-7.92637-4.15343-22.20848-4.46749-30.03686-2.22734-8.563,2.45036-16.44412,2.5449-10.49124-.99911,9.5487-5.68476,32.60173-7.73279,41.53007-.76455C229.4064,177.73961,226.647,179.13859,221.88842,176.64511Zm43.51647-21.30727c14.4296,2.07617,41.395,2.02022,8.60066-3.17112-18.38261-2.91-58.56686-5.51191-88.77281,10.91779-20.83393,11.332-9.1122,8.01555,1.78825,3.10379C216.45913,152.92343,258.91881,154.4046,265.4049,155.33784Zm-12.87726-12.47665c9.73886,1.0136,20.53061-1.65128,10.36421-3.95871-14.29111-3.24359-45.33394-2.3542-77.70327,11.44211-4.48581,1.91192,1.24161,4.71643,9.27943,1.29028A121.546,121.546,0,0,1,252.52763,142.86118Z" transform="translate(-17.01182 -17.00591)"/><path d="M299.7408,321.21327c-1.54769-.10415-23.12842-1.70142-27.949-2.90657s-6.046.44575-7.42326,1.30643a19.99786,19.99786,0,0,1-7.747,2.23817,14.50325,14.50325,0,0,1-6.19769-.86095,7.73377,7.73377,0,0,0-6.19769,0c-1.72162.86095-23.87132,6.16642-29.21509,8.40918-3.5999,1.511-4.48278,4.94174-3.32094,5.22478,4.548,1.108,19.06787-2.61771,22.25-3.88371,5.73571-2.2819,15.44426-2.5535,19.38518-1.93852,4.60831,0.719,11.57188.18013,14.262-.69233a40.0502,40.0502,0,0,1,15.23122-2.21545c-0.32007.01366,18.66966-.412,18.66966-0.412C308.98818,324.23228,303.73818,321.48228,299.7408,321.21327Z" transform="translate(-17.01182 -17.00591)"/><path d="M310.258,213.45349c-9.4867-5.63724-24.99294-7.45342-36.44066-2.671-10.78385,4.50511-7.48484,8.21249,5.49153,1.74062,0.005-.00249-3.37558,2.98624-3.37558,2.98624a14.30709,14.30709,0,0,1-2.92692,2.60809c-3.76883,2.6491-3.96984,4.04634,3.17913,2.11012,11.992,9.87537,23.35014,5.65215,28.79477,2.37151,4.13563-2.49191-3.29221-1.734-4.89015-1.011-5.89909,2.6689-12.36692,3.17941-22.95288-3.18783,1.46833-1.37074,5.56771-4.94674,9.71274-6.19856,17.46687,2.023,18.22295,3.3077,23.36423,6.42039C319.21436,224.07106,315.63406,216.64811,310.258,213.45349Z" transform="translate(-17.01182 -17.00591)"/><path d="M218.32977,218.62207c9.0829,1.23446,9.55457-1.3658,1.12423-3.11265a66.76031,66.76031,0,0,0-14.97734-1.28473c-9.254,0-15.67854,3.93-22.41305,10.10393-4.93953,4.52834-2.31708,9.28713-.02369,6.39258,6.63538-8.3747,16.01441-12.547,25.97775-13.46492,2.10825,0.65776,6.77192,4.61906,8.5425,5.59943-5.92816,5.63457-20.01213,6.45457-22.73827,6.01429-1.87988-.30393-4.915.11938-3.06026,1.8512,1.81408,1.69418,20.32438,3.59612,28.12213-6.85476,5.71788,0.46219,7.01463-1.13736,3.98361-1.8115-1.943-.43215-5.68656-2.48-8.40405-3.89787A23.72431,23.72431,0,0,1,218.32977,218.62207Z" transform="translate(-17.01182 -17.00591)"/><path d="M300.193,216.25738a7.07152,7.07152,0,1,0-6.00185,7.99941A7.07141,7.07141,0,0,0,300.193,216.25738Zm-3.34556.70558a2.05584,2.05584,0,1,1,0-2.9074A2.05543,2.05543,0,0,1,296.84741,216.963Z" transform="translate(-17.01182 -17.00591)"/><path d="M205.6556,215.417a7.07168,7.07168,0,1,0,3.32814,9.43093A7.07172,7.07172,0,0,0,205.6556,215.417Zm-0.83651,7.31663a2.05577,2.05577,0,1,1,2.05593-2.05593A2.05573,2.05573,0,0,1,204.81909,222.73361Z" transform="translate(-17.01182 -17.00591)"/><path d="M335.62684,147.06576c2.11509,11.31,9.94415,22.85451,21.47085,26.05244,2.82385,0.78344,4.03859-3.63623,1.20874-4.38446-10.06706-2.66179-16.55583-13.20741-20.058-22.39074a1.36061,1.36061,0,0,0-2.62163.72275h0Z" transform="translate(-17.01182 -17.00591)"/><path d="M137.04416,146.62335A46.91661,46.91661,0,0,1,116.71843,158.876c-2.76664.84987-1.55589,5.25013,1.19628,4.33926,7.96943-2.63762,16.92465-7.512,20.82273-15.28544a1.083,1.083,0,0,0-1.69328-1.3065h0Z" transform="translate(-17.01182 -17.00591)"/><path d="M299.23322,105.55388c12.1547,0.90759,18.31412,15.48925,30.67444,16.62045,2.84256,0.26015,2.85207-4.22957,0-4.45312-6.12077-.47978-11.08818-5.82283-15.929-9.0504-4.41585-2.94421-9.311-5.40246-14.7454-5.0388a0.96155,0.96155,0,0,0,0,1.92188h0Z" transform="translate(-17.01182 -17.00591)"/><path d="M158.36548,101.4324c4.77163,1.42923,9.93384-1.81025,13.71336-4.38694,7.08522-4.83036,14.20066-9.17949,22.68728-11.14287,2.38111-.55087,1.23974-4.47367-0.9969-3.616-7.44831,2.856-14.39269,5.79865-21.14885,10.08906-2.1087,1.3391-4.18434,2.75781-6.41871,3.88447-2.56084,1.29128-5.18981,1.441-7.83617,2.36989a1.4663,1.4663,0,0,0,0,2.80244h0Z" transform="translate(-17.01182 -17.00591)"/><path d="M465.54144,371.026c-6.07153-4.55139-14.638-6.043-23.35968-8.30457C406.49548,353.46759,345.52051,341,341.93616,336a70.42563,70.42563,0,0,0,2.66449-22.8551,0.21755,0.21755,0,0,1,.06946-0.1684c16.03625-.13434,14.02942-26.21606,14.02942-26.44965,0-7.04492,7.31934-18.33948,11.2453-22.576A36.92124,36.92124,0,0,0,380.121,237.98749a22.69858,22.69858,0,0,0-2.31134-9.66437,0.07158,0.07158,0,0,1,.06293-0.10162c5.33759-.03192,10.411-0.89844,9.24988-4.55048a4.24128,4.24128,0,0,0-2.306-2.50244c-5.368-2.47571-5.18188-4.77576-4.85657-8.87866,0.20782-2.57617.45953-5.73077-1.12238-8.75372a0.06753,0.06753,0,0,1,.04486-0.09845c6.02277-1.31635,10.88654-4.94525,14.564-16.51007a3.19372,3.19372,0,0,0-3.72522-4.17865c-2.701.94769-6.14368-.35754-10.33215-3.1228a0.07163,0.07163,0,0,1-.00665-0.11414,13.98444,13.98444,0,0,0,4.87372-9.756c0.17841-1.90985-.78528-4.21191-3.31476-3.792-9.41577,1.56311-13.53113-7.8385-18.44305-20.64691-3.5058-9.1449-7.118-18.56268-15.1153-20.88879a0.07381,0.07381,0,0,1-.04932-0.088c1.02893-4.05438,3.99011-4.93414,6.60339-4.77612a3.17523,3.17523,0,0,0,.70044-6.29932c-11.29468-3.02954-17.72925-7.71808-23.89923-12.44263-6.08386-4.65033-11.89917-9.10046-21.19653-10.013a0.07089,0.07089,0,0,1-.03906-0.127,18.31287,18.31287,0,0,1,11.1441-3.63434c3.32813,0.26324,5.32678-4.662,1.22241-6.19452C307.7323,75.57507,300.2063,75.19507,285.95,76.593a0.07119,0.07119,0,0,1-.06726-0.033c-4.79254-7.80109-10.93225-14.05731-22.629-19.96082-1.94958-.984-6.013.98663-3.52167,4.58661,3.13409,4.52881,2.803,7.82013,2.9881,10.30286,0.00446,0.03564.00671,0.07135,0.00891,0.10706-7.05853-6.94678-27.15033-17.15094-65.54675-18.54956-17.258-.62866-35.06812-2.02545-50.03137-6.98865a3.19769,3.19769,0,0,0-3.15637,5.40265C154.92926,61.39935,166.113,68.48267,183.57312,71.315a0.06967,0.06967,0,0,1,.01416.1358c-11.36078,3.115-25.49854,6.33386-33.79749,4.54205-1.61023-.34772-4.89545,1.0462-3.627,4.361a19.40474,19.40474,0,0,0,3.49188,6.09052,0.06738,0.06738,0,0,1-.03351.1109c-6.26978,1.60608-12.85968,5.3797-20.99353,10.03772a270.23739,270.23739,0,0,1-24.912,13.02924,3.19716,3.19716,0,0,0,1.85815,6.06738,125.88969,125.88969,0,0,1,15.49408-1.95709,0.06955,0.06955,0,0,1,.056.11188c-12.93317,19.019-18.78741,36.31531-16.96655,50.26385,2.108,16.11865-2.02094,32.74042-9.35535,37.89655a3.21952,3.21952,0,0,0,.02008,5.25989,24.98239,24.98239,0,0,0,5.87091,2.86194,0.06885,0.06885,0,0,1,.01355.12982c-2.52649,1.17371-6.4212,1.65613-12.56079.79364a3.27063,3.27063,0,0,0-3.55566,4.004c0.17694,0.95459,1.74286,8.85107,4.81689,11.99957a0.06326,0.06326,0,0,1,.00989.07721c-1.60986,2.87451-2.3869,6.92749-.6803,12.59094,2.498,8.29047,15.11517,32.67419,18.247,37.31506,4.14929,6.149,12.19513,14.63354,11.13654,25.43225-0.33185,3.38495-1.93866,18.09521,1.86847,22.61841,2.38849,2.83655,6.09277,4.4585,11.0072,4.82184,4.00635,0.30658,10.20947-1.75018,11.82526-5.678a0.06458,0.06458,0,0,1,.12225-0.00159,185.28359,185.28359,0,0,0,9.48315,20.25177,0.06988,0.06988,0,0,1-.04248.10132c-36.28076,10.14362-80.66168,21.605-83.8222,22.5321-5.02661,1.47455-12.98376,6.77307-18.11438,10.8327A239.90934,239.90934,0,0,0,161.5661,475.5976c0.41266-2.38361.84363-5.19543,1.28412-8.31055,2.74786-24.14386,6.8158-59.95715,7.44092-65.3,0.01245-.10742.02435-0.20868,0.03577-0.30438,0.01312-.11078.02423-0.20361,0.03174-0.26471a0.06876,0.06876,0,0,1,.137.00494c2.36108,27.0249,13.3244,58.691,16.72009,64.252,1.30072,2.13165,5.51416,4.40051,8.11731,1.6228,3.709-3.95807,5.85242-10.34308,25.7782-32.70807a0.072,0.072,0,0,1,.10748,0c2.36871,2.72638,7.78467,10.27826,12.18585,14.22174,8.14642,7.29919,3.19537,9.60718-2.3136,16.50525-7.418,9.28833-9.1593,15.85254.21558,20.569s35.72778,5.559,44.28876-1.42236c6.08215-4.96039,1.2475-11.71771-7.3363-21.37921-6.40033-7.20337-4.39-9.42981,1.756-14.38916,4.68219-3.77789,8.31024-9.68359,10.85815-15.53882a0.06853,0.06853,0,0,1,.11774-0.01685c7.76355,9.80652,15.24463,19.81006,23.32617,29.37231,0.883,1.04474,2.01886,2.54358,3.32739,3.82178a4.40579,4.40579,0,0,0,.53259.43713c1.88165,1.62286,3.42011,2.14282,4.68176,2.02344a3.96022,3.96022,0,0,0,.4986-0.08459c0.03925-.00946.07886-0.01807,0.11749-0.02875a4.41691,4.41691,0,0,0,.58179-0.21631c2.3-1.07812,3.4337-4.3674,4.00805-5.45269,12.68209-23.964,13.93506-48.88192,13.93518-75.3346,0-.16968.16528-0.33972,0.1601-0.50885,0.00122,0.03577.17694,0.07141,0.178,0.10736l-0.0011-.03137c-0.00079-.02533-0.1153-0.05066-0.11615-0.076C332.192,386.21948,332,385.2796,332,384.34821c0-.92493.02048-1.83582-0.03787-2.72711a0.134,0.134,0,0,1,.11122-0.07111,0.11314,0.11314,0,0,1,.11094.04279c2.53412,5.70831,18.333,62.32886,21.64279,74.34833,1.99908,7.10718,3.69794,12.81134,4.85645,15.92914A240.00716,240.00716,0,0,0,465.54144,371.026ZM91.72485,217.93262a0.07239,0.07239,0,0,1,.07458-0.08728c10.14435,0.53223,16.405-3.049,19.38446-10.33752,0.65717-1.60748-.58527-5.00726-3.67389-4.236-1.10352.27551-3.81555,0.98566-5.29993,0.64343a0.07114,0.07114,0,0,1-.03467-0.11646c7.00311-8.34271,10.44641-24.28534,8.32587-40.52039-1.75549-13.42407,4.84277-30.82989,19.08325-50.337,0.94714-1.29486.97278-7.1933-6.44928-5.7514a0.06865,0.06865,0,0,1-.0589-0.1228c5.08313-2.82458,27.54388-15.30316,34.43823-14.86639,3.20935,0.20325,3.90643-3.81219,2.11243-4.84723-2.24268-1.29407-4.33862-2.4693-4.23383-2.4693,11.83813,0,27.27423-5.46844,38.1286-8.61816,3.87128-1.12146,10.86469-3.59357,11.49847-3.72882,2.79474-.94073,2.92743-6.25055-1.44049-6.197a0.69812,0.69812,0,0,0-.11371-0.02869c-19.74231.09491-32.56091-3.64032-43.13507-10.25781a0.07352,0.07352,0,0,1,.051-0.13434c11.74976,2.13385,24.22156,4.43024,36.43225,3.994,39.66492-1.41687,64.59454,19.04,69.88983,18.98761,3.303-.0329,3.01672-3.26593,2.93555-4.231-0.10937-1.30121-1.1134-5.92914-1.31348-7.03357a0.07141,0.07141,0,0,1,.11139-0.07147,49.98687,49.98687,0,0,1,13.03351,14.0683,3.17842,3.17842,0,0,0,3.15417,1.54388c10.26672-1.29724,14.93549-2.64374,24.44348.1167a0.07113,0.07113,0,0,1,.01422.131,32.3453,32.3453,0,0,0-10.27429,8.84753c-2.31543,2.391-.15057,5.4071,2.97571,5.00531,12.0235-1.54614,17.51062,2.85077,25.06366,8.626,4.74915,3.63184,9.97174,7.62646,17.54,10.73273a0.06729,0.06729,0,0,1,.02307.11072c-2.36243,2.36145-3.40509,5.85217-3.83569,10.24292-0.18292,1.86481.81641,3.29242,3.1051,3.29468,5.851,0.00555,8.75751,6.65405,12.84851,17.32324,3.91144,10.1991,8.6795,22.63293,20.387,24.52948a0.073,0.073,0,0,1,.05493.09955,6.2852,6.2852,0,0,1-4.59082,3.84753,3.17269,3.17269,0,0,0-1.03949,5.52533c3.6156,3.0755,8.76776,6.6217,14.26141,7.51178a0.071,0.071,0,0,1,.05127.10028c-3.72589,8.10687-7.43988,8.32086-13.918,8.54626a3.38163,3.38163,0,0,0-3.026,1.92059,3.19848,3.19848,0,0,0,1.38666,4.08258c3.95715,2.186,3.79211,4.25836,3.48871,8.01923-0.22937,2.90479-.51544,6.47919,1.70361,9.82166a0.06778,0.06778,0,0,1-.0564.10846c-0.934-.04462-5.45715-0.35223-7.1391-0.54132-1.42786-.16058-3.68768,1.03461-4.34918,5.23761a38.50815,38.50815,0,0,1-4.62445,13.37128,0.07137,0.07137,0,0,1-.13324-0.03461,38.2453,38.2453,0,0,0-2.4613-13.53741c-0.55237-1.40265-3.10779-2.72455-5.30444-.27a7.28023,7.28023,0,0,1-4.18213,2.24988,0.07279,0.07279,0,0,1-.074-0.10944,26.77113,26.77113,0,0,0,3.65833-18.364c-1.45386-9.674-7.75641-19.32581-16.54047-25.75507a0.06391,0.06391,0,0,1,.03491-0.11908c3.6756-.01727,13.04059-6.18524-3.16437-16.7514-2.37317-1.54742-11.237-8.42059-13.25818-10.04932a0.064,0.064,0,0,1,.00708-0.10388,10.71007,10.71007,0,0,0,3.28009-4.23456c2.47131-5.58728,1.21368-14.62262-6.98877-22.04138l-0.00342-.0033c-1.1322-1.20679-36.139-43.33582-49.9743-37.21216-7.38135,3.26709-24.22321,5.29883-31.52173,4.88348a0.07082,0.07082,0,0,1-.0083-0.13824c10.383-3.9953,16.8089-9.06482,16.25079-11.2973-0.85657-3.42633-4.4494-4.16895-7.36963-4.13007a171.77535,171.77535,0,0,0-26.77777,2.40259c-38.84985,8.24017-52.98126,29.78619-66.78149,64.85455-5.83844,14.83667-4.54242,20.23932-14.24493,20.12555-4.27313-.05017-3.52722,4.39-2.50586,5.35889,3.46252,3.28467,6.2608,4.98773,9.25555,5.5614a0.06432,0.06432,0,0,1,.04523.1004c-4.7157,6.98853-11.32,27.7002-11.78772,34.27332a41.8788,41.8788,0,0,0,.8382,11.77673,36.3168,36.3168,0,0,0,3.43915,9.58264,0.07266,0.07266,0,0,1-.06055.10559c-4.94214.35388-9.098-3.56116-10.63385-5.89337-0.68256-1.035-4.88708-2.16791-5.73053.832-0.4447,1.58154-.86212,3.02728-1.16412,4.47a40.14759,40.14759,0,0,0-.31482,13.56372,0.07422,0.07422,0,0,1-.12244.06281c-8.83887-8.12543-8.08606-14.94775-6.85168-19.439,0.17035-.61957.33905-1.20013,0.51416-1.72461,0.5376-1.61133-.78992-4.53156-3.42407-4.12891-6.26978.95831-9.41809-.3006-11.20062-2.20337A9.5411,9.5411,0,0,1,91.72485,217.93262Zm239.11975,8.87482c0.19629,13.78094-13.71094,17.1944-17.32959,18.25342s-25.7204,3.48877-32.5105,2.18384c-6.23242-1.20679-13.52051-7.34558-16.14819-12.10358-0.30341-.54205-7.309-13.37946-3.79565-22.13922,1.33173-3.32147,4.01117-5.56995,8.19141-6.87714,9.01184-2.81281,21.05981-4.11774,31.20929-4.11774a80.24977,80.24977,0,0,1,13.30206.95026C324.61554,204.89307,330,207.29712,331,214.83972V214.845C331,214.91913,330.76923,221.36493,330.8446,226.80743Zm-16.408-28.34717c-11.06409-1.97192-32.00714.4425-46.55377,3.30585-11.98865,2.35968-12.16956,13.05444-12.29767,15.17914a0.0627,0.0627,0,0,1-.07739.058c-5.9903-.88806-16.28259.02441-22.42151,1.43951a0.05948,0.05948,0,0,1-.07593-0.035c-0.41992-1.08142-4.46265-10.59418-13.75012-11.422-14.76837-1.31635-35.88007-.66919-46.59393,2.70807-8.22943,2.59692-15.6936,6.99274-17.60815,15.19476a0.0697,0.0697,0,0,1-.06476.0531c-2.09753.08929-3.86188,0.37238-5.42249,0.41632-2.38831.06757-7.23053-1.44281-14.305-2.4151a0.07116,0.07116,0,0,1-.06274-0.0603c-1.11719-8.783,4.24255-32.98065,14.68842-43.32074,3.11316-3.08166,2.72833-6.61-.83929-5.12073-2.62537,1.09619-6.14282.59875-7.882,0.33166a0.06988,0.06988,0,0,1-.00775-0.13361c8.95807-4.33673,9.16028-7.86139,13.02081-19.80164,1.10431-3.42194,20.98553-64.59442,79.42566-64.77338a0.07219,0.07219,0,0,1,.03992.135c-5.22247,2.40009-13.11908,6.77686-16.8382,8.0849a3.34559,3.34559,0,0,0-2.21088,2.403,3.19889,3.19889,0,0,0,2.027,3.66187c14.642,5.38928,43.34863-1.31927,51.14008-4.0509,8.95825-3.14075,25.45172,16.67,36.837,29.371,2.005,2.23669,13.49048,11.55847,10.52869,20.45062a3.09506,3.09506,0,0,1-3.288,2.26636c-1.29376-.10931-5.19147.88037-2.9043,5.05463,1.486,2.712,22.12415,18.32172,23.84912,19.99316a0.06973,0.06973,0,0,1-.03894.1203,34.25242,34.25242,0,0,1-3.78784.25018c-4.37457.06329-8.23987,4.54987-2.592,8.81555,7.248,5.47424,14.32922,12.06049,16.9118,19.9552a0.07039,0.07039,0,0,1-.04926.09344c-2.61938.58026-8.48718,1.5968-9.72681,1.70129a0.06208,0.06208,0,0,1-.06122-0.03754C329.99036,201.90912,322.29651,199.86182,314.43665,198.46027Zm-87.36359,42.33112c-1.9942,5.05688-8.41626,12.08344-14.44128,14.0799-6.56256,2.17267-25.51831,2.60571-30.77856,2.2262s-19.67236-2.40466-21.24719-16.09863c-0.61121-5.30341-1.606-11.54987-1.606-11.643v-0.007c0-7.77673,4.46759-11.98242,14.97577-15.29633,10.19855-3.21216,30.51868-5.01233,44.46252-2.56531a14.05537,14.05537,0,0,1,9.52869,6.866C232.58,226.58881,227.3028,240.21362,227.07306,240.79138ZM191.55542,456.08569a0.06983,0.06983,0,0,1-.116-0.01428c-7.27045-14.10638-14.21661-47.06372-14.93182-67.35828a0.0678,0.0678,0,0,1,.12714-0.03674c8.76935,14.549,38.17572,31.13232,41.22754,32.4389a0.06306,0.06306,0,0,1,.02008.10272C216.64441,422.751,200.07043,446.21069,191.55542,456.08569Zm83.1803-38.05292c-9.63678,4.37384-40.48718,2.06482-48.79474-2.5296-11.23224-6.21185-42.17523-30.82147-46.82477-39.24524-0.00256-.0047-0.16534-0.00867-0.16907-0.01257L177,374.37244V374.366a175.73835,175.73835,0,0,1,19.99274,9.03442c6.15326,3.27209,17.5788,8.48206,25.69086,12.98047,8.37329,4.64313,23.154,8.86383,38.3291,8.36023,35.62555-1.18237,52.60461-22.21625,61.20795-31.38379a0.07563,0.07563,0,0,1,.12091.087C320.09314,377.444,303.9234,404.78528,274.73572,418.03278ZM323,392.18463v0.00519c-1,14.97882-5.52179,54.71124-12.33588,64.95642A0.6349,0.6349,0,0,1,310.66882,457h0.00128a0.29234,0.29234,0,0,1-.00128.16635c-5.69806-3.75421-20.77606-27.39647-24.3645-32.54308-0.0271-.03888.02161-0.04516,0.06683-0.05938,20.60773-6.502,29.73969-24.49594,36.81427-36.51693,0.00018-.03088.00293-0.05461,0.00287-0.08525-0.00012-.07239.1095-0.09054,0.07275-0.02816-0.025.04236-.0506,0.08916-0.07562,0.1317C323.17816,389.268,323,390.66907,323,392.18463Zm5.40918-41.13617c-6.345,10.53223-28.05127,33.95642-30.91742,36.32281a0.06838,0.06838,0,0,1-.10181-0.08984c3.99-6.22833,9.28333-19.56519,7.81366-29.985a0.072,0.072,0,0,0-.14112-0.00635c-2.8175,11.98865-10.43316,25.26111-19.23291,35.46906a0.075,0.075,0,0,1-.03052.02136c-13.35107,5.01489-30.00061,5.283-44.48145,1.71655a0.07229,0.07229,0,0,1-.03436-0.01929c-9.91919-9.91113-20.86536-23.95056-24.80017-31.08173a0.06891,0.06891,0,0,0-.12915.03583c0.11682,3.24738,6.83191,18.0166,13.95294,27.34595a0.068,0.068,0,0,1-.08527.10327c-3.29474-1.82416-32.14746-18.62457-39.90613-20.96124a63.43637,63.43637,0,0,1-13.05908-5.544c-8.60614-4.96405-27.40582-45.26251-30.69489-55.8266-0.29773-1.23676-5.90576-16.94672-6.9187-19.78088-0.0274-.07666-0.19934-0.05554-0.19617.02576A110.83827,110.83827,0,0,1,139,306.7998v0.00262c0,0.04614.193,10.6037-3.82788,13.70947-0.68091.52588-6.58838,2.79083-8.89325-.75061-1.3269-2.03882.95062-15.63934,0.70862-17.61658-1.46893-12.012-7.88287-23.48346-12.93671-29.6568-4.80957-5.87891-16.304-28.48108-17.14746-34.01306-0.26294-1.71527-.58771-5.16309.4267-7.50787a0.073,0.073,0,0,1,.07935-0.0423,24.12746,24.12746,0,0,0,3.79181.3454,0.06917,0.06917,0,0,1,.06891.08c-1.43146,8.22131.696,17.98193,16.23761,28.74988,3.02448,2.09546,5.22675-.677,4.92755-3.201-1.05316-8.88416-1.77386-13.45-1.24548-17.3623a0.34584,0.34584,0,0,1,.34015-0.26569c5.04468,3.52527,11.46252,4.6308,15.23291,3.8158,3.50879-.76733,4.2226-3.04486,4.36761-3.98621a3.20077,3.20077,0,0,0-.82983-2.67456,17.74969,17.74969,0,0,1-2.91956-5.13184,0.07246,0.07246,0,0,1,.0874-0.09753c2.58173,0.865,5.37579,1.6424,7.00348,1.57867,3.43988-.13464,7.41766-0.03619,10.47559-0.00836a0.06683,0.06683,0,0,1,.06763.05884c0.32391,2.33783.76886,5.65576,1.11865,8.69507,1.98529,17.26971,19.03265,20.58765,30.34363,20.29669,8.01062-.20605,21.91833-0.73163,27.59094-2.60986,7.3277-2.42914,14.83832-10.61566,17.25409-16.73883,0.51489-1.30011,4.04993-10.72925,2.81964-19.53192a0.06808,0.06808,0,0,1,.0517-0.07776c5.98981-1.36908,16.87579-2.16876,21.44885-1.20612a0.06872,0.06872,0,0,1,.05383.06152,46.55865,46.55865,0,0,0,5.14423,15.63495c3.18317,5.76178,11.588,13.57379,19.26617,14.37878,10.66644,1.11841,31.10089-1.32916,34.477-2.24182,3.3761-.9129,20.95032-5.36694,20.70044-22.74371-0.071-5.06665.01343-10.9588,0.01721-11.87421a0.06108,0.06108,0,0,1,.06091-0.06079c0.6767-.0882,6.45166-0.5376,10.80878-0.56494a0.07419,0.07419,0,0,1,.07312.07526c-0.0379,5.43494-3.55914,9.918-7.21082,14.69324-1.73242,2.26544-1.216,5.34186.96338,5.34686,0.35907,0.00085,6.84534,1.47662,12.22693-1.13361a0.06927,0.06927,0,0,1,.10046.04968,49.07468,49.07468,0,0,1,.01593,12.68109c-0.92346,6.15057,3.03577,7.14166,5.09454,5.38928,7.39343-6.29309,10.48914-14.66113,11.8786-20.47937a0.07008,0.07008,0,0,1,.13153-0.01154c1.33264,2.63165,2.41241,5.34686,2.41241,7.27679a28.85691,28.85691,0,0,1-7.9729,20.48938c-4.6886,5.06-11.54749,21.26361-11.54749,31.13312,0,7.10938,2.28424,15.81818-6.27881,16.1283-0.6377.65753-3.15552-.37531-3.16113-3.07379l-1.45831-18.05664S342.87555,327.03516,328.40918,351.04846Z" transform="translate(-17.01182 -17.00591)"/></svg>