<?xml version="1.0" ?><svg id="cruz" viewBox="0 0 477.97637 477.97637" xmlns="http://www.w3.org/2000/svg"><defs><style>.cls-1{fill:#f06695;}.cls-2{fill:#fff;}</style></defs><title/><circle class="cls-1" cx="238.98818" cy="238.98818" r="238.98818"/><path class="cls-2" d="M275.51851,260.27109c-2.35554-6.30365-3.49465-16.27034-6.47149-22.28947-2.50115-5.0573-4.66824-16.83839-12.27951-16.5704-4.13288.14552-2.71738,9.62517-1.58094,12.23935,2.57779,5.92976.81342,18.49987-1.75579,27.3655-3.0687.45946-5.74383,0.79368-8.14622,3.07048a12.68429,12.68429,0,0,0-3.755,7.86683,8.44146,8.44146,0,0,0,.07057,2.53914c0.74805,3.7035,6.00019,8.54784,9.53513,9.47007a4.11892,4.11892,0,0,0,5.28524-3.89125c0.1258-.01625.25164-0.03786,0.37741-0.06119a7.11557,7.11557,0,0,0,1.73322.76777c-0.01707.09222-.0309,0.1881-0.04877,0.27947-0.66535,3.39663-1.11747,6.92532-.05024,10.29449a10.45168,10.45168,0,0,0,14.13725,6.5726C286.86881,291.93923,278.79432,269.03738,275.51851,260.27109Z" transform="translate(-17.01182 -17.40515)"/><path class="cls-2" d="M305.79506,478.31248c-2.82982.00986-12.36981-2.76172-22.55912-19.35955-2.649-4.31739-8.19092-13.1901-12.73117-20.63447l-0.39507-.38028a33.17655,33.17655,0,0,1-3.35815,5.209c-4.61008,5.39336-7.94894,7.51939-3.25246,14.78053,5.556,8.59037,12.14445,16.62868,6.67113,21.08924-7.70375,6.27823-27.07743,5.48246-35.81528,3.08205-9.11761-2.50449-6.46513-8.93364-2.39246-16.44147,6.35126-11.70806,10.43522-15.823,5.41774-20.07668-1.33286-1.12988-7.778-3.3166-9.4754-5.85074-15.9961,27.92457-20.60063,42.24936-26.47044,43.46806-3.36246.69825-4.59176-1.71509-5.524-3.75421-15.63417-34.19963-17.115-59.31925-16.80994-80.62068-0.81544,3.606-1.68723,7.96284-2.59925,12.78691-1.29988,11.04805-3.57738,22.44443-6.09081,33.77857-2.16838,11.93567-4.37414,23.37275-6.46659,31.61135a239.96291,239.96291,0,0,0,156.9107,9.42636c-2.74169-2.60295-6.4828-6.158-10.94392-10.4051C308.5359,477.60761,307.15428,478.4419,305.79506,478.31248Z" transform="translate(-17.01182 -17.40515)"/><path class="cls-2" d="M185.50423,382.84886c-0.03094.03764-.06137,0.07944-0.09206,0.11806-5.5892,17.88421,6.8089,78.78192,15.98434,89.36738,4.51163-14.25379,20.50924-41.83424,22.2445-45.62913C220.60276,426.71576,185.99882,383.46695,185.50423,382.84886Z" transform="translate(-17.01182 -17.40515)"/><path class="cls-2" d="M186.77848,374.57086c8.90955,11.9787,29.68793,38.52026,42.77313,43.9776,6.71228,3.264,15.42627,3.86407,23.8584,3.26184-20.67352-20.04395-39.16278-38.30792-44.88983-44.952a74.86541,74.86541,0,0,1-25.67407-8.58307C184.05576,370.03082,185.3314,372.09857,186.77848,374.57086Z" transform="translate(-17.01182 -17.40515)"/><path class="cls-2" d="M262.63151,372.75458c-3.665-5.93164-10.3114-8.22864-14.76526-13.59326-3.82666-4.60931-6.16052-9.41266-9.20343-13.21667-4.33258-5.4162-6.25171-14.5094-8.5592-20.93573-1.99811-5.56464-4.02057-11.25891-4.08124-17.17114-0.04962-4.83179,1.20026-9.51764,2.1778-14.211,0.99774-4.79059.79865-9.12946,1.1178-13.91022,0.33228-4.97717,1.12085-9.63324,1.3891-14.3363-16.28265,10.74921-21.736,18.46362-25.92847,45.11835-4.314-31.1189,4.18591-44.03369,26.01392-47.25159a36.46688,36.46688,0,0,0-1.15173-10.23059c-2.19568-8.25012,1.32794-19.4577,3.96014-27.63507,0.6687-2.07727,2.0799-3.4826.777-5.70813a4.03252,4.03252,0,0,0-1.20233-1.27826,4.80928,4.80928,0,0,1-.41949.91254c-3.25024,5.57111-13.2605,12.04-30.99646,4.7431-2.58917-1.06525.70251-2.20807,3.46552-1.85211a56.67081,56.67081,0,0,0,10.743-.37915c-2.24927-.08942-10.33171-3.039-15.0943-5.75385a14.63242,14.63242,0,0,1-2.699-1.386,22.09691,22.09691,0,0,1-4.77539-4.42041c-0.08453-.0943-0.08936-0.25916-0.54529-0.18573a39.9239,39.9239,0,0,1-7.61206.82446c-13.56219-.16754,5.21881-6.56915,22.55548-12.54236a38.56321,38.56321,0,0,0,3.20734-4.97778,37.25408,37.25408,0,0,0,2.7384-6.57562,56.14418,56.14418,0,0,0-20.33636,1.35052c-12.55853,6.65491-23.83917,2.21161-17.58862-2.18616,5.14594-3.62054,8.81146-7.83,16.61267-13.58215,5.30627-3.91248,15.173-2.20258,21.34485-.41663,0.73346,0.21362,1.4317.40485,2.134,0.59863,0.2926-5.72418.30042-11.5155,1.49353-17.58087,2.34-11.89532,12.1-20.71509,11.9502-34.11719-0.42065-37.58282-40.46094-17.97278-50.00879,3.20465-3.01086,6.67859-3.88647,14.09875-5.50934,21.19147-1.95123,8.52753-4.02051,17.01617-6.46948,25.41656Q162.86863,186.108,157.19217,201.159c-0.631,1.66858-1.81964,6.68433-3.50244,9.05969a38.70792,38.70792,0,0,0-1.07513,8.64154c-1.88055-1.02429-2.19836-.22174-3.46344-0.72638-0.70288-2.4046-2.64557-7.02972-5.103-13.29907-0.87836-2.24084-1.74261-4.77637-2.68207-7.3385-4.608-4.33167-10.774-9.57324-16.25293-8.34741-10.45978,2.34088-9.27533,13.06964-6.2868,20.94495,1.70135,4.48328,3.82385,8.52826,5.64612,12.5672,1.68225,2.18976,3.541,5.28925,3.3634,8.48645,0,0-.05383.15936-0.15009,0.45813a28.37486,28.37486,0,0,1,.1153,12.89716c-1.21259,5.57855-3.87872,10.77289-4.95081,16.37958,0.357,7.53711,2.76263,13.93726,9.45752,15.41144a8.61339,8.61339,0,0,0,6.92383-2.73682c5.33246-6.77911,6.79047-9.1546,12.16119-22.71918,0,0,1.86981,3.31165-2.10034,14.57153-1.30273,6.29565-3.53,10.40094-3.92322,12.56622s-0.45428,86.17413,76.27423,88.685c-2.64215-8.86121.06512-24.31317,6.03217-6.31769,4.52185,13.63715,10.26581,24.43225,32.60632,27.62561a43.36393,43.36393,0,0,0,8.489.402C270.08616,385.14948,266.3765,378.81567,262.63151,372.75458Z" transform="translate(-17.01182 -17.40515)"/><path class="cls-2" d="M210.10166,204.10486a2.20988,2.20988,0,0,0,.63715,3.14716,2.425,2.425,0,0,0,3.29-.55884,2.20828,2.20828,0,0,0-.61981-3.12909,0.83779,0.83779,0,0,1-.53082-0.11969,1.2207,1.2207,0,0,0-.01624-0.15088A2.40172,2.40172,0,0,0,210.10166,204.10486Z" transform="translate(-17.01182 -17.40515)"/><path class="cls-2" d="M223.55375,205.04871c0.1828,3.85284-3.878,7.17792-9.07989,7.41949-5.1087.2373-9.39337-2.58936-9.71625-6.34344a51.88656,51.88656,0,0,1-7.94446,2.92041,20.50962,20.50962,0,0,0,3.46527,2.62891c9.94592,6.59747,19.57574,2.63959,22.57611,1.75775,0.394-.152.75793-0.27838,1.10742-0.39276,0.71887-.47327,1.44287-0.97821,2.18842-1.53906,2-1.75952,3.63837-3.10236,3.9458-4.85962a1.55013,1.55013,0,0,0-.40338-1.50482c-0.06628-.0509-0.14142-0.08655-0.20886-0.13556-1.40973-.25891-3.69177-0.70837-6.18085-1.32166A5.28025,5.28025,0,0,1,223.55375,205.04871Z" transform="translate(-17.01182 -17.40515)"/><path class="cls-2" d="M319.06327,215.91132a1.61605,1.61605,0,0,0,.32263-0.512c0.46741-.1192.93475-0.22864,1.4021-0.33728a29.17633,29.17633,0,0,0,3.25116-1.99835,77.88757,77.88757,0,0,1-9.98053-4.09235,5.21319,5.21319,0,0,1-.01025,1.18488l-0.27344,1.10425c-1.16193,3.14716-5.29321,4.90088-9.71735,4.11664-4.96112-.87933-8.628-4.65521-8.17035-8.38q-0.595-.11234-1.18835-0.25311c-0.12518-.07794-0.24908-0.13574-0.37311-0.20038-4.08008.41772-7.87054,0.48981-7.87054,0.48981l2.55847,3.34888c0.083,0.03455.16248,0.07135,0.24762,0.10449a1.82155,1.82155,0,0,0,.21088.22748c3.47369,3.06873,7.15656,5.91968,11.80151,6.86267a22.694,22.694,0,0,0,3.79541.42126,1.75861,1.75861,0,0,0,.131.41644A29.01969,29.01969,0,0,0,319.06327,215.91132Z" transform="translate(-17.01182 -17.40515)"/><path class="cls-2" d="M300.43436,207.16724a2.23139,2.23139,0,0,0,.692,3.11212,2.31162,2.31162,0,0,0,3.18671-.55688,2.1949,2.1949,0,0,0-.26727-2.74182,1.085,1.085,0,0,0-.41193-0.04187,4.117,4.117,0,0,0-.54138.09845l-0.02618-.03961a1.388,1.388,0,0,0-.70093-0.78107A2.22725,2.22725,0,0,0,300.43436,207.16724Z" transform="translate(-17.01182 -17.40515)"/><path d="M276.29057,180.0721c3.049-2.05829,23.22961.31527,38.71607-.702,13.55138-.931,14.52615,2.70928,19.33182,7.37152,7.03915,9.48775,11.78755,15.95529,10.77343,17.47913s-4.18095,2.08388-10.18884-2.15559c-18.62488-13.36512-23.039-10.67441-39.61992-8.34764C276.78727,198.50575,273.23609,182.13408,276.29057,180.0721Z" transform="translate(-17.01182 -17.40515)"/><path d="M147.65619,230.51744c-4.60857,4.39136-3.56838,14.74346-2.98588,22.72866,0.29285,4.01446-2.6859-10.66123-4.40185-14.68339-1.71274-4.01463-2.79951-9.7095.30883-10.8883,2.4629-.934,6.7144-8.62384,6.7144-8.62384Z" transform="translate(-17.01182 -17.40515)"/><path d="M137.3724,215.49292c-0.64538-10.94942-4.016-29.591-11.67124-24.21329-3.5132,2.468-3.98081,5.53967.27405,4.75151,4.10519,0.00154,4.631,3.53122,5.31,6.27006C132.49823,207.19353,137.3724,215.49292,137.3724,215.49292Z" transform="translate(-17.01182 -17.40515)"/><path d="M365.22108,235.72956c2.8858-12.91539,13.40018-20.58458,14.67878-18.02058,1.30163,2.96641,1.34456,10.96659-1.966,5.358-2.43226,2.03633-6.59584,5.79852-6.59584,5.79852Z" transform="translate(-17.01182 -17.40515)"/><path d="M358.865,255.06759c2.256,3.42082.75934,6.44883,0.42307,14.56774,1.41478-2.82479,3.03464-5.35716,4.33212-8.35275,1.29478-2.98935.74141-7.80524-1.61357-8.94067-1.86822-.90074-3.59827-8.14128-3.59827-8.14128Z" transform="translate(-17.01182 -17.40515)"/><path d="M284.59342,334.52522c-6.96706-2.18727-24.49306-1.88145-35.84071.65079-4.52342,1.0094-13.46007.66177-6.64277-2.753,15.45874-7.74324,38.74786-7.37062,50.37894.79743C298.351,337.33717,289.80407,336.16108,284.59342,334.52522Z" transform="translate(-17.01182 -17.40515)"/><path d="M310.08789,307.75507c-2.00991-21.29762-7.46753-28.2442-16.67594-42.55114C306.24032,269.82021,313.73526,277.22212,310.08789,307.75507Z" transform="translate(-17.01182 -17.40515)"/><path d="M246.87247,226.17979a1.9149,1.9149,0,0,1-.83017-0.22943c-0.85677-.46868.21894-3.73511,0.60825-4.58335,1.97249-4.29773,2.61917-8.56414-1.57316-14.13156-0.57108-.75839-2.98786-3.962-2.29158-4.61352,0.69657-.65836,2.70592.20152,3.48737,0.77118,7.72222,5.62936,6.89112,15.66694,2.22514,21.96269A1.9363,1.9363,0,0,1,246.87247,226.17979Z" transform="translate(-17.01182 -17.40515)"/><path d="M293.63018,270.73167c-0.81543-5.22754-4.77147-9.374-9.40965-9.861a5.87079,5.87079,0,0,0-3.87166.5718c0.474-1.549,1.16-2.42983,1.73292-4.01724,2.92481-8.09364,4.6082-17.98232-2.69116-27.90587-4.62044-8.202-7.74878-12.18675-5.5646-18.29366,0.36337-1.01662,1.86-5.86064.82354-6.339-1.02675-.478-2.92286,1.11246-3.43,2.07351-4.67362,8.83089-.5303,15.45823,4.63574,24.59005,4.0773,5.93193,3.26571,17.03126,1.37031,24.26788-1.06828,4.07871-2.02838,10.12771-2.45586,11.686-1.06206,3.87156-.89863,5.461.42433,7.51255a43.53651,43.53651,0,0,1,3.68184,7.18222,12.72141,12.72141,0,0,1-1.86718,13.47466,10.22053,10.22053,0,0,1-15.42711.1319c-2.9675-3.17935-4.62482-6.68857-3.61151-10.74152,0.35749-2.12357.42827-3.443-.96463-4.29936-1.89533-1.26382-2.89158,2.98606-9.87869,1.70215a5.61729,5.61729,0,0,1-2.73324-1.56332c-4.50545-4.63192-4.406-11.323-2.40688-15.57666,1.241-2.63847,3.13919-4.279,4.95491-4.28093,2.28485-.16392,5.46174,2.02254,7.763,6.33355,1.31181,2.45744,5.17265,4.805,3.04928-1.94933-2.54359-8.091-8.11611-8.25066-10.84575-8.27753-3.53667.00775-6.80531,2.47606-8.74291,6.59618a17.69765,17.69765,0,0,0,3.14639,19.75777,9.833,9.833,0,0,0,4.999,2.7855c3.87427,3.28523,8.33193,6.55152,10.57013,8.153,2.36617,4.24111,4.77921,6.478,12.17369,8.10972a14.35175,14.35175,0,0,0,12.14381-5.97,15.55387,15.55387,0,0,0,2.69985-11.18293,11.39032,11.39032,0,0,0,5.32387-3.19968C292.31379,279.00986,294.1687,274.18322,293.63018,270.73167Zm-7.75695,8.64649a7.47286,7.47286,0,0,1-2.9159,1.91393,29.02489,29.02489,0,0,0-3.89178-7.72532,12.84791,12.84791,0,0,1-.47238-3.74323c0.97657-3.47212,3.03925-5.10291,5.15279-4.7812,2.19565,0.227,4.84665,2.505,5.43073,6.26693C289.47639,273.24043,288.30364,276.87512,285.87324,279.37815Z" transform="translate(-17.01182 -17.40515)"/><path d="M304.93564,199.15765c-5.69781-.664-9.91846-1.03223-15.9455-1.90784-13.627-1.13031-10.23743,3.21448-4.51532,4.36206,1.32172,0.26508,3.82257.899,5.13867,1.24139a63.23729,63.23729,0,0,1-6.39819.474c-3.47406.5022-1.77722,3.82971,0.22577,5.61981,2.155,1.9259,6.55237,2.71765,6.55237,2.71765l-0.97974-1.28241-2.55847-3.34888s3.79047-.07208,7.87054-0.48981c0.55969-.05725,1.124-0.12085,1.68555-0.19189a5.06711,5.06711,0,0,0-.11877.56854c-0.00354.02563-.00214,0.05121-0.00531,0.07684-0.45764,3.72479,3.20923,7.50067,8.17035,8.38,4.42413,0.78424,8.55542-.96948,9.71735-4.11664l0.27344-1.10425a5.21319,5.21319,0,0,0,.01025-1.18488,77.88757,77.88757,0,0,0,9.98053,4.09235,29.17633,29.17633,0,0,1-3.25116,1.99835q-0.86261.461-1.72473,0.84924a29.01969,29.01969,0,0,1-13.86316,2.50336,20.56025,20.56025,0,0,1-7.31683-1.71143c-4.08228-2.02478-10.45734-2.79736-7.29657-.30225,12.18951,9.62225,26.09979,5.39178,30.73242,2.99359,3.45569-2.23193,5.44977-4.06738,6.28827-5.33417,1.14526,0.27869,2.24506.51825,3.40039,0.78479C338.77823,214.09625,329.951,208.07672,304.93564,199.15765Zm-4.50128,8.00958a2.22725,2.22725,0,0,1,1.931-.95068,2.344,2.344,0,0,1,1.68042.7641,2.1949,2.1949,0,0,1,.26727,2.74182,2.31162,2.31162,0,0,1-3.18671.55688A2.23139,2.23139,0,0,1,300.43436,207.16724Z" transform="translate(-17.01182 -17.40515)"/><path d="M318.41924,227.84629c2.50528-1.24992-2.32586-2.0684-5.343-1.88121-4.15109.25754-16.11393-.86307-20.14857-4.19778-3.14514-2.59952-6.87249-4.24071-4.89641-.1008C290.80962,227.48727,302.81134,235.63331,318.41924,227.84629Z" transform="translate(-17.01182 -17.40515)"/><path d="M300.66933,317.60705c-0.80823-2.05449-2.838-5.30429-5.30556-9.98788-3.66568-6.95776-4.24772-1.62007-2.63318,2.65918a4.82522,4.82522,0,0,1-3.36815,1.77042c-1.39232.00485-4.551-3.327-6.22277-3.79754-1.813-.51026-9.03886,3.06073-14.41292,3.07413-5.00087-.84589-9.52321-6.09371-13.41929-4.94766-4.60042,1.35323-10.73253,2.81345-13.72922,3.35163-1.752.31464-9.59719,0.96055-9.09454-.67569,1.93974-6.31427-1.25235-9.59889-3.92727-5.11511-2.36634,3.96654-2.95177,5.499-4.193,10.7046-1.95108,8.18292.3293,9.00273,3.43048,2.33159,1.11673-2.40227,2.27049-4.242,3.30811-3.76836,27.02421,12.33694,28.52887,6.61213,34.8377,7.1453,3.99954,0.338,9.25169,4.65866,26.25669-3.75868,2.958-1.23465,3.83573,1.94024,5.89395,4.31674C301.25746,324.56652,302.12925,321.31812,300.66933,317.60705Z" transform="translate(-17.01182 -17.40515)"/><path d="M226.27591,219.36438c-1.49371,1.10358-5.84741,1.95441-10.30774,2.455a56.67081,56.67081,0,0,1-10.743.37915c-2.763-.356-6.05469.78687-3.46552,1.85211,17.736,7.29694,27.74622.828,30.99646-4.7431a4.80928,4.80928,0,0,0,.41949-0.91254C234.10178,215.63947,229.33811,217.10205,226.27591,219.36438Z" transform="translate(-17.01182 -17.40515)"/><path d="M230.79252,263.247c-21.828,3.2179-30.32788,16.13269-26.01392,47.25159,4.1925-26.65472,9.64581-34.36914,25.92847-45.11835,1.28284-.84692,2.62476-1.71039,4.04688-2.60577C233.38511,262.898,232.06986,263.05872,230.79252,263.247Z" transform="translate(-17.01182 -17.40515)"/><path d="M231.38627,199.88965c7.22363-.762,14.03046-6.14868-0.63959-5.49927-7.223.58252-15.75134,1.34644-16.34595,1.6756-2.12738.74622-4.35321,1.51422-6.60309,2.28943-17.33667,5.97321-36.11768,12.37482-22.55548,12.54236a39.9239,39.9239,0,0,0,7.61206-.82446c0.45593-.07343.46075,0.09143,0.54529,0.18573a22.09691,22.09691,0,0,0,4.77539,4.42041,14.63242,14.63242,0,0,0,2.699,1.386c6.08,2.46893,18.09967,4.23676,27.31189-2.402,1.04578-.75378.04047-2.02051-4.22382-0.62445-0.34949.11438-.71338,0.24072-1.10742,0.39276-3.00037.88184-12.63019,4.83972-22.57611-1.75775a20.50962,20.50962,0,0,1-3.46527-2.62891,51.88656,51.88656,0,0,0,7.94446-2.92041c0.32288,3.75409,4.60754,6.58075,9.71625,6.34344,5.2019-.24158,9.2627-3.56665,9.07989-7.41949a5.28025,5.28025,0,0,0-.25067-1.37036c2.48907,0.61328,4.77112,1.06274,6.18085,1.32166,0.90723,0.16663,1.4563.255,1.4563,0.255-0.16077.92053-.82147,4.29706-0.82147,4.29706,0.94971,0.00354,4.46906-2.06128,5.63336-4.4082,0.87817-2.03424,1.58759-2.46356-2.49573-3.35345a32.56934,32.56934,0,0,1-5.75867-1.55139A9.47476,9.47476,0,0,0,231.38627,199.88965Zm-17.35748,6.80353a2.425,2.425,0,0,1-3.29.55884,2.20988,2.20988,0,0,1-.63715-3.14716,2.40172,2.40172,0,0,1,2.76025-.81134,2.442,2.442,0,0,1,.52783.255c0.00708,0.00464.01221,0.01086,0.01923,0.01556A2.20828,2.20828,0,0,1,214.02878,206.69318Z" transform="translate(-17.01182 -17.40515)"/><path d="M192.43107,172.38422c-7.80121,5.75214-11.46674,9.96161-16.61267,13.58215-6.25055,4.39777,5.03009,8.84106,17.58862,2.18616a56.14418,56.14418,0,0,1,20.33636-1.35052c9.58466,0.97888,17.31628,3.52075,23.23877,2.27863,10.0321-2.10413,16.92957-13.39624,13.93732-15.97272-2.92719-2.52057-3.7998,8.071-35.00952-.54169-0.70233-.19379-1.40057-0.385-2.134-0.59863C207.6041,170.18164,197.73734,168.47174,192.43107,172.38422Z" transform="translate(-17.01182 -17.40515)"/><path d="M342.58152,366.31653c13.6261-12.7691,21.564-39.95831,17.31818-60.1073,5.29419,2.45752,12.75336-.0025,15.67346-2.81183,6.23993-5.98315,4.86237-17.149,3.405-28.97131-0.90076-7.28137-1.8302-14.80884-.77588-20.1676,1.17523-2.99048,12.29376-20.7558,12.85925-21.71674,4.10577-6.99005,1.86163-22.03143-5.57623-27.08191-2.514-1.70734-6.41852-7.1048-15.12982,3.10364,7.49481-33.18506,6.49969-51.74927,7.51318-76.21948,1.71594-22.13428-35.80457-49.59174-60.80524-47.80548,5.23474-8.81927-11.47681-35.85193-61.72333-40.27643-90.83569-3.76215-107.501,25.34436-109.05444,43.50146a19.23814,19.23814,0,0,1-3.88208,9.83282c-19.2511,25.83929-11.13373,76.39331-12.23383,75.153-3.73718-2.50342-9.6261-.33484-13.73584,1.7196-5.27148,2.63934-6.78912,7.78528-8.957,12.53308-6.71655,14.70935,9.131,37.45886,14.81964,42.16547-3.8559,5.36829-9.899,41.26337-1.58466,50.50616a17.67544,17.67544,0,0,0,13.804,5.77454c-0.38141,13.42059,9.10211,52.535,37.223,75.30878-32.04736,5.67621-95.18909,16.5885-115.67084,26.60956a239.8341,239.8341,0,0,0,107.2616,89.37457c2.168-10.17023,4.79742-20.73224,7.15253-31.3526,2.113-11.63062,7.87463-42.95947,8.69006-46.56543-0.30505,21.30139,1.13989,46.42114,16.774,80.62079,0.93231,2.03912,2.14368,4.45251,5.5061,3.75427,5.86981-1.21869,10.46539-15.54346,26.46149-43.468,1.69745,2.53412,8.13806,4.72083,9.47095,5.85071,5.01746,4.25372.93127,8.36865-5.42,20.07672-4.07269,7.50781-6.72632,13.937,2.3913,16.44147,8.73785,2.40039,28.111,3.19617,35.8147-3.082,5.47333-4.46057-1.1153-12.4989-6.67139-21.08929-4.69647-7.26111-1.35779-9.38715,3.25232-14.78052a33.17875,33.17875,0,0,0,3.35809-5.209l-0.00006-.00006c0.02588-.04724.05157-0.09241,0.07758-0.14,0.10437,0.17126.212,0.34741,0.31744,0.52032,4.54028,7.44434,10.08215,16.317,12.7312,20.63446,10.18933,16.59778,19.72931,19.36938,22.55914,19.3595,1.35919,0.12946,2.74084-.70483,4.11542-2.29108,5.55145-6.40607,10.98627-25.27386,14.34906-44.37952,1.085-6.16473,2.37671-17.40112,4.20245-28.34082,1.89038,13.604,10.46,57.32391,13.71765,76.01074A239.56893,239.56893,0,0,0,443.4039,404.61053C430.07389,394.56927,367.88431,374.26526,342.58152,366.31653Zm-141.185,106.01776c-9.17542-10.58545-21.57355-71.48315-15.98431-89.36737,0.03064-.03864.0611-0.08044,0.092-0.1181,0.49457,0.6181,35.09851,43.86694,38.13678,43.85632C221.90574,430.50006,205.90812,458.08051,201.39652,472.33429Zm104.36377-3.99762c-8.52106-6.07959-29.68958-31.91083-30.92529-40.54883,0.03577-.092.06836-0.18054,0.10388-0.272,10.684-3.14307,39.70782-19.271,47.58936-36.13239C320.28336,413.42023,311.8187,454.41754,305.76029,468.33667Zm-29.775-50.60242a117.099,117.099,0,0,1-22.57532,4.076c-8.43213.60223-17.14612,0.0022-23.8584-3.26184-13.08521-5.45734-33.86359-31.9989-42.77313-43.9776-1.44708-2.47229-2.72272-4.54-3.93237-6.29565a74.86541,74.86541,0,0,0,25.67407,8.58307,87.1957,87.1957,0,0,0,15.57233.83765c16.1969,26.79413,66.329,22.78583,79.5285,1.775,7.54633-.52753,12.60132-1.89917,20.06616-4.20374C316.46805,386.25214,299.23368,408.1178,275.98533,417.73425Zm55.26318-54.62152a1.81644,1.81644,0,0,0-.28723.15338c-6.51672,3.56293-15.05115,5.96143-26.28644,6.84473,1.539-9.89172-2.76221-24.36346-6.89105-5.33356-0.62079,2.86133-7.04248,22.41705-29.01282,23.5932a43.36393,43.36393,0,0,1-8.489-.402c-22.34052-3.19336-28.08447-13.98846-32.60632-27.62561-5.967-17.99548-8.67432-2.54352-6.03217,6.31769-76.72852-2.51086-76.66748-86.51971-76.27423-88.685s2.62048-6.27057,3.92322-12.56622c3.97015-11.25989,2.10034-14.57153,2.10034-14.57153-5.37073,13.56458-6.82874,15.94006-12.16119,22.71918a8.61339,8.61339,0,0,1-6.92383,2.73682c-6.69489-1.47418-9.10052-7.87433-9.45752-15.41144-0.56152-11.85358,3.94763-26.52075,4.83551-29.27673a49.40489,49.40489,0,0,0-3.21332-8.94458c-1.12585-1.46552-2.17334-2.52753-2.47577-2.92389-5.86627-7.68762-12.51562-17.26215-9.73511-24.9494,1.74786-4.83228,6.04181-10.69073,8.9248-12.134,3.61609-1.80756,6.62567-2.19318,9.157-1.197,5.44446,2.14679,8.51123,9.19043,11.02271,16.03955,0.93945,2.56213,1.80371,5.09766,2.68207,7.3385,2.4574,6.26935,4.40009,10.89447,5.103,13.29907,1.26508,0.50464,1.58289-.29791,3.46344.72638a38.70792,38.70792,0,0,1,1.07513-8.64154c2.26837-11.08447,7.95837-29.76483,15.92285-50.18463C150.88083,98.908,222.03751,67.95111,246.987,98.505c24.34937,23.85651,36.48572,28.16211,53.49506,22.99506,15.09143-3.126,21.84338-13.98285,42.11707-1.17847,27.472,17.35065,9.07275,64.44708,9.89923,67.9837,3.19019,17.27222,1.02692,36.93671,1.99329,45.97961a11.315,11.315,0,0,0,2.13629,5.1861c0.88562-2.47552,4.53217-8.50165,5.637-10.37457,4.06543-6.89215,13.4361-16.06116,13.323-16.02252,3.01563-2.79864,7.25165.08612,8.65875,3.01575,1.95795,4.08643-1.00433,10.38336-1.92627,11.95776-0.53931.91663-12.50208,20.14386-13.68414,23.5332a5.01533,5.01533,0,0,0-.14355.5293c-1.44965,6.79395,3.66089,15.6109,4.66278,23.74017,1.02411,8.298,2.49213,17.24261-.67029,21.47308-0.235.31433-4.84454,2.8158-7.84375,2.37036-6.699-.9953-6.27979-7.83228-6.98773-15.30774-0.4259-4.49707-3.013-16.42834-3.013-16.42834-2.79144.39325-.745,29.99274-0.99048,33.5799C351.945,326.45038,352.67637,351.17877,331.24851,363.11273Z" transform="translate(-17.01182 -17.40515)"/></svg>