<?xml version="1.0" ?><svg id="hillary" viewBox="0 0 477.97637 477.97637" xmlns="http://www.w3.org/2000/svg"><defs><style>.cls-1{fill:#59bfff;}.cls-2{fill:#fff;}</style></defs><title/><circle class="cls-1" cx="238.98818" cy="238.98818" r="238.98818"/><path class="cls-2" d="M165.26727,276.83533a3.02457,3.02457,0,0,0-2.95673,1.116c-7.59149.88324-8.92633,13.78375-1.36487,16.00781a7.44488,7.44488,0,0,0,6.52747-1.37213,4.181,4.181,0,0,0,2.77283-3.0437,9.55927,9.55927,0,0,0,1.08423-2.51C172.47894,282.64856,169.86,277.68024,165.26727,276.83533Z" transform="translate(-17.07529 -16.76934)"/><path class="cls-2" d="M355.37347,283.19989a7.7527,7.7527,0,0,0-1.13776-1.95374q-0.227-.28455-0.48035-0.5459-0.25314-.26147-0.52979-0.49927a7.77247,7.77247,0,0,0-1.955-1.23218q-0.35916-.157-0.73578-0.27979a7.78569,7.78569,0,0,0-1.39038-.30774c-0.059-.00775-0.11591-0.02191-0.17535-0.02832a7.66442,7.66442,0,0,0-.82294-0.04425,7.82148,7.82148,0,0,0-7.79272,7.73395,6.9496,6.9496,0,0,0,.12994,1.32416c0.04156,0.21466.09222,0.42621,0.15063,0.63477s0.12457,0.414.1972,0.61639a8.23324,8.23324,0,0,0,.47046,1.04663,7.66337,7.66337,0,0,0,.74164,1.16772c0.0332,0.0423.07257,0.07941,0.10669,0.121,0.14325,0.17474.28882,0.34766,0.44812,0.50854a7.87517,7.87517,0,0,0,1.80481,1.36121,7.79182,7.79182,0,0,0,9.13361-1.20221c1.84512-1.2284,2.32722-2.6747,2.37506-5.1181,0.00909-.15308.02344-0.30481,0.02344-0.46008A7.61785,7.61785,0,0,0,355.37347,283.19989Z" transform="translate(-17.07529 -16.76934)"/><path class="cls-2" d="M230.56281,55.46338a85.29888,85.29888,0,0,0-14.37408,1.13391c-14.06464,3.4895-28.77155,11.27948-43.30951,23.07361-19.4447,15.77472-37.38837,37.92023-50.52563,62.35687-9.57928,17.81854-16.22705,36.06189-19.57452,53.49768,7.99109-10.75024,16.41858-22.63708,18.515-26.37842,4.92322-8.78613,18.4342-23.29242,22.20593-32.647,3.019-7.48767,2.901-13.72937,9-19.5,3.51367-3.32446,11.48981-5.25183,16-7,9.77594-3.78918,13.4726-13.38849,21.71-19.784,3.533-2.743,6.48187-6.56873,10.31366-8.87805,3.8327-2.30988,8.60858-2.74036,12.98657-2.65356a24.59066,24.59066,0,0,1,5.49255.68414c0.94916-.61407,1.91821-1.20526,2.91711-1.762,12.2417-6.82239,29.509-7.68524,39.34253,3.84161,2.399,2.81213-1.66681,6.911-4.08105,4.08105-5.80927-6.80963-15.34412-8.51031-23.77441-6.41309a34.81492,34.81492,0,0,0-8.017,3.14575c3.83038,2.58313,7.21442,6.33887,12.71808,10.54755,4.99579,3.82037,11.31488,8.53937,16.36066,12.05176a69.439,69.439,0,0,1,17.15637,5.91357c2.09729-.482,4.14917-0.8913,6.16156-1.24115,1.02637-.52386,2.04974-1.04034,3.08588-1.467a58.03026,58.03026,0,0,1,28.9021-3.97144c10.85852,1.31311,21.59125,7.11,29.26978,15.26563,7.4245,7.88568,9.95959,17.41675,14.258,26.87024,3.86786,8.50848,3.82349,17.71436,9.93463,24.80328,5.872,6.81152,14.21075,6.10376,17.69983,13.5722,8.69342,18.60852,3.12762,40.8808,2.31915,60.10217-0.90948,21.62268-11.01013,40.03827-23.285,57.86273-5.42926,7.88385-6.582,16.25568-10.07306,25.14655a61.527,61.527,0,0,1-18.93909,26.20178c-1.68237,1.32813-13.98163,13.6134-19.51691,18.44812,0.10785,0.532.22528,1.05536,0.35913,1.56274a1.39457,1.39457,0,0,0,.35828.03827,8.31522,8.31522,0,0,0,3.2522-.8963,118.37783,118.37783,0,0,0,43.44733-33.84515c11.43414-14.04736,20.577-30.99066,27.1745-50.35931,12.44476-36.53467,14.84692-79.59943,6.59064-118.152q-1.65884-7.74573-3.832-15.02173l-0.06793-.21991c-6.28418-20.96185-15.6814-38.78033-27.57031-52.11279-15.64728-17.54712-34.64532-26.44421-56.46649-26.44421a89.41123,89.41123,0,0,0-18.71051,2.06995l-4.64563.99786L278.163,76.444c-0.02563-.02869-0.05212-0.05475-0.07782-0.08337a3.82742,3.82742,0,0,1-2.15155-1.1897C263.68683,60.98407,245.17767,53.76807,230.56281,55.46338Z" transform="translate(-17.07529 -16.76934)"/><path class="cls-2" d="M329.97766,396.92236c-3.5611-1.46136-7.00873-2.99329-7.56738-3.25012-5.87744-2.70258-12.46942-6.49139-16.613-11.62988-3.14172-3.89618-4.25439-7.16779-4.48694-10.41583-1.71069-6.21558-1.59131-14.16742-.19806-20.94531a87.937,87.937,0,0,1-9.455,4.81244c-3.72437,5.82349-10.94458,13.77094-10.94458,13.77094l-7.03583,22.296s1.61023-21.131,2.18677-23.437,5.91772-8.6535,7.425-11.668c-1.58539,3.17078-9.54242,4.82379-19.17554,4.79456a28.82705,28.82705,0,0,0-2.42737,1.59363c-6.21088,4.58954,23.53979,20.9679-48.25006,51.35645,12.29718,3.52246,27.38336,5.59827,43.68915,5.59827C292.48383,419.79852,322.11548,410.0423,329.97766,396.92236ZM278.86212,386.882l-0.03015.066c-0.01038-.00415-0.0199-0.01031-0.03027-0.01428C278.82251,386.91821,278.84161,386.89832,278.86212,386.882Z" transform="translate(-17.07529 -16.76934)"/><ellipse class="cls-2" cx="197.88529" cy="183.62646" rx="2.26352" ry="2.24753"/><path class="cls-2" d="M212.59558,207.31641a7.53905,7.53905,0,0,1-1.83911-10.46588,22.009,22.009,0,0,0-8.55353,3.59827c-0.19739.1485-.41077,0.2934-0.62927,0.43567-2.57208,2.78221,3.73816,5.74115,3.81573,5.85571,0.5979,0.03271,1.24475.12177,1.95447,0.19287C208.95007,207.0943,210.72577,207.244,212.59558,207.31641Z" transform="translate(-17.07529 -16.76934)"/><path class="cls-2" d="M230.756,203.622a22.95116,22.95116,0,0,0-6.48889-5.01685,7.39653,7.39653,0,0,1-1.96008,8.09155A25.52993,25.52993,0,0,0,230.756,203.622Z" transform="translate(-17.07529 -16.76934)"/><path class="cls-2" d="M308.09949,197.03662a7.5367,7.5367,0,0,1-1.93481,10.3573c0.1842-.021.36188-0.04687,0.544-0.06952,0.83087-.19952,1.65283-0.42413,2.45551-0.69141,0.29077,0.10571,6.54541-2.36105,8.02106-4.45432a3.45291,3.45291,0,0,0,.39337-0.93645c-0.37866-.2005-0.7511-0.467-1.096-0.668A31.61762,31.61762,0,0,0,308.09949,197.03662Z" transform="translate(-17.07529 -16.76934)"/><path class="cls-2" d="M287.66016,204.29315a37.56833,37.56833,0,0,0,9.25488,2.834,7.43272,7.43272,0,0,1-2.35571-8.61926,37.60691,37.60691,0,0,0-6.78766,4.03534A2.62419,2.62419,0,0,0,287.66016,204.29315Z" transform="translate(-17.07529 -16.76934)"/><ellipse class="cls-2" cx="282.51475" cy="183.69131" rx="2.26334" ry="2.24741"/><path class="cls-2" d="M356.68134,222.94971a14.40049,14.40049,0,0,0-5.23041,1.12061,161.39237,161.39237,0,0,0-1.63654-18.26508c-0.10449-.26178-0.20862-0.515-0.31439-0.80524-1.07538-2.95081-2.47266-8.7821-3.5-11.75-2.25-6.5-4-16-6.25-22-3.37469-8.99921-7.14716-18.14325-12.45227-26.17719C323.85754,139.863,314.43378,120.31854,306,125.25c-2.84717,1.66547-2.27344,14.95929-2.5,18.25-0.87061,12.64355,3.91461,20.80255,5.12537,31.05249a45.85545,45.85545,0,0,1,8.32526,2.47723,39.709,39.709,0,0,1,10.00854,5.95587c1.7594,1.44379,4.42786,3.97729,5.02649,6.20831,0.13953,0.5202-1.93506.39063-3.13922-.62109a53.44324,53.44324,0,0,0-8.10486-5.41626,30.66179,30.66179,0,0,0-11.847-4.18042c0.00165,0.56464.00787,1.1264-.01764,1.708a59.46156,59.46156,0,0,1-1.26282,6.33392c7.52856,1.917,14.82178,9.47577,20.75684,15.65686,0.79828,0.83142-2.2019-.39276-3.2652-1.17273-5.07672-3.72412-7.92255-7.31537-13.04285-9.97852a16.50518,16.50518,0,0,0-4.91284-1.65649,13.14343,13.14343,0,0,0-.0332,2.97693c5.44214,1.16187,9.76343,4.39117,13.53406,8.49738,1.63647,1.78229-.19513,1.20758-2.25293.19794,2.67914,7.21747,1.23114,9.01514-5.26959,14.65466,1.39923-.16339,2.79175-0.38263,4.16132-0.67541,5.50287-1.17651,7.98663-.63232,3.89587,1.23682a38.09469,38.09469,0,0,1-12.37994,3.07574c-7.16675,5.884-15.03448,12.30493-15.07013,22.27771-0.0202,5.66064,2.74719,10.89331,5.00177,16.08563a91.50069,91.50069,0,0,1,3.7334,10.32178,32.12862,32.12862,0,0,0,19.11981,2.11194c5.14624-1.07361,10.00885-1.63629,4.20892,1.24323-7.816,3.88049-15.17627,4.3385-21.85315,2.14807a99.917,99.917,0,0,1-1.70117,51.1983c-2.18921,7.26508-5.021,16.18518-10.18018,22.09528a73.19356,73.19356,0,0,0,13.33063-8.05652,5.85528,5.85528,0,0,1,1.60822-1.44421c0.079-.06891.15625-0.14612,0.23633-0.21021,11.23083-8.98462,19.41-17.44177,32.93573-42.88727-0.14948-.13641-0.30432-0.265-0.44781-0.40985a11.74693,11.74693,0,0,1,8.22571-20.02673c1.1698-3.9715,2.10138-7.07166,2.10138-7.07166s-0.1947,3.19116-.53442,7.1496a11.82893,11.82893,0,0,1,7.92578,4.4339c4.11578-3.06927,7.99579-9.73431,9.72046-24.68164C368.63068,241.42358,367.82977,222.94971,356.68134,222.94971Zm-24.23047-9.47424c-1.88464-.73492-3.12006-1.32568-4.64526-1.93146,0,0-2.7226-.49622-2.21149-1.21155,0.49585-.694,2.65063-0.517,3.366-0.3714a32.47494,32.47494,0,0,1,7.29138,2.47308C338.40564,213.437,336.04156,214.87573,332.45087,213.47546Zm6.82623-8.47394c-3.2489,2.05591-10.95648,2.90979-13.81146,2.30719-1.509-.31848.17175-1.02881,0.97491-1.0722a26.601,26.601,0,0,0,9.58228-2.56561C338.31055,202.61078,342.5238,202.947,339.2771,205.00153Zm17.381,58.74927a8.1292,8.1292,0,0,0-.9726.66681c-0.74365.49042-1.79547,3.363-2.1861,3.57117-0.10089-2.54687.54236-6.21912,2.0304-7.22394,5.09314,0.70782,7.07581-8.97424,3.06708-9.79236-2.05176-.4187-0.80426-4.22534-0.34576-8.27124a52.35085,52.35085,0,0,1,1.55676-7.35126c0.39331-2.02045,1.1651,1.37628,1.088,2.25647-0.13892,1.58655-1.80627,8.89874,1.07922,11.52209C364.37207,253.52484,363.01062,262.65765,356.65814,263.75079Z" transform="translate(-17.07529 -16.76934)"/><path d="M222.2323,263.56976c-8.17773,8.2948-26.74707,11.69073-35.13562,6.95746-2.61816-1.47723-1.73322.86682-.15173,2.06268,9.7226,7.35162,25.75275,9.35571,38.20764-6.87433C226.772,263.60535,229.80237,255.89136,222.2323,263.56976Z" transform="translate(-17.07529 -16.76934)"/><path d="M277.95966,293.57147c6.91412-1.81732,21.75665-12.07336,16.06525-11.3078-2.18134.29346-7.21161-.2868-9.35706-0.56366-2.55927-.33051-10.18628-2.13794-12.48029-2.56354a11.24642,11.24642,0,0,0-3.05682-.069,20.00892,20.00892,0,0,0-4.00616,2.18445,2.2201,2.2201,0,0,1-1.69049-.184c-1.32989-.84747-2.27045-1.72021-4.02936-2.06952-0.81415-.16162-3.77313.7276-4.52264,0.89636-0.83917.189-9.81915,2.72729-13.326,3.42059-4.22961.83612-5.20123,1.16071-8.94775,2.01923-4.81671,1.1037-10.57459-.80768-0.40668,3.43268C260.26758,299.42725,274.14264,294.57471,277.95966,293.57147Z" transform="translate(-17.07529 -16.76934)"/><path d="M199.316,220.89606c9.07666,1.91016,29.16254-2.02972,36.34119-6.50769,3.02325-1.88586-3.20013-3.23651-9.80951-.44806-8.074,3.40637-13.83765,3.99292-21.2771,4.833C200.57507,219.22455,192.77844,219.52014,199.316,220.89606Z" transform="translate(-17.07529 -16.76934)"/><path d="M281.10547,310.95209c-12.50494-7.17419-27.4646-5.46021-38.73724-.37238-6.11353,2.75928,3.35535,2.4231,7.058,1.20013,2.43164-.8031,16.1131-3.25769,25.00989.27594C278.60443,313.71136,283.58649,312.37549,281.10547,310.95209Z" transform="translate(-17.07529 -16.76934)"/><path d="M188.25635,206.03058c3.0918-2.12225,2.442-4.30908-.741-2.65558a13.95045,13.95045,0,0,1-11.21558.84583c-2.77356-1.10162-1.496,2.28741,2.32318,3.46533A11.36062,11.36062,0,0,0,188.25635,206.03058Z" transform="translate(-17.07529 -16.76934)"/><path d="M192.19568,202.5296c-1.24854,1.84332,5.86188-4.09711,6.66931-4.96674,5.46509-5.88647,8.76636-8.55383,16.39539-8.55383,7.41034,0,13.43121,6.71429,21.06891,11.96234,1.10724,0.7608,4.42725.73047,2.50189-1.05768,0,0-12.73322-12.56024-20.79193-13.388C206.7063,185.36157,197.46686,194.74719,192.19568,202.5296Z" transform="translate(-17.07529 -16.76934)"/><path d="M189.89185,185.79468c9.986-7.52557,26.56537-9.24731,36.52417-3.89093,1.8302,0.98438,4.847,3.03021,5.64313,3.256,1.30219,0.36938,3.5802.3,4.423-.83295,3.69312-4.96442-3.56824-7.46307-7.2608-8.62091-4.856-1.52271-12.48639-1.62292-17.16357-1.21906a49.02811,49.02811,0,0,0-15.04846,3.43274,29.96924,29.96924,0,0,0-9.76117,6.46155C186.85339,184.75018,183.498,190.6131,189.89185,185.79468Z" transform="translate(-17.07529 -16.76934)"/><path d="M149.88269,260.25342c-2.87842-1.54565-1.77234-7.05359,1.11151-7.47754,1.82092-.2677.41119-4.66571-0.37048-8.15845a16.95238,16.95238,0,0,0-2.74078-6.75482,15.42822,15.42822,0,0,0,.14716,5.65106c0.86438,2.77911,1.97,5.527-.37048,8.094-3.62335,3.96429,1.62793,11.92914,2.3233,13.1189,0.826,1.41339,2.56207,4.93848,2.67865,2.701S151.18372,261.15039,149.88269,260.25342Z" transform="translate(-17.07529 -16.76934)"/><path d="M360.89594,237.60645c0.07709-.88019-0.6947-4.27692-1.088-2.25647a52.35085,52.35085,0,0,0-1.55676,7.35126c-0.4585,4.0459-1.706,7.85254.34576,8.27124,4.00873,0.81812,2.02606,10.50018-3.06708,9.79236-1.488,1.00482-2.13129,4.67706-2.0304,7.22394,0.39063-.20813,1.44244-3.08075,2.1861-3.57117a8.1292,8.1292,0,0,1,.9726-0.66681c6.35248-1.09314,7.71393-10.226,5.317-14.62225C359.08966,246.50519,360.757,239.193,360.89594,237.60645Z" transform="translate(-17.07529 -16.76934)"/><path d="M189.7403,209.16278c-2.66266.39941-8.58313,3.95856-10.72876,5.76947-1.8526,1.5636,2.06708,1.88965,5.01575-.02869a32.86908,32.86908,0,0,1,5.17346-3.20227C190.87823,210.91687,191.93335,208.83386,189.7403,209.16278Z" transform="translate(-17.07529 -16.76934)"/><path d="M235.11591,246.27716c-6.12372,7.68518,1.804,14.24591,4.66962,14.23059a16.59664,16.59664,0,0,0,3.88586-.84875c0.7,0.041,5.8877-2.16077,9.4054-.36224,6.89941,6.62671,14.55109,2.56927,15.69855.59595,1.60583-1.82434,7.56177-.41748,9.65173-0.9278,3.47113-.57959,11.52325-7.37756,4.51892-14.6095-0.8786-.9071-3.172-3.66821-3.57764-3.46411-0.80377.40448,2.79749,4.97473,3.24335,5.96954,0.64331,1.4353,1.32739,7.18176-3.16772,7.96307-1.45508-1.12805-10.23419-2.82275-12.89575,1.69128-2.08771,3.54077-7.39288,2.83783-9.04749.28357-2.47-3.813-11.16583-4.22089-15.31128-1.04126-2.19873.8761-9.05475-1.69244-6.54358-6.202,1.40991-2.5318,4.73981-7.77808,4.01868-8.24994C239.3584,241.10535,236.73175,244.24927,235.11591,246.27716Z" transform="translate(-17.07529 -16.76934)"/><path d="M249.12451,211.30615c-1.97054.15608-2.09332,14.47235-.52533,25.665C250.91023,229.92152,251.33878,211.13077,249.12451,211.30615Z" transform="translate(-17.07529 -16.76934)"/><path d="M268.41,211.295c-2.26016.16718-.21252,18.62482,1.76855,25.45795C271.62327,225.84331,270.54475,211.13714,268.41,211.295Z" transform="translate(-17.07529 -16.76934)"/><path d="M215.889,192.30872c-7.56189.0553-13.13654,3.83014-17.85413,8.96771-1.96753,2.14276,1.23,1.11139,3.53876-.392,0.21851-.14227.43188-0.28717,0.62927-0.43567a22.009,22.009,0,0,1,8.55353-3.59827,7.53905,7.53905,0,0,0,1.83911,10.46588c-1.86981-.07245-3.64551-0.22211-5.25171-0.38336-0.70972-.07111-1.35657-0.16016-1.95447-0.19287a3.58979,3.58979,0,0,0-2.28326.46887c-0.8335.55194,19.1391,6.00446,30.84552-3.72516C230.10388,197.87427,223.24921,192.25519,215.889,192.30872Zm8.37805,6.29645A22.95116,22.95116,0,0,1,230.756,203.622a25.52993,25.52993,0,0,1-8.449,3.07471A7.39653,7.39653,0,0,0,224.26709,198.60516Zm-9.30658,4.03809a2.24759,2.24759,0,1,1,2.26367-2.24738A2.25553,2.25553,0,0,1,214.96051,202.64325Z" transform="translate(-17.07529 -16.76934)"/><path d="M336.25153,212.43414a32.47494,32.47494,0,0,0-7.29138-2.47308c-0.71539-.14563-2.87018-0.32263-3.366.3714-0.51111.71533,2.21149,2.21155,2.21149,2.21155,1.52521,0.60577,2.76062,1.19653,4.64526,1.93146C336.04156,215.87573,338.40564,213.437,336.25153,212.43414Z" transform="translate(-17.07529 -16.76934)"/><path d="M317.28973,215.51868c-1.36957.29279-2.76209,0.512-4.16132,0.67541a48.85906,48.85906,0,0,1-20.31708-1.86133c-4.27252-1.42712-11.09381-2.84161-6.38147.56451,5.71149,4.12836,14.27325,5.63269,22.37579,4.934a38.09469,38.09469,0,0,0,12.37994-3.07574C325.27637,214.88635,322.7926,214.34216,317.28973,215.51868Z" transform="translate(-17.07529 -16.76934)"/><path d="M326.95917,182.9856a39.709,39.709,0,0,0-10.00854-5.95587,45.85545,45.85545,0,0,0-8.32526-2.47723,54.60657,54.60657,0,0,0-12.29181-1.06384,39.52577,39.52577,0,0,0-10.55969,1.93152c-2.61865.78827-8.77179,2.977-9.03137,6.07043-0.27789,3.31116,3.23187,4.39044,5.55774,3.863,0.951-.21564,8.05878-4.001,12.08813-4.96674,4.0401-.96832,8.98157-1.9,13.15332-1.5636,0.45135,0.03638.90228,0.094,1.35291,0.15283a30.66179,30.66179,0,0,1,11.847,4.18042,53.44324,53.44324,0,0,1,8.10486,5.41626c1.20416,1.01172,3.27875,1.1413,3.13922.62109C331.387,186.96289,328.71857,184.42938,326.95917,182.9856Z" transform="translate(-17.07529 -16.76934)"/><path d="M336.02283,202.6709a26.601,26.601,0,0,1-9.58228,2.56561c-0.80316.0434-2.48395,1.75372-.97491,2.0722,2.855,0.6026,10.56256-.25128,13.81146-2.30719C342.5238,202.947,338.31055,201.61078,336.02283,202.6709Z" transform="translate(-17.07529 -16.76934)"/><path d="M321.59052,270.6283a32.12862,32.12862,0,0,1-19.11981-2.11194,36.01547,36.01547,0,0,1-5.95471-3.20422c-7.41034-4.96674-11.81781-6.30933-7.08612-1.16046a34.67831,34.67831,0,0,0,14.51642,9.86792c6.67688,2.19043,14.03711,1.73242,21.85315-2.14807C331.59937,268.992,326.73676,269.55469,321.59052,270.6283Z" transform="translate(-17.07529 -16.76934)"/><path d="M320.65094,201.34149c-3.77063-4.1062-8.09192-7.33551-13.53406-8.49738a21.34542,21.34542,0,0,0-4.32037-.47028c-7.36017-.05383-15.15509,5.70325-19.00293,11.31311-0.38574.562,2.926,2.07184,3.16339,2.20734,10.15735,5.79449,21.44305,2.90845,25.99689,1.37958,2.375-.79736-0.526-0.85115-1.10748-0.75916-0.45722.08988-1.17462,0.23144-1.76208,0.30554-1.0766.18311-2.20441,0.3584-3.37561,0.50415-0.18213.02264-.3598,0.04852-0.544,0.06952a7.5367,7.5367,0,0,0,1.93481-10.3573,31.6313,31.6313,0,0,1,8.38312,3.477c0.34491,0.20093.71735,0.4068,1.096,0.6073,0.27246,0.14429.54742,0.285,0.8194,0.41852C320.45581,202.54907,322.28741,203.12378,320.65094,201.34149Zm-32.99078,2.95166c-0.38568-.19232-0.76343-0.392-1.12122-0.6062a12.24748,12.24748,0,0,1,1.23273-1.14374,37.60691,37.60691,0,0,1,6.78766-4.03534,7.43272,7.43272,0,0,0,2.35571,8.61926A37.56833,37.56833,0,0,1,287.66016,204.29315ZM299.59,202.70807a2.24746,2.24746,0,1,1,2.26337-2.24744A2.2553,2.2553,0,0,1,299.59,202.70807Z" transform="translate(-17.07529 -16.76934)"/><path d="M328.371,202.67493c-5.93506-6.18109-13.22827-13.73987-20.75684-15.65686a14.29542,14.29542,0,0,0-3.332-.46112c-11.59827-.16083-22.851,10.34644-29.18024,14.389-1.90314,1.21558,2.25989,1.36676,3.27319.86108,9.049-5.517,18.80371-13.61853,28.775-11.93982a16.50518,16.50518,0,0,1,4.91284,1.65649c5.1203,2.66315,7.96613,6.25439,13.04285,9.97852C326.16907,202.28217,329.16925,203.50635,328.371,202.67493Z" transform="translate(-17.07529 -16.76934)"/><path d="M342.52787,111.97052c9.2082,3.35449,13.65943,12.98785,16.1092,21.37689,2.90074,9.93359,4.3812,20.407,10.64983,29.11145,2.19737,3.05115,7.48359.16711,5.26539-2.913-11.96829-16.61884-6.92145-44.58636-30.40332-53.14062C340.48385,105.07007,338.89732,110.64795,342.52787,111.97052Z" transform="translate(-17.07529 -16.76934)"/><path d="M147.26648,172.60761c-5.803,17.07965-13.55658,38.208-33.48242,42.45605-3.63055.774-2.09418,6.33887,1.5343,5.56531,22.0603-4.70312,31.054-27.47534,37.51337-46.48706C154.02924,170.61737,148.45666,169.10449,147.26648,172.60761Z" transform="translate(-17.07529 -16.76934)"/><path d="M184.79456,112.00513c-7.90308,6.5304-17.48193,10.26923-26.9621,13.86517-3.43933,1.30463-1.94794,6.88617,1.5343,5.56531,9.98914-3.78906,19.92041-7.71881,28.36542-14.42255,7.98492-6.33856,14.33429-14.36267,21.393-21.65216,6.76172-6.98273,14.61682-13.84045,24.28174-16.24475,8.4303-2.09723,17.96515-.39655,23.77441,6.41309,2.41425,2.83,6.48-1.26892,4.08105-4.08105-9.83356-11.52686-27.10083-10.664-39.34253-3.84161C206.88666,85.98468,197.82275,101.23987,184.79456,112.00513Z" transform="translate(-17.07529 -16.76934)"/><path d="M317.81085,382.45795a8.89851,8.89851,0,0,1-1.652-1.0072,20.85,20.85,0,0,0,2.60236-.94727C446.15393,323.31647,426.61029,68.723,304.68713,68.723a96.628,96.628,0,0,0-20.42822,2.108C268.80908,53.56055,250.99988,46,232.60791,46H233v0.31573c-83,.48535-176.907,149.09039-126.17487,225.81134,22.19659,58.54944,38.15274,75.86377,76.35165,104.775,3.71136,2.52417,6.8401,3.80573,9.63325,4.10126-5.28131,4.40735-70.76546,26.80231-109.444,39.95551C116.71438,455.81213,160.47233,481,209.68425,490a240.49354,240.49354,0,0,0,92.6749,0c48.87854-9,92.407-33.86047,125.66931-68.34259C389.67542,408.0849,320.24475,383.59967,317.81085,382.45795ZM187.7345,370.24829c-18.604-14.0882-31.53876-25.097-42.52661-39.566-10.9801-14.45874-20.29376-32.83765-31.1427-61.45465l-0.32306-.85193-0.5025-.75995a76.713,76.713,0,0,1-10.99744-27.03638,107.18439,107.18439,0,0,1-1.4353-31.3576c1.97345-21.40936,9.42413-44.64465,21.54669-67.194,13.13727-24.43665,31.285-46.58215,50.72974-62.35687C193.39471,63.19305,214,54.48328,233,54.48328V54.34192c17.03632,0.11774,32.231,7.56995,45.163,22.026l3.168,3.57935,4.64563-.97882A89.38384,89.38384,0,0,1,304.68713,76.908c21.82117,0,40.81921,8.90186,56.46649,26.449,14.67609,16.458,25.55829,39.75116,31.47028,67.35681,8.25629,38.55255,5.85413,81.61847-6.59064,118.15314-6.59753,19.36865-15.74036,36.31256-27.1745,50.35992a118.37869,118.37869,0,0,1-43.44733,33.84546,8.31636,8.31636,0,0,1-3.2522.89642,1.39361,1.39361,0,0,1-.35828-0.03815c-2.30792-8.74915-.60858-21.40314.0517-29.31573a3.37858,3.37858,0,0,1,.49695-0.62592c12.79285-10.23431,21.66571-20.10828,35.44836-46.18524,0.11652,0.00336.23114,0.017,0.34821,0.017A11.81407,11.81407,0,0,0,359.93341,286.861c7.06317-3.80261,13.11194-12.34253,15.3587-31.81482,1.05981-9.18445,1.66888-25.90387-6.15948-34.68738a16.205,16.205,0,0,0-10.04126-5.42578,246.12576,246.12576,0,0,0-4.57745-29.54028c-0.78308-3.60028-1.64563-7.1571-2.5636-10.57159-4.21594-15.68256-8.5755-31.89911-16.7348-44.29254a48.5448,48.5448,0,0,0-16.91614-16.21539c-7.29071-4.08887-15.934-6.16211-25.68964-6.16211a94.58673,94.58673,0,0,0-20.98474,2.62372c-9.4751-4.65472-18.88971-7.01147-28.02863-7.01147-12.576,0-24.64374,4.412-35.8678,13.1134-9.31641,7.2226-18.168,17.52911-26.30878,30.63367-13.71045,22.07-23.28986,48.49634-29.34369,68.87433a17.79988,17.79988,0,0,0-13.85382,7.03857c-8.068,10.22351-7.47009,28.39594-4.22028,41.99359,2.36285,9.88617,6.78131,16.98175,13.13287,21.08966a24.62233,24.62233,0,0,0,5.23138,2.55554c0.05542,0.17847.10425,0.35687,0.16827,0.5354a11.725,11.725,0,0,0,10.22186,7.79462,146.45319,146.45319,0,0,0,34.07733,38.02368c0.842,1.26685,2.61682,6.33588,3.02148,14.61871,0.38861,7.95636-.66608,15.34338-2.82135,19.76013-1.512,3.09851-2.64893,3.09851-3.0769,3.09851C193.26532,372.89313,191.28754,372.63281,187.7345,370.24829ZM175.48108,285.658a11.80278,11.80278,0,0,0-1.45972-5.644,11.40185,11.40185,0,0,0-3.49359-3.93549,11.9863,11.9863,0,0,0-6.87555-2.19452,11.85971,11.85971,0,0,0-2.58594.29205c-1.71625-5.35571-3.40283-10.35211-3.40283-10.35211s0.25774,5.71865,1.09295,11.09194a10.86711,10.86711,0,0,0-5.71453,5.56327c-4.35791-2.20966-8.66931-6.85718-11.08472-16.96344-4.75116-19.87927-1.19354-38.95428,10.4176-38.95428a14.24241,14.24241,0,0,1,5.50732,1.23712c12.606-45.45074,40.11688-113.85608,85.71429-113.85608,8.38147,0,17.3714,2.31006,26.99512,7.49915a89.63662,89.63662,0,0,1,22.01825-3.11145c35.13263,0,43.118,29.65125,51.442,60.61444,0.92926,3.4566,1.74841,6.86926,2.47,10.18665,3.88678,17.86914,4.92926,32.94885,4.92926,36.93915a14.40049,14.40049,0,0,1,5.23041-1.12061c11.14844,0,11.94934,18.47388,10.4856,31.15887-1.72467,14.94733-5.60468,21.61237-9.72046,24.68164a11.76182,11.76182,0,0,0-4.55743-3.52307,8.18679,8.18679,0,0,0-2.81046-.71514,42.79829,42.79829,0,0,0-.02346-7.34528s-0.93158,3.10016-2.10138,7.07166a11.81084,11.81084,0,0,0-11.64032,11.76428,12.0929,12.0929,0,0,0,3.41461,8.26245c0.14349,0.14484.29834,0.27344,0.44781,0.40985-13.5257,25.4455-21.7049,33.90265-32.93573,42.88727-0.08008.06409-.15729,0.1413-0.23633,0.21021a5.85528,5.85528,0,0,0-1.60822,1.44421c-28.00995,21.20007-64.23157,19.48169-103.11853-9.955-0.02594-.02155-0.05115-0.04736-0.07721-0.06805A139.41068,139.41068,0,0,1,170.876,294.96381,11.73628,11.73628,0,0,0,175.48108,285.658Zm-6.32361,5.46844c-0.127.12616-.26733,0.23773-0.40332,0.35413a8.11726,8.11726,0,0,1-1.004.7453q-0.29608.1832-.6087,0.34027a7.76665,7.76665,0,0,1-7.23248-.12781l-0.02423-.01489a7.8621,7.8621,0,0,1-1.225-.83667q-0.29-.24152-0.55554-0.50964a7.24387,7.24387,0,0,1-.55481-0.62952c-0.03015-.03845-0.05615-0.08008-0.08551-0.11914a7.94356,7.94356,0,0,1-1.12665-2.09521q-0.10895-.30359-0.1972-0.61645c-0.05835-.2085-0.109-0.42011-0.15057-0.6347a6.94847,6.94847,0,0,1-.13-1.3241,7.63674,7.63674,0,0,1,1.00122-3.78375,7.79079,7.79079,0,0,1,5.42743-3.83112q0.28116-.04953.56873-0.07916a7.909,7.909,0,0,1,.79535-0.04q0.31961,0,.63245.02606a7.749,7.749,0,0,1,1.804.36993,8.20984,8.20984,0,0,1,1.63092.75055q0.25507,0.1528.49792,0.3222a7.21677,7.21677,0,0,1,1.79864,1.80634,7.56156,7.56156,0,0,1,.44836.73047,8.69751,8.69751,0,0,1,.40576.86261,7.93049,7.93049,0,0,1,.42,1.38562,7.37562,7.37562,0,0,1,.15076,1.48022A7.68918,7.68918,0,0,1,169.15747,291.1264Zm186.77759-5.08374a7.69091,7.69091,0,0,1-.15851,1.55713,7.60923,7.60923,0,0,1-.31091,1.06244c-0.04724.12994-.08954,0.26233-0.14355,0.389a7.74193,7.74193,0,0,1-1.1676,1.91016,7.80316,7.80316,0,0,1-11.55634.50049c-0.1593-.16089-0.30487-0.3338-0.44812-0.50854-0.03412-.04156-0.07349-0.07867-0.10669-0.121a7.66337,7.66337,0,0,1-.74164-1.16772,8.23324,8.23324,0,0,1-.47046-1.04663q-0.10895-.30359-0.1972-0.61639c-0.05841-.20856-0.10907-0.4201-0.15063-0.63477a6.9496,6.9496,0,0,1-.12994-1.32416,7.82148,7.82148,0,0,1,7.79272-7.73395,7.66442,7.66442,0,0,1,.82294.04425c0.05945,0.00641.11639,0.02057,0.17535,0.02832a7.78569,7.78569,0,0,1,1.39038.30774q0.37637,0.12231.73578,0.27979a7.77247,7.77247,0,0,1,1.955,1.23218q0.27621,0.23767.52979,0.49927,0.25287,0.26129.48035,0.5459a7.7527,7.7527,0,0,1,1.13776,1.95374A7.61785,7.61785,0,0,1,355.93506,286.04266ZM257.12482,419.79852c-37.40985,0-68.41138-10.92029-74.00024-25.19135a83.43347,83.43347,0,0,0,10.12952-5.83148c10.74872-8.86774,14.15552-18.64233,14.54688-29.00354a71.18577,71.18577,0,0,0-.51917-17.44067,89.40187,89.40187,0,0,0,12.08807,6.525c5.57166,6.63745,17.13837,20.08832,17.13837,20.08832l5.76526,22.48334s-1.1532-22.48334-1.7298-24.78937c-0.57629-2.306-3.90076-6.52264-9.94348-12.87793,15.3905,9.33051,49.22559,9.62048,52.68842,2.69476-1.50732,3.01453-6.84845,9.362-7.425,11.668s-2.18677,23.437-2.18677,23.437l7.03583-22.296s7.22021-7.94745,10.94458-13.77094a87.937,87.937,0,0,0,9.455-4.81244c-1.39325,6.77789-1.51263,14.72974.19806,20.94531,0.23254,3.248,1.34521,6.51965,4.48694,10.41583,4.14362,5.13849,10.7356,8.92731,16.613,11.62988,0.55865,0.25684,4.00629,1.78876,7.56738,3.25012C322.11548,410.0423,292.48383,419.79852,257.12482,419.79852Z" transform="translate(-17.07529 -16.76934)"/></svg>