<?xml version="1.0" ?><svg id="kasich" viewBox="0 0 477.97637 477.98818" xmlns="http://www.w3.org/2000/svg"><defs><style>.cls-1{fill:#f06695;}.cls-2{fill:#fff;}</style></defs><title/><circle class="cls-1" cx="238.98818" cy="238.98818" r="238.98818"/><path class="cls-2" d="M223.5,373a62.62192,62.62192,0,0,1-10.43945-8.15344c2.89063,7.57147,5.95483,17.68005,18.62927,25.69873a50.81561,50.81561,0,0,0,21.50256,4.04773c0.69434-.11938,1.46094-0.23346,2.30762-0.343C238.27722,387.83057,227.58606,375.48767,223.5,373Z" transform="translate(-17.01182 -17.01182)"/><path class="cls-2" d="M296.11133,446.42145c-4.47522-5.684-8.99341-11.3302-13.85681-16.65967q-2.48053-2.71829-5.0426-5.40076c-2.23755.86963-4.57861,1.66833-7.06079,2.36407C270.89734,428.17584,283.99512,437.85974,296.11133,446.42145Z" transform="translate(-17.01182 -17.01182)"/><path class="cls-2" d="M220.70068,390.97791c-5.281-3.907-12.39673-7.983-14.20972-9.796L197.426,374.189c8.925,14.50751,26.79028,37.22095,45.30481,46.53107,8.25244,3.469,22.95288,3.85577,28.619.70337,0.74951-.2478,1.48865-0.51825,2.22192-0.80042a161.68283,161.68283,0,0,0-15.28381-13.6698c-2.79822-2.26965-5.27991-4.12366-7.12512-5.65674-1.04956-.0105-2.12524-0.0296-3.25854-0.06647C238.22754,400.91455,227.09839,395.71094,220.70068,390.97791Z" transform="translate(-17.01182 -17.01182)"/><path class="cls-2" d="M243.52417,427.63794c-11.8833-2.28827-38.87915-27.99695-47.20947-43.46747-0.53357,23.25714,1.34375,49.21912,4.45593,72.36584C207.84375,452.60107,242.38489,429.8526,243.52417,427.63794Z" transform="translate(-17.01182 -17.01182)"/><path class="cls-2" d="M325.88062,479.63739a136.02,136.02,0,0,1-15.76929-15.87115c-10.98535-6.6817-28.16846-18.63849-29.80713-20.20093a42.77672,42.77672,0,0,1-3.26147,4.64191c-5.2854,6.18823-7.14355,6.45221-1.80981,14.82745,6.31055,9.90833,14.90466,20.84473,8.637,25.95569-8.82153,7.19446-32.525,5.9787-42.1853,1.11865-9.66064-4.86-7.35669-6.44385-.85242-16.82343,8.12183-12.96039,8.37463-17.4801,2.66248-22.39581-1.72168-1.48138-4.194-5.17749-6.39832-8.59644-3.22253,2.87836-36.894,23.24969-39.24573,22.51642-0.842-.26257-8.20239-67.4-9.88965-75.76227-1.10693-.20074-2.2832,4.34692-3.4917,11.55157q-1.1239,9.60617-2.677,19.15619c-2.78223,22.4325-5.594,50.62976-8.01831,60.83746C193.74147,489.95705,224.48693,495,255.67786,495a231.14213,231.14213,0,0,0,72.71655-11.27972A7.19168,7.19168,0,0,0,325.88062,479.63739Z" transform="translate(-17.01182 -17.01182)"/><path class="cls-2" d="M205.39453,356.62817a201.23493,201.23493,0,0,1-15.3396-21.56873,54.61155,54.61155,0,0,1-4.90479-9.83936c-5.6272-14.8479-10.20007-30.87463-11.545-46.70551-0.70227-8.26624-1.35083-16.67346-.14929-24.92609,1.77661-12.20111,10.168-22.53516,10.19287-34.97656a18.16921,18.16921,0,0,0-.82861-6.27155c-0.8999-2.47333-2.68164-4.51086-3.9823-6.80145-6.21936-10.95551-1.84607-21.03943-3.61633-32.17755-0.9978-6.27734-4.915-11.03143-5.21973-17.58673a130.86425,130.86425,0,0,1,1.36047-23.26428,78.39594,78.39594,0,0,1,3.47913-16.02136c1.48145-4.17242,1.95581-8.31757,4.619-12.11554a44.9629,44.9629,0,0,1,8.48376-8.62524,130.25873,130.25873,0,0,1,37.1001-21.51416q5.14673-1.92142,10.45264-3.37366c2.75354-.75165,5.87793-0.89423,8.50439-1.82855,2.52759-.899,6.21729-3.59552,6.70032-6.10431-0.90857-.279-1.8031-0.551-2.668-0.80853a3.01544,3.01544,0,0,1-4.207,2.38513c-2.31482-1.0152-14.776-1.46661-24.9707,1.141,0.42151,0.04279.82813,0.039,1.25183,0.0885a2.98674,2.98674,0,1,1-.6936,5.93274A68.49311,68.49311,0,0,0,194.57788,73.073q-3.85584,1.64676-7.699,3.34937a2.33589,2.33589,0,0,1,.64722,1.13837,2.70247,2.70247,0,0,1-2.23743,3.31122c-6.7616,1.60956-15.786,6.21118-24.16394,10.42749q-1.07922.97-2.06323,1.963a4.78179,4.78179,0,0,1,1.72412,2.22968c0.58923,1.555-.19507,3.93817-1.74768,4.53-5.14087,1.956-10.34753,12.24243-10.37927,12.30591a3.05516,3.05516,0,0,1,1.18994.35352,3.0227,3.0227,0,0,1,1.55493,3.04419c-0.59839,4.588-5.67187,14.658-6.54285,16.74146a2.96268,2.96268,0,0,1,2.87756.46985c1.28979,1.05634,1.20581,2.77295.424,4.24536-1.48035,2.78662-5.58215,11.6546-6.87952,13.94537,2.24768-.01062,2.59558,3.38147,1.58911,4.7121a41.96809,41.96809,0,0,0-6.5415,14.03015q0.02747,0.62833.056,1.29755a2.93839,2.93839,0,0,1,3.3573.17206,3.024,3.024,0,0,1,.52124,4.23419c-0.75659.97314-2.17969,4.86151-3.52661,9.60931-0.00146,4.155-.12573,8.49524-0.4751,12.67487a3.0136,3.0136,0,0,1,.86694,3.78088c-1.41565,2.74969-2.27673,13.40112-.7915,21.54535a2.93523,2.93523,0,0,1,3.22607-1.87939,3.01452,3.01452,0,0,1,2.50024,3.45673c-0.45117,2.81287,1.25793,8.19647,3.12549,12.70947l1.84521-2.54327a3.01811,3.01811,0,0,1-.84766-3.33228l2.7041-7.24646a2.977,2.977,0,0,1-2.423-.47821,3.01589,3.01589,0,0,1-1.16064-3.28223c0.10876-.39014,2.43909-8.63165,3.85327-12.69128a41.7981,41.7981,0,0,1-1.57947-17.79419,3.01213,3.01213,0,0,1-1.9314-2.33661c-0.491-2.94965-1.8562-11.18365,3.28638-22.59662a3.005,3.005,0,0,1-.69116-2.22388c0.89771-9.20752,8.22583-20.729,15.0896-28.06415a3.01654,3.01654,0,1,1,4.40637,4.12091c-4.85449,5.19006-10.18347,13.02332-12.42908,19.94562,2.1272-.13257,2.26294,2.79614,1.42639,4.23785-4.557,7.8396-5.61853,14.06085-5.55981,18.78107a2.98371,2.98371,0,0,1,3.68994,4.03784c-3.924,8.1073.19275,20.22809,0.27185,20.38922a3.01783,3.01783,0,0,1,.09766,2.46161c-0.40137.99951-1.03589,2.96478-1.7002,5.1319a3.01738,3.01738,0,0,1,4.27954,3.69916l-2.76318,7.40759a3.01769,3.01769,0,0,1,3.14624,4.70569l-11.15894,15.4024a3.11142,3.11142,0,0,1-2.6792,1.23755,3.02146,3.02146,0,0,1-2.45508-1.63886c-0.21741-.42859-0.94385-1.90424-1.818-3.94305-0.14172.22046-.28882,0.4375-0.41931,0.66479a17.74459,17.74459,0,0,0-1.877,10.61963C139.55884,269.451,153.884,282.704,154.009,300.96918c0.01636,2.394-.657,5.32245-0.18848,7.8a6.66461,6.66461,0,0,0,1.06934,1.10956c2.46277,1.97583,6.24146,2.28546,9.209,1.959-1.072-5.75525-3.77332-25.881.198-11.76031,4.542,16.15,15.55566,43.33984,19.5957,47.44733l9.46875,10.303a3.13018,3.13018,0,0,1,1.29077.73138c0.03125,0.0777.05835,0.15643,0.09009,0.23407,0.135,0.3313.27783,0.66193,0.41895,0.99274l18.33008,19.94507C206.40442,364.81158,204.74536,358.43024,205.39453,356.62817Z" transform="translate(-17.01182 -17.01182)"/><path class="cls-2" d="M279.18042,229.1756a25.36566,25.36566,0,0,0,4.65088-1.53229,3.58627,3.58627,0,0,1,.37183-0.13892,5.35993,5.35993,0,0,0,.55859-3.68152c-1.49121-.41693-2.96838-0.7782-4.58435-1.19263A7.06867,7.06867,0,0,1,279.18042,229.1756Z" transform="translate(-17.01182 -17.01182)"/><path class="cls-2" d="M268.66846,219.82117a7.09775,7.09775,0,0,1,.72546-0.58905c-0.17444-.06592-0.34045-0.12659-0.51868-0.19495-4.995-1.916-5.23926-.29523-10.8114,5.5863a37.28817,37.28817,0,0,0,9.46509,4.21082l0.087,0.01031A7.0609,7.0609,0,0,1,268.66846,219.82117Z" transform="translate(-17.01182 -17.01182)"/><path class="cls-2" d="M273.52539,220.69934a2.06279,2.06279,0,1,0,1.86523.5965C274.79785,221.114,274.17236,220.91309,273.52539,220.69934Z" transform="translate(-17.01182 -17.01182)"/><circle class="cls-2" cx="194.45346" cy="228.81509" r="2.06191" transform="translate(-57.58378 398.70311) rotate(-88.13404)"/><path class="cls-2" d="M188.20532,235.80157a7.07288,7.07288,0,0,1-2.38721-6.24634,29.34813,29.34813,0,0,1-5.04663,3.41333,4.73009,4.73009,0,0,0,.80444,3.08,4.39465,4.39465,0,0,1,1.45776-.14105C184.86011,235.955,186.57983,235.9129,188.20532,235.80157Z" transform="translate(-17.01182 -17.01182)"/><path class="cls-2" d="M199.2616,233.37122a14.95608,14.95608,0,0,0,5.01379-3.34106,40.23359,40.23359,0,0,0-6.75049-4.84711c0.15283,0.13641.30347,0.27661,0.44641,0.42847A7.06609,7.06609,0,0,1,199.2616,233.37122Z" transform="translate(-17.01182 -17.01182)"/><path d="M315.567,224.13457a53.4384,53.4384,0,0,1-7.184,1.57908c-1.5226.28494-5.552,1.22106-6.92972,1.58405-1.621.42711-3.44058,0.885-2.98669,1.28848,0.22856,0.96015,2.146.58955,4.73908,0.70858,4.95236,0.22733,7.69944.53771,11.58438,3.81833,2.83574,2.39462,5.54739,2.51367,3.36695.60432-1.97737-1.73152-6.26324-5.2136-8.23343-5.884a25.27451,25.27451,0,0,0,12.075-4.80489C322.94438,222.27648,322.04187,221.54461,315.567,224.13457Z" transform="translate(-17.01182 -17.01182)"/><path d="M241.72429,217.63594c-4.67294,1.29663-6.445-1.588-9.46121-4.20585-2.2955-1.99238-2.84795-4.69816-4.49408-4.608-1.85934.102,2.0961,4.81658-12.59368,11.427-2.024.9108,5.13131,1.73315,7.34489,0.36724,5.76826-3.55935,4.98883-3.52141,5.616-4.44934,3.51775,3.38044,9.25026,5.4884,13.95529,4.03969C248.1831,218.331,246.82861,216.21961,241.72429,217.63594Z" transform="translate(-17.01182 -17.01182)"/><path d="M169.78008,194.02782c-1.52986,1.02681-7.90446-.07873-5.87355-1.44184,16.34417-10.96984,31.66767-9.94125,50.28249-7.43657,23.0541,3.102,42.82256-11.90822,65.673-12.1272,4.0743-.039,3.96308,2.68967-0.03011,2.72794-17.82681.17084-33.25692,10.53877-50.76363,12.51251a70.94932,70.94932,0,0,1-18.59965-.785c-14.73809-2.18756-27.69147-2.17316-40.68857,6.5502h0Zm31.25135-18.01365c4.02938-1.08086,7.25955-2.91141,11.09665-4.47774,8.98739-3.66871,18.98212-1.93983,28.49-1.67409,11.569,0.32334,20.72362-7.19769,32.79684-6.5271,2.88842,0.16043,6.41438-2.41073,1.7554-2.6695-14.00266-.77775-27.89968,7.342-41.20941,4.95811-14.56139-2.60808-22.96582,4.50054-36.4223,8.11017-4.24477,1.13864,1.468,2.82328,3.49278,2.28015h0Zm-28.05862-2.59625c15.70908-13.98022,32.39135-17.83461,52.844-18.94891,8.46755-.46133,15.85163-3.56192,23.87488-6.02327a55.78114,55.78114,0,0,1,41.42981,3.1257c2.66371,1.26739,6.7036.01557,2.50623-1.98154a70.71112,70.71112,0,0,0-27.495-7.13137c-12.17072-.52133-22.09769,3.90064-33.62262,6.9621-11.76851,3.12616-24.06343,1.3749-35.89069,4.71448a75.36649,75.36649,0,0,0-29.7196,16.65657c-1.41953,1.2633,4.57153,3.96245,6.073,2.62625h0Z" transform="translate(-17.01182 -17.01182)"/><path d="M243.01056,261.23405c0.99982,1.14388-4.59937-16.032-3.21087-26.29433C235.58729,241.11254,235.605,252.76147,243.01056,261.23405Z" transform="translate(-17.01182 -17.01182)"/><path d="M324.86589,252.85307c-2.41435,35.26815,13.573,50.655,8.00174,46.60526-11.36359-8.26027-12.83579-28.25345-12.82641-35.66389,0.00749-5.92386,4.04817-14.027,4.82467-10.94136h0Zm31.96029-2.61412c3.92659,8.04639,1.55454,26.28983,1.55454,26.28983A44.55425,44.55425,0,0,0,361.999,264.229c1.11684-7.36389.99455-5.8768,0.94542-12.12755s-1.82739-5.31912-2.05022-6.89065-1.98994-12.89069-2.15949-8.516A73.98814,73.98814,0,0,1,356.82618,250.239ZM151.431,259.49455c-0.924-3.77746-.32376,6.35668-0.22215,7.76s-1.50932.88344-.42561,6.32843,0.71713,4.17147,2.94739,10.39423a41.84241,41.84241,0,0,0,5.148,10.10743s-5.20478-15.48087-3.46381-23.121A70.31,70.31,0,0,1,151.431,259.49455ZM369.847,220.75321c1.58568,0.62891,2.09429,2.15251,1.73913,6.24751s-0.07778,9.19873.40222,8.08066a46.14269,46.14269,0,0,0,2.92121-7.97242c0.53321-2.75178-.89027-6.7158-2.60358-8.59074s-4.65883.03352-7.76622,1.0413A35.18667,35.18667,0,0,1,369.847,220.75321Z" transform="translate(-17.01182 -17.01182)"/><path d="M302.23951,221.52528c-0.525.139-4.35039,1.32178-3.89563-.21165,1.7533-5.91329-1.83575-3.22355-5.40583-4.54788a0.59107,0.59107,0,0,1-.38534-0.39809c0.10965-.75595,1.35861-5.92377,1.12061-6.16234-0.958-.96052-4.57224.00085-6.06941,0.30771-0.58.119-2.11683,0.28532-2.39677-.50066-0.51653-1.44985,1.93719-2.99943,1.53173-4.124-0.82593-2.28938-3.77776.14989-5.758,1.34076-0.85342.51341-3.3332,1.22006-3.9336,0.04052a12.18145,12.18145,0,0,1,.257-5.33867c-1.21411,1.46826-3.27653,4.59888-3.91886,5.26274a4.06938,4.06938,0,0,1-3.86644.68143,9.034,9.034,0,0,1-3.4284-3.068c-1.37844,1.6921-2.74981,3.3893-4.18662,5.03579-0.53126.6089-4.022,1.60908-4.25179,0.28334-0.67435-3.88968,1.09567-4.91225-.87155-2.03806-1.18266,1.7278-1.143,3.3621-2.60275,4.94993a4.02069,4.02069,0,0,1-3.86644.68143c-2.04911-1.07272-2.62854-3.03428-4.88108-4.226-1.50085-.7942,2.64384-2.14828,3.70721-1.58557a10.0418,10.0418,0,0,1,2.6444,2.30241c1.11437-2.50018,1.59463-5.26246,4.05572-6.95626a4.22687,4.22687,0,0,1,3.54826-.43861,4.07787,4.07787,0,0,1,2.031,2.54892c1.06365-1.31073,2.127-2.62174,3.23828-3.89535,0.68-.77918,3.69474-1.50425,4.25179-0.28334a14.70328,14.70328,0,0,0,2.35256,3.50009c1.75132-2.333,3.29013-4.70258,6.28559-5.7277,0.75623-.259,2.18454-0.45561,2.86427.14,1.63487,1.43256.92737,3.36578,0.79222,5.203,2.96458-1.76889,6.11956-3.2618,9.58394-2.69455a0.93074,0.93074,0,0,1,.76728.51766c0.79108,2.13269-1.447,4.10077-1.87485,5.91725,2.41348-.71968,5.6291-1.55638,7.071-0.39526,3.57942,2.88213-1.92841,4.78645-.45193,7.273-0.29751-.50094,5.76453-0.593,6.41961.07962,1.51813,1.55865.7519,3.41554,0.181,5.29182A1.80591,1.80591,0,0,1,302.23951,221.52528Zm-91.53382-10.83517a34.43986,34.43986,0,0,0-4.54221,1.49943c-0.40829-2.16584-1.171-4.26482-3.11418-5.09359-2.99348-1.27673-5.18879,1.08547-6.47118,3.63382a12.24126,12.24126,0,0,0-6.871-2.5033c-0.50293-.0034-1.92642.00482-2.20579,0.62193a4.68032,4.68032,0,0,0-.40007,2.83736c-1.98479-1.28069-3.90328-2.54949-6.55845-2.284-0.38279.03825-1.4167,0.13855-1.60058,0.60181a4.98843,4.98843,0,0,0,.89138,4.76293c-4.07187-.72846-8.87588-1.77172-12.04219.166a0.509,0.509,0,0,0-.244.69588c1.0101,2.56564,7.61445,4.23677,5.31232,4.15885q-1.10332.27073-2.19446,0.58566a8.87014,8.87014,0,0,0-2.85521,1.35719,0.59149,0.59149,0,0,0-.31989.45249,13.111,13.111,0,0,0,2.63732,3.9387c-0.37826.017-2.51832,0.71515-3.88883,1.10106-0.28532.08019-1.20589,0.27484-1.14214,0.76162,0.27286,2.08,1.0084,2.48233,2.89743,3.17935,1.07272,0.39582,5.40668-.41991,3.24112-1.21892-4.1563-1.53343.23829-1.94144,2.33358-2.53163,0.27116-.07622,1.54278-0.45929,1.06592-1.005-3.36012-3.84576,1.66207-5.23242,4.783-6.25924,0.79193-.26067.86617-0.9829,0.02663-1.28579-2.08056-.75057-7.92046-2.03919-3.43209-2.5747,2.25368-.26889,4.99413.64375,7.30136,0.788,0.157,0.00992,3-.30091,2.21571-1.10531a6.03236,6.03236,0,0,1-1.61787-2.09048,4.82582,4.82582,0,0,0-.49329-1.19144,6.50583,6.50583,0,0,0,1.4932.80978,28.54517,28.54517,0,0,0,4.28749,1.86947c0.60833,0.14592,3.89931.35786,3.3604-.95712q0.40206-4.33849,3.3128-.62816c0.85,0.578,3.86871.98715,4.245-.37061,1.7635-6.3604.34227-4.38127,1.5578-.52049a16.20165,16.20165,0,0,1,.42614,2.60247c0.18332,1.33679,3.84916,1.24726,4.45976.33462,1.36229-2.03664,4.394-2.95551,6.40658-3.52077C215.793,211.51463,212.07365,210.30619,210.70569,210.69011Z" transform="translate(-17.01182 -17.01182)"/><path d="M208.24072,239.3031c-7.55835,4.52979-17.22974,7.02112-27.08643,4.64661-7.7749-1.873,3.48364,7.11469,15.78833,4.11566C209.52759,244.998,212.60962,235.87909,208.24072,239.3031Z" transform="translate(-17.01182 -17.01182)"/><path d="M193.62744,218.45239c-5.189-.8385-6.91,3.84027-14.26892,11.0722-4.40588,4.33-17.09387,10.76556-7.80481,7.39636a67.99683,67.99683,0,0,0,9.21777-3.95239,29.34813,29.34813,0,0,0,5.04663-3.41333,7.07288,7.07288,0,0,0,2.38721,6.24634c-1.62549.11133-3.34521,0.15344-5.17163,0.1059a4.39465,4.39465,0,0,0-1.45776.14105c-1.42969.49158,1.28015,2.13062,5.32617,2.76031,5.97046,0.92969,13.06506.582,19.29028-5.58173a2.34187,2.34187,0,0,0,.63416.79419c2.52881,1.06281,4.10132-1.71844,2.20837-3.74408-0.54492-.58282-2.09729-1.61957-3.03809-2.5968-1.29053-1.34076-2.44971-2.46472-3.55493-3.49438,5.07251,1.37646,9.16309,3.77887,10.69751,3.39526C214.75635,227.17694,201.54138,219.6297,193.62744,218.45239Zm4.34387,7.15912c-0.14294-.15186-0.29358-0.29205-0.44641-0.42847a40.23359,40.23359,0,0,1,6.75049,4.84711,14.95608,14.95608,0,0,1-5.01379,3.34106A7.06609,7.06609,0,0,0,197.97131,225.61151Zm-3.45081,1.14276a2.06191,2.06191,0,1,1-2.12781,1.99384A2.06216,2.06216,0,0,1,194.52051,226.75427Zm-5.18335,3.7666-0.08276-.00317c-0.02173-.053-0.05359-0.10425-0.07751-0.157Z" transform="translate(-17.01182 -17.01182)"/><path d="M291.74548,222.77582c-1.22083-.41449-5.84265-2.19275-5.91663-2.21851-13.83777-4.859-16.09009-11.85077-21.48022-9.5318-14.73169,5.71661-17.55054,12.35779-16.66235,12.35779,1.47986,0,5.58936-3.46948,12.24927-6.16119-0.29675.49371-.783,1.20416-1.30566,1.91553-0.23755.32312-.48022,0.64484-0.71973,0.94812a13.43633,13.43633,0,0,1-1.18848,1.35638c-2.09961,1.96161-2.9292,2.32086-4.30127,3.69287-1.725,1.725,1.94067,6.25323,4.4928,1.94135,12.8446,8.58234,20.93176,8.17633,26.30945,4.12061,2.65442-2.00122,2.93567-4.30829.98047-3.69257a3.58627,3.58627,0,0,0-.37183.13892,25.36566,25.36566,0,0,1-4.65088,1.53229,7.06867,7.06867,0,0,0,.99695-6.54535c1.616,0.41443,3.09314.7757,4.58435,1.19263,0.27808,0.07776.55566,0.15381,0.83594,0.23651a64.11862,64.11862,0,0,0,7.31152,1.35236C302.5874,226.3938,294.65479,223.76386,291.74548,222.77582Zm-17.90637,2.0083a2.06051,2.06051,0,0,1-.31372-4.08478c0.647,0.21375,1.27246.41467,1.86523,0.5965A2.05961,2.05961,0,0,1,273.83911,224.78412Zm-6.31018,4.05017a37.28817,37.28817,0,0,1-9.46509-4.21082c5.57214-5.88153,5.81641-7.50226,10.8114-5.5863,0.17822,0.06836.34424,0.129,0.51868,0.19495a7.0019,7.0019,0,0,0-1.778,9.61249l0.01123,0.02063C267.59424,228.85638,267.56177,228.84326,267.52893,228.83429Z" transform="translate(-17.01182 -17.01182)"/><path d="M288.16919,237.8194c-7.84619,3.09192-20.59644,1.0415-29.35059-2.19678-5.67615-1.43018,2.63037,8.56519,16.28442,8.15979C287.87585,243.4032,296.01563,234.72748,288.16919,237.8194Z" transform="translate(-17.01182 -17.01182)"/><path d="M226.28142,352.50957c12.59169-7.41695,24.39722-8.48007,37.17223-1.24147,3.82282,2.16609,4.34186,6.3871-2.1472,3.00456-10.35758-5.39909-23.9266-4.06879-32.45009,2.30813C217.73976,364.89777,222.41866,354.78488,226.28142,352.50957ZM212.08521,340.09c3.25057,3.77264,11.67769,6.28507,16.00631,5.94069,4.41225-.351,5.46265-3.55385,8.90994-4.82457,4.28021-1.57775,12.58814,3.2105,17.97224,1.9021a71.65254,71.65254,0,0,0,13.47224-4.97374c1.48784-.68432,8.2056-7.50441,2.43255-4.84914-1.94182.89312-10.25068,5.132-12.91207,5.87677-9.83288,2.75185-9.82748.40656-17.02068-.95778-7.78394-1.47639-15.32588,5.35929-22.14293,2.0797C216.3844,339.1206,208.83464,336.31738,212.08521,340.09Zm74.31819-9.72174c-7.00285-3.228-10.69417-16.72771-8.9232-6.85539a7.3053,7.3053,0,0,0,.608,1.56658c-5.77445.23772-2.4064,0.73073-8.60642,1.39941-6.51652.703-11.06836-.08642-17.242-1.15659a13.4529,13.4529,0,0,0-6.123-.00765c-2.93823.718-4.66093,3.1037-8.51831,3.363-1.48016.09945-2.64865-1.8434-5.301-1.57735-2.20211.221-4.91735,1.39176-7.04381,1.83859a134.961,134.961,0,0,1-18.56721,2.5424,10.80835,10.80835,0,0,0,.104-2.02616c-0.34087-3.1813-1.97843-.43993-2.47554,2.25866-0.482,2.61669-1.27531,5.53855-3.75112,6.72517-2.386,1.14327-1.95816,3.21137-1.194,3.13345,4.23734-.43294,6.185-4.64393,6.96986-8.1069,0.27512,0.07848,8.15648.21534,16.073,0.10965,2.61154-.03485,5.18992.94267,9.6307,0.95882,3.72393,0.01388,6.6766-1.26964,7.66886-1.29514,3.26322-.08415,6.14846.26747,11.091-0.45419,2.66282-.389,8.36559-2.30978,9.86558-2.46477a117.22329,117.22329,0,0,0,18.21644-3.56781c1.89186,3.4947,4.19738,4.8417,5.77133,5.27407C287.93343,332.92627,288.97248,331.55252,286.4034,330.36829ZM230.40409,313.5985c3.622-4.34638,7.64143-5.57154,10.40663-3.90777,1.64107,0.9874,5.71333,3.60859,3.72425.65717s-7-5.55067-9.94794-5.20274c-4.38559.51761-8.62667,5.4996-9.54147,8.01645S228.47175,315.91732,230.40409,313.5985Z" transform="translate(-17.01182 -17.01182)"/><path d="M285.8399,306.9008c-6.76517-6.06712-11.21119-11.89931-15.79327-21.27322v-0.02125c0-6.08781-1.80749-14.51057-10.93781-17.38416-8.52568-2.68369-13.29793,5.00074-12.12416,4.59606,9.34538-3.22177,17.1428.81076,18.123,7.23025-0.101,1.251-.08208,2.62888-0.08208,2.62888,0.01734,0.04251.01587,0.075,0.03293,0.11718a11.14574,11.14574,0,0,1-.65068,2.52177,6.59235,6.59235,0,0,1-8.31336,4.45119c-0.02545-.39685.5272-3.44467-2.43392-4.55215-10.468-3.91619-9.36523,3.8927-17.25885,8.68732-6.82222,4.1444-12.81591,2.2737-15.56365-1.38408a11.80122,11.80122,0,0,1-1.2039-11.69935c0.46033-.8281,1.0109-5.07373,1.93436-8.26279,2.49911-8.63055-1.01636-9.686-1.586-19.478-0.54759-9.41642,1.76831-11.48232-.60942-17.17469-4.62766-11.0782-1.33319,3.06069-2.83864,8.45184a25.7292,25.7292,0,0,0,.47123,15.51709,20.8187,20.8187,0,0,1-.269,15.59232,20.25732,20.25732,0,0,0-4.39191-1.468c-7.353-1.71632-14.52148,7.47161-12.38677,17.15119l-0.51375,6.78C198.05061,313.117,189.792,312.259,190.897,325.39216c0.34567,4.10748,3.46033,9.85354,3.137,4.01715-0.58339-10.539,2.1912-12.74838,5.63559-18.50479,2.57854-4.30912,4.00652-7.83937,3.8748-13.61228a7.087,7.087,0,0,0,8.19483-.43376c-0.36664-1.27277,6.6656,1.03281,8.62552,1.23a15.95363,15.95363,0,0,0,22.541-5.46695c2.98406-1.26466,10.86734-.74168,11.399-0.34651a9.26955,9.26955,0,0,0,5.486,1.64025,13.96407,13.96407,0,0,0,7.97893-4.18663c1.73282,4.21543,3.60716,7.43721,9.3809,13.30912,9.64155,9.80544,16.9118,12.2791,18.61805,27.19155,0.49893,4.35974,2.40843-1.15671,2.42857-2.25077C298.44824,314.3271,294.32419,314.50972,285.8399,306.9008Zm-75.80944-15.22148c-0.46285,1.33989-.61723,1.46043-1.0756,2.65712a11.0502,11.0502,0,0,1-3.32917-.295c-4.03393-1.03533-3.71874-21.48129,9.37447-15.48633-1.2311,3.31518-.61555,9.29476.52046,10.72918C213.45388,288.51823,211.11334,288.54452,210.03046,291.67931Z" transform="translate(-17.01182 -17.01182)"/><path d="M421.59375,402.86389c-31.51392-15.68011-74.28638-38.33081-88.54224-45.129a28.87758,28.87758,0,0,0,6.06433-7.81586c6.58337-11.98071,13.41541-33.91522,16.68323-44.91064a10.21848,10.21848,0,0,0,4.72046.08282c6.86987-1.13574,10.52881-8.8205,13.8291-14.67059,5.4314-9.62366,7.56079-20.77972,5.41724-29.71259-0.30493-1.27612-2.437-8.318-2.54468-10.06085-0.20288-3.3183,4.50171-13.87506,5.07288-15.45154,2.36731-6.52661,3.75891-12.43768,1.65247-17.73517a17.9849,17.9849,0,0,0-1.32227-2.632,2.99377,2.99377,0,0,0,1.063-1.53424c0.4397-1.71832-.29468-2.54779-2.73364-5.29077-0.42151-.476-1.03369-1.16486-1.709-1.94257a2.93663,2.93663,0,0,0,2.312-.723,3.01114,3.01114,0,0,0,.66638-3.7196,81.10285,81.10285,0,0,1-6.05212-14.67694,2.97077,2.97077,0,0,0,2.57947-.85913,3.014,3.014,0,0,0,.49426-3.59961,200.35351,200.35351,0,0,1-9.27563-18.82056,3.01719,3.01719,0,0,0,4.23425-3.22766,50.88586,50.88586,0,0,0-4.07092-12.408c0.17676,0.009.3446,0.00226,0.51245-.00446a3.01706,3.01706,0,0,0,2.29382-4.82147c-0.29919-.40326-3.76294-6.59149-5.86633-8.93536a2.21528,2.21528,0,0,1,.32642-0.12921,3.01736,3.01736,0,0,0,1.8905-4.95715,35.209,35.209,0,0,0-8.201-7.5144,2.07468,2.07468,0,0,1,.64844-0.06091,3.01624,3.01624,0,0,0,3.554-4.54492c-4.30212-6.15186-11.62354-7.37372-17.02734-7.96967,0,0-.72546-15.82391-5.3313-20.35956a3.05068,3.05068,0,0,0-3.6449-.54871,2.90006,2.90006,0,0,0-1.41907,3.29138,27.222,27.222,0,0,1-1.57764,4.30438c-0.884-1.4621-6.75024-11.89343-9.3479-15.08276a3.01652,3.01652,0,0,0-5.23169,1.05182c-1.24194-1.233-8.58606-9.00555-11.27905-11.24963a3.01566,3.01566,0,0,0-4.83252,1.49371c-0.09985-.09985-5.61694-5.57153-8.6908-7.59576a3.01127,3.01127,0,0,0-4.64661,2.1059c-3.28662-2.90826-6.6189-5.75977-9.88745-8.13306a3.01747,3.01747,0,0,0-4.49255,1.131,6.06923,6.06923,0,0,0-.43079,1.27393,58.78167,58.78167,0,0,0-10.13232-6.80237,3.01735,3.01735,0,0,0-4.23853,3.53833l-8.98071-4.01434a3.016,3.016,0,0,0-4.24561,2.87415,139.68422,139.68422,0,0,0-17.719-4.31586,3.01724,3.01724,0,0,0-2.38452,5.29974,5.09228,5.09228,0,0,0,.62341.44189c-8.03308.51459-17.17712,2.32568-23.27234,6.1767a2.94064,2.94064,0,0,0-1.11633,1.39667c-11.89539.73108-22.43555,5.621-34.96082,11.17468-3.70386,1.64221-1.01428,4.19421-.98022,4.24591A154.34144,154.34144,0,0,0,142.53857,97.4469a3.0183,3.0183,0,0,0-.99756,3.37531,3.1766,3.1766,0,0,0,2.87891,2.02423c0.90674-.00922,1.75-0.03412,2.54077-0.075-1.21033,1.93585-6.231,11.86407-8.0647,15.094a2.78977,2.78977,0,0,0,.48486,3.61554,4.07346,4.07346,0,0,0,3.85815.37164c-0.36719.77075-3.74512,9.22766-6.06128,14.17163-1.34607,2.873,2.39453,3.81409,2.57739,3.83368-0.33105.76715-4.282,10.4375-8.33716,14.08466a3.0172,3.0172,0,0,0,2.01758,5.26111,3.04908,3.04908,0,0,0,.49023-0.08893,59.04145,59.04145,0,0,0-5.50439,21.28021,2.98677,2.98677,0,0,0,2.49536,3.12665c-2.36548,8.29108-4.22913,18.58087-3.04614,23.55029a3.00407,3.00407,0,0,0,1.83521,2.093c-0.47852,6.9671.11829,15.55933,2.54028,21.47937a7.70121,7.70121,0,0,0-1.04126.61133c-8.699,7.21686,3.75464,41.83551,7.68677,48.06958,4.43225,7.02612,7.57593,14.63129,7.12524,21.835-0.48084,7.67944,1.82129,11.98279,4.5072,14.1452,3.21887,2.58856,11.14026,4.3407,15.16589,3.34564,3.66162,14.70941,8.46631,29.24542,13.06689,33.9223l7.90442,8.88336c-12.01624,4.22681-78.90918,39.94891-110.475,52.32843a239.38294,239.38294,0,0,0,96.23584,66.30115c0.35352,0.46216,1.287.77924,1.35181,0.50641,2.42432-10.2077,5.23608-38.405,8.01831-60.83746,0.90015-7.25739,1.79712-13.91187,2.677-19.15619,1.2085-7.20465,2.38477-11.75232,3.4917-11.55157,1.68726,8.3623,9.04761,75.49969,9.88965,75.76227,2.35168,0.73328,36.02319-19.63806,39.24573-22.51642,2.20435,3.41895,4.67664,7.11505,6.39832,8.59644,5.71216,4.91571,5.45935,9.43542-2.66248,22.39581-6.50427,10.37958-8.80823,11.96338.85242,16.82343,9.66028,4.86,33.36377,6.07581,42.1853-1.11865,6.2677-5.111-2.32642-16.04736-8.637-25.95569-5.33374-8.37524-3.47559-8.63922,1.80981-14.82745a42.77672,42.77672,0,0,0,3.26147-4.64191c1.63867,1.56244,18.82178,13.51923,29.80713,20.20093,4.4895,2.73071,7.94971,4.58545,8.88135,4.48169a9.15345,9.15345,0,0,0,.94873-0.18848c5.29443-1.15948,7.7019-60.44818,5.9043-77.22406,5.53784,18.07239,18.63525,64.90051,22.43823,85.55487a239.61026,239.61026,0,0,0,88.3457-64.264C433.83044,408.65021,429.335,406.71564,421.59375,402.86389ZM200.77063,456.53632c-3.11218-23.14673-4.9895-49.1087-4.45593-72.36584,8.33032,15.47052,35.32617,41.1792,47.20947,43.46747C242.38489,429.8526,207.84375,452.60107,200.77063,456.53632ZM315.73145,459.65c-2.771-1.54156-10.94434-7.0979-19.62012-13.22858-12.11621-8.56171-25.214-18.24561-25.96021-19.69635,2.48218-.69574,4.82324-1.49445,7.06079-2.36407a68.93892,68.93892,0,0,0,13.43213-6.95337c15.84546-10.60724,21.57227-18.97467,25.865-30.26209C317.04224,410.40277,318.84363,436.50354,315.73145,459.65Zm-42.15967-39.027c-0.73328.28217-1.47241,0.55261-2.22192,0.80042-5.66614,3.1524-20.36658,2.76563-28.619-.70337-18.51453-9.31012-36.37976-32.02356-45.30481-46.53107l9.06494,6.99292c1.813,1.813,8.92871,5.889,14.20972,9.796,6.39771,4.733,17.52686,9.93665,27.20361,10.25208,1.1333,0.03687,2.209.056,3.25854,0.06647,12.39209,0.12408,19.15808-1.61774,24.76538-6.03485,6.50391-3.16638,27.083-11.88446,42.98291-23.28625C318.7832,372.16168,302.61133,409.44934,273.57178,420.623Zm10.11133-36.31378c9.7804-29.73242,1.27075-26.31232-1.17358-16.82227-4.1792,16.22485-5.002,20.07178-12.60144,23.74213-3.89954,1.88367-9.94934,3.22247-16.7157,3.364a50.81561,50.81561,0,0,1-21.50256-4.04773c-12.67444-8.01868-15.73865-18.12726-18.62927-25.69873-0.0625-.16376-0.12512-0.32806-0.1875-0.48938-1.74536-4.50854-6.62207-10.10681-7.47852-7.729-0.64917,1.80206,1.00989,8.18341,8.09668,23.10291L195.16113,359.786l-1.7998-1.95819-9.46875-10.303c-4.04-4.10748-15.05371-31.2973-19.5957-47.44733-3.97131-14.12067-1.27,6.00507-.198,11.76031-2.96753.32642-6.74622,0.01678-9.209-1.959a6.66461,6.66461,0,0,1-1.06934-1.10956c-1.29565-1.66193-1.84863-3.9798-1.65515-7.05957,0.57556-9.19379-3.40686-17.54047-8.04919-25.16284-4.73047-7.76721-13.45813-36.156-8.45935-39.93713,0.32776-.24835,1.249-0.31543,2.8.13507,0.54651,1.50244,1.11572,2.90649,1.6333,4.11365,0.87415,2.03882,1.60059,3.51447,1.818,3.94305a3.02146,3.02146,0,0,0,2.45508,1.63886,3.11142,3.11142,0,0,0,2.6792-1.23755l11.15894-15.4024a3.01769,3.01769,0,0,0-3.14624-4.70569l2.76318-7.40759a3.01738,3.01738,0,0,0-4.27954-3.69916c0.66431-2.16711,1.29883-4.13239,1.7002-5.1319a3.01783,3.01783,0,0,0-.09766-2.46161c-0.0791-.16113-4.1958-12.28192-0.27185-20.38922a2.98371,2.98371,0,0,0-3.68994-4.03784c-0.05872-4.72021,1.00281-10.94147,5.55981-18.78107,0.83655-1.44171.70081-4.37042-1.42639-4.23785,2.24561-6.9223,7.57458-14.75555,12.42908-19.94562a3.01654,3.01654,0,1,0-4.40637-4.12091c-6.86377,7.33514-14.19189,18.85663-15.0896,28.06415a3.005,3.005,0,0,0,.69116,2.22388c-5.14258,11.413-3.77734,19.647-3.28638,22.59662a3.01213,3.01213,0,0,0,1.9314,2.33661,41.7981,41.7981,0,0,0,1.57947,17.79419c-1.41418,4.05963-3.74451,12.30115-3.85327,12.69128a3.01589,3.01589,0,0,0,1.16064,3.28223,2.977,2.977,0,0,0,2.423.47821l-2.7041,7.24646a3.01811,3.01811,0,0,0,.84766,3.33228l-1.84521,2.54327c-1.86755-4.513-3.57666-9.89661-3.12549-12.70947a3.01452,3.01452,0,0,0-2.50024-3.45673,2.93523,2.93523,0,0,0-3.22607,1.87939c-1.48523-8.14423-.62415-18.79565.7915-21.54535a3.06838,3.06838,0,0,0-1.30322-4.06439,2.95266,2.95266,0,0,0-1.81592-.24695,104.78489,104.78489,0,0,1,2.72729-12.14441c1.34692-4.7478,2.77-8.63617,3.52661-9.60931a3.024,3.024,0,0,0-.52124-4.23419,2.93839,2.93839,0,0,0-3.3573-.17206,3.13483,3.13483,0,0,0-.49475.36255c0.13538-.55975.28735-1.10986,0.43872-1.6601a41.96809,41.96809,0,0,1,6.5415-14.03015c1.00647-1.33063.65857-4.72272-1.58911-4.7121,1.29736-2.29077,5.39917-11.15875,6.87952-13.94537,0.78186-1.47241.86584-3.189-.424-4.24536a2.96268,2.96268,0,0,0-2.87756-.46985c0.871-2.0835,5.94446-12.1535,6.54285-16.74146a3.0227,3.0227,0,0,0-1.55493-3.04419,3.05516,3.05516,0,0,0-1.18994-.35352c0.03174-.06348,5.2384-10.34991,10.37927-12.30591,1.55261-.5918,2.33691-2.975,1.74768-4.53a4.78179,4.78179,0,0,0-1.72412-2.22968c-0.01221.01227-.02319,0.0249-0.03528,0.03717A1.9955,1.9955,0,0,0,157.96338,93h-0.02026c1.04529-1,2.10889-1.10767,3.18164-1.64752,0.04639-.04169.09521-0.08289,0.142-0.12451,8.338-4.19678,17.29846-8.75549,24.022-10.356a2.70247,2.70247,0,0,0,2.23743-3.31122,2.33589,2.33589,0,0,0-.64722-1.13837l-0.01013.00452a3.74719,3.74719,0,0,0-.8302-0.61774,69.25436,69.25436,0,0,1,8.53931-2.73285l0.01685-.00708a68.49807,68.49807,0,0,1,24.81934-1.40283,2.98674,2.98674,0,1,0,.6936-5.93274c-0.42371-.0495-0.83032-0.04572-1.25183-0.0885,10.1947-2.6076,22.65588-2.15619,24.9707-1.141a3.01544,3.01544,0,0,0,4.207-2.38513c0.86487,0.25757,1.7594.52954,2.668,0.80853a2.86524,2.86524,0,0,0,.05261-0.49829,2.85824,2.85824,0,0,1-.05261.49872c1.57788,0.4845,3.21375.99738,4.92114,1.54681a3.01682,3.01682,0,0,0,3.81018-1.98737l9.3252,4.16614a2.99361,2.99361,0,0,0,3.629-.92462,2.9267,2.9267,0,0,0,.467-0.88629q0.53741,0.41492,1.07446.83649c1.7135,1.3396,3.43628,2.68591,5.25867,3.94861a3.01926,3.01926,0,0,0,4.733-2.36426c2.46167,2.06506,4.955,4.29761,7.39832,6.48517,1.71826,1.54126,3.40479,3.0509,5.01416,4.44733a3.02,3.02,0,0,0,4.97754-1.95856,54.66475,54.66475,0,0,0,8.124,7.03589,3.00627,3.00627,0,0,0,3.7627-.356,3.04029,3.04029,0,0,0,.55322-0.72961c3.31372,3.50867,6.75,7.11951,10.82568,9.81464a3.03008,3.03008,0,0,0,2.76538.29254c0.35376,0.61639,5.16821,9.18231,7.76123,12.36493a3.05514,3.05514,0,0,0,3.72192.87482,2.908,2.908,0,0,0,1.56421-3.36609,12.9711,12.9711,0,0,1,1.08789-3.18457c0.7002,2.51141.884,12.99506,0.884,12.99506a3.01884,3.01884,0,0,0,2.68359,2.83777s6.79736,0.31744,10.97119,2.21246c-0.467.18793-3.58154,1.49817-3.95312,1.55493a3.01756,3.01756,0,0,0-.322,5.99078,17.28028,17.28028,0,0,1,10.114,5.42194,1.812,1.812,0,0,1-.72522.12024,3.0181,3.0181,0,0,0-1.71375,5.76422,7.38512,7.38512,0,0,1,2.26221,1.48926,3.02116,3.02116,0,0,0-2.0354,4.91656,42.65165,42.65165,0,0,1,5.80273,10.08453,3.01681,3.01681,0,0,0-4.08008,2.85852c0.05432,4.97076,4.91406,15.43152,8.61353,22.68524a3.02169,3.02169,0,0,0-1.90869,4.03c0.72546,1.76135,4.04395,12.07269,5.58081,15.74a2.98817,2.98817,0,0,0-2.70666-.4668,3.02429,3.02429,0,0,0-2.11707,2.72455c-0.07251,1.45508.55762,3.04864,1.92212,5.07513-3.48608-.77972-7.15356-0.74561-10.19116,1.25348-2.52051,1.6615-4.15247,4.3158-4.91406,8.01971a10.8031,10.8031,0,0,0-2.23511-.92261,27.92138,27.92138,0,0,1,.72083-8.15118,58.88627,58.88627,0,0,0,1.05627-7.70459,3.01989,3.01989,0,0,0-4.95935-2.47955,11.75975,11.75975,0,0,0-1.45093,1.66821c-0.58923-5.21576-1.40076-11.5603-2.16235-14.77905a3.01816,3.01816,0,0,0-2.7428-2.31647,2.9436,2.9436,0,0,0-3.01929,1.94482c-0.09058.24695-.18115,0.50311-0.26733,0.76849a69.23323,69.23323,0,0,1-2.41187-11.42889A3.02106,3.02106,0,0,0,333.212,168.998c-0.57275-4.17267-.0769-9.6947-0.12219-10.36786a3.01483,3.01483,0,0,0-2.72925-2.80841c2.8833-15.0509-1.24683-29.80957-11.75977-40.78033-10.61743-11.07764-25.437-15.58844-37.76782-11.44934a3.01627,3.01627,0,1,0,1.913,5.72119c10.12317-3.38177,22.48584.4986,31.49841,9.90332,10.75317,11.22247,13.79053,27.07825,8.22815,42.59845a7.92718,7.92718,0,0,0-.45789,1.26685,3.019,3.019,0,0,0,4.91406,3.06464,94.6255,94.6255,0,0,0,1.3374,10.69c0.40356,2.45465.82983,5.02734,1.16064,7.90173a3.01608,3.01608,0,0,0,5.80737.74561,51.98955,51.98955,0,0,1,2.20313,9.926,3.01709,3.01709,0,0,0,2.65649,2.668,2.95835,2.95835,0,0,0,2.64331-1.04285c0.52124,4.56079.88391,8.37549,0.88843,8.4549a3.02,3.02,0,0,0,2.29382,2.64984,3.06161,3.06161,0,0,0,1.61389-.05231,24.53528,24.53528,0,0,0,.58484,9.8421,3.04361,3.04361,0,0,0,4.5697,1.74762,19.14705,19.14705,0,0,1,2.86975,5.94574,3.01353,3.01353,0,0,0,2.90125,2.20551,3.13273,3.13273,0,0,0,.58032-0.05457,3.015,3.015,0,0,0,2.4209-3.3,33.45658,33.45658,0,0,1-.11584-7.40509,12.26049,12.26049,0,0,1,1.51355-2.68872c5.87329-5.57739,12.86,1.88611,14.396,5.74353,1.45337,3.657,1.28723,8.35205-.47974,13.21881-0.51709,1.42743-5.55,12.863-5.23486,17.9245,0.15808,2.64618,2.35815,9.43512,2.62,10.53448,1.97913,8.2522-.92761,18.66675-4.68555,25.32788-5.21411,9.23962-5.5127,12.01849-9.92566,11.85681-1.916-.07019-4.0675-1.64478-5.44482-2.81659-1.43164-3.46283-.81079-15.65717-2.08752-17.89929-0.514-.90332-0.2738,12.23462-1.348,18.90894,0,0-8.96313,34.26294-17.86292,49.2738C324.53418,360.4021,293.14014,378.07935,283.68311,384.3092Z" transform="translate(-17.01182 -17.01182)"/><path d="M244.76292,110.94143c0.53974,1.53026-6.05217,2.85906-6.77049.82249-2.88317-8.17434-12.96208-17.29943-21.69329-17.95209-1.24748-.09325-2.10642-0.57486-1.43953-1.70513,0.68594-1.16255,3.44129-1.133,4.57264-1.04845,10.42028,0.77891,21.86112,10.04634,25.33067,19.88317h0Zm-23.26438,5.58383c-2.75521-13.91831-22.3243-23.46676-35.02086-26.624-2.00339-.49818-7.79532,1.13033-3.5529,2.18529,11.33135,2.81775,29.29954,12.07308,32.39094,24.95394,0.50893,2.12053,6.48935,1.03327,6.18281-.51523h0Zm54.46813-10.88232c-2.36921-9.971-11.95026-21.524-22.30056-23.69114-2.04951-.42912-7.6688,1.55129-3.37568,2.45018,8.55864,1.792,16.93892,13.35094,18.85859,21.43006,0.49671,2.09046,7.19764,1.41015,6.81765-.1891h0Zm-10.4321,5.18177C261.958,95.15732,244.3793,84.42432,229.55879,81.46659c-4.54912-.90787-1.95,2.47733.93893,3.05386,12.342,2.46309,25.64712,12.32049,28.54618,25.02,0.43811,1.91917,6.92518,3.18765,6.49068,1.28426h0Zm-9.67141-.91015c-2.71067-11.19653-15.83371-19.66212-26.466-21.74309-2.89442-.5665-6.49976,1.64735-1.93775,2.54023,8.571,1.67753,19.45248,10.03922,21.59142,18.87421,0.52042,2.14963,7.16661,1.79194,6.81235.32864h0Zm-22.66458,2.52123c-5.4752-10.18128-12.62532-15.71668-23.7941-18.86077-2.035-.57286-7.69623,1.12762-3.46781,2.318,9.95793,2.80323,15.8687,8.25373,20.67775,17.19628,0.92431,1.71879,7.52658,1.099,6.58416-.65346h0ZM166.18481,97.027c2.42715,13.26681,15.33684,24.59535,27.85191,28.67309,2.75528,0.89774,6.8061-.69714,2.37009-2.14251-11.06266-3.6045-21.55536-14.24491-23.65509-25.72205-0.33836-1.84947-6.94732-2.88778-6.56692-.80853h0Zm11.154,1.80891c4.968,9.88806,14.23951,19.46764,24.65508,23.45325,2.75543,1.05439,6.68263-.5125,2.34157-2.17364-8.49647-3.25125-16.4119-12.58112-20.41962-20.55793-0.918-1.82719-7.33868-2.23764-6.577-.72168h0Zm18.46493,4.38894c2.2083,8.64073,10.97116,16.2157,18.69574,19.9562,0.79695,0.38591,3.58048,1.38531,4.28294.40126,0.76765-1.07536-.94807-1.95253-1.74066-2.33633-6.2354-3.01939-13.01253-9.814-14.76264-16.66186-0.49307-1.92932-6.94456-3.19509-6.47538-1.35926h0Zm-13.9252,28.26356c-7.63108-.0533-11.66618-5.02589-14.838-11.50648-0.82349-1.68255-7.466-.85617-6.53246,1.05129,4.14911,8.47743,10.11862,13.10587,19.69035,13.17273,0.89929,0.00628,3.82707.05684,4.14232-1.16007,0.31986-1.23471-1.57407-1.55126-2.46224-1.55747h0Zm4.6908-5.6705c-7.08482-.21829-12.73624-6.68394-15.187-12.889-0.75214-1.90429-7.09369-2.92235-6.47571-1.35771,3.83358,9.706,13.64358,17.23146,24.20092,17.55674,4.3998,0.13556-.41309-3.24456-2.53817-3.31h0Z" transform="translate(-17.01182 -17.01182)"/></svg>