<?xml version="1.0" ?><svg id="trump" viewBox="0 0 477.97637 479.10179" xmlns="http://www.w3.org/2000/svg"><defs><style>.cls-1{fill:#f06695;}.cls-2{fill:#fff;}</style></defs><title/><circle class="cls-1" cx="238.98818" cy="238.98818" r="238.98818"/><path class="cls-2" d="M141.2047,300.42118c-2.01463-2.76652-1.90276,2.5509-2.04443,4.01652-0.31517,3.26042-.4316,8.0231-0.68064,11.344-0.2206,2.94158-4.14814,11.06672-1.36129,11.344,2.939,0.29246,8.37053,1.69264,10.952,1.22247A12.92484,12.92484,0,0,1,146.824,326.202a25.842,25.842,0,0,1-1.11072-3.09039,102.203,102.203,0,0,1-3.71945-18.42816C141.76909,303.23343,141.93085,301.42164,141.2047,300.42118Z" transform="translate(-17.01182 -17.01182)"/><path class="cls-2" d="M246.42651,318.50531c0.08105-.00549.14093-0.01508,0.21564-0.02148a1.91209,1.91209,0,0,0,.86658.34558,97.59314,97.59314,0,0,0,10.64459.62213c1.82477-.00726,4.54547.39624,6.14722-0.68323a3.285,3.285,0,0,0,1.26642-3.24567c-0.153-1.62781-.72961-3.06146-0.83-4.74146a8.581,8.581,0,0,0-.23132-2.579c-1.77551-4.74-5.66479-.16895-8.22321.06946-1.44031.13422-2.6637-.0022-3.86688,0.67487a1.38512,1.38512,0,0,0-1.43524.35846c-2.05731,2.08453-4.73328,4.10724-5.8996,6.8551C244.66272,317.14484,245.11469,318.59442,246.42651,318.50531Z" transform="translate(-17.01182 -17.01182)"/><path class="cls-2" d="M186.04791,391.33588c17.3866,23.07739,44.43134,29.56482,69.3327,27.66119,16.03973-.94379,29.13574-8.6377,39.10126-17.04932a41.18481,41.18481,0,0,1-16.53827-5.14667c-2.93988-1.69934-24.35242-6.47961-33.27942-28.25983-5.649-13.78284-7.09167-29.08594-6.39954-43.97467a103.44165,103.44165,0,0,1,6.05127-30.70306c3.54108-9.68036,9.94208-17.49292,13.93073-26.871a64.04082,64.04082,0,0,0,4.16364-16.40118,120.9153,120.9153,0,0,0-1.57806-41.83081,10.234,10.234,0,0,0-2.16119-4.37445l-8.67688,11.765a1.84155,1.84155,0,0,1-3.22656-.22882l-5.63953-10.47614-6.10785,2.00934a1.90645,1.90645,0,0,1-2.3136-.97119l-5.28345-10.72217-5.43445,4.24744a1.89534,1.89534,0,0,1-2.72156-.37341l-6.29993-8.579-18.69043,9.78766c-1.828,1.08166-3.20221-1.01752-2.71075-2.27692l3.76617-11.79053-9.4704-9.64093a1.94753,1.94753,0,0,1,1.60358-3.2395l12.24127,1.54041a198.6701,198.6701,0,0,1-19.28314-8.6095c-14.01532,48.67981-21.10516,80.97186-48.59277,77.47473a14.147,14.147,0,0,0-2.24286,5.21039,80.66323,80.66323,0,0,0-1.112,10.01752c-1.17438,12.37012-1.64362,29.39716,12.37878,34.66272a5.0298,5.0298,0,0,1,2.755,2.37341c2.67194-1.20691,4.84924-3.41821,5.74884-3.79736C150.73761,293.42987,143.57172,334.95673,186.04791,391.33588Z" transform="translate(-17.01182 -17.01182)"/><path class="cls-2" d="M198.184,464.46143c5.81989-8.0321,23.01624-30.19849,26.92627-36.01892q-0.25946-.87241-0.47107-1.759c-9.30048-2.73975-31.55688-14.8642-37.96613-21.17511-0.19037-.00818-0.38043-0.01562-0.57031-0.01288C180.33386,424.06018,188.69312,453.34863,198.184,464.46143Z" transform="translate(-17.01182 -17.01182)"/><path class="cls-2" d="M198.8717,184.919a1.9147,1.9147,0,0,1,.45758,1.923l-2.7,8.45166L212.65,186.9046a1.919,1.919,0,0,1,2.43018.56116l6.10571,8.31573,5.73444-4.48486a1.871,1.871,0,0,1,2.89423.66046l5.5899,11.34375,6.0517-1.98993a2.11779,2.11779,0,0,1,2.28345.91077l4.96613,9.22656,8.32654-11.28986-8.24884-.38416a1.9165,1.9165,0,0,1-1.7525-1.392l-3.72083-13.14807-6.58264,1.5647a1.92194,1.92194,0,0,1-2.1-.9043l-6.62366-11.46893-5.74963,5.415a1.91567,1.91567,0,0,1-2.62012.0022L206.499,167.54077l1.31653,10.364a1.86292,1.86292,0,0,1-2.13879,2.141l-13.22791-1.66406Z" transform="translate(-17.01182 -17.01182)"/><path class="cls-2" d="M229.74951,484.11285c-8.827-4.44092-6.72186-5.888-.77832-15.37244,7.4209-11.842,7.6521-15.97211,2.43237-20.46368-1.73309-1.49139-3.951-4.7428-6.17529-8.24481-19.37408,23.33557-19.78845,34.34424-25.48627,35.51563-3.51062.72192-3.407,0.075-4.79913-1.81995-3.76044-5.1153-16.84406-35.088-17.74969-57.64819-4.2287,7.70825-5.674,57.228-15.91882,59.40076,27.54223,13.32449,61.067,20.63344,94.72565,20.63344,13.49622,0,26.78684-1.12542,39.611-4.41183-7.90546-2.75128-22.4834-7.483-27.29633-8.62781l-0.01855.01691C260.23535,489.66437,238.57672,488.55371,229.74951,484.11285Z" transform="translate(-17.01182 -17.01182)"/><path class="cls-2" d="M329.871,203.23822l8.87469,7.28192,1.0921-4.17187a1.82475,1.82475,0,0,1,1.01007-1.20215l8.5769-3.92151-6.44025-2.5921a1.83236,1.83236,0,0,1-1.0921-2.1496l2.35254-9.19415-10.3855,9.16394a1.82914,1.82914,0,0,1-2.93524-.76617L328.153,187.783l-7.20856,7.4762a1.51407,1.51407,0,0,1-2.77985-.177l-6.87183-9.19415-4.79132,13.81714c-0.27783,1.31653-1.43787,1.84033-2.83166.85681l-9.84589-7.47186,1.43738,13.82141a1.78857,1.78857,0,0,1-2.07623,1.99854l-6.03882-.84387,4.76544,8.08911,7.83447-6.14667a1.82306,1.82306,0,0,1,1.81293-.25684l9.0517,3.63879,0.88489-7.99847c-0.14008-1.38159,1.61542-2.03412,2.68054-1.4115l8.595,4.6087c0.15112-.0166.30225-0.03271,0.45349-0.05017l4.06073-5.03546A1.70708,1.70708,0,0,1,329.871,203.23822Z" transform="translate(-17.01182 -17.01182)"/><path class="cls-2" d="M157.769,194.05365c1.20148-1.97791,2.36444-3.98242,3.45892-6.01947-11.56775.10223-31.21332-4.03-34.96948-4.91791-0.34363,2.41144-.66888,4.82782-1.01367,7.2475-0.42712.96857-.84753,1.94055-1.27313,2.90991-0.0058.03119-.01044,0.06378-0.01624,0.09491C126.90912,194.35114,136.99152,199.38,157.769,194.05365Z" transform="translate(-17.01182 -17.01182)"/><path class="cls-2" d="M136.46869,223.50385a66.474,66.474,0,0,0,6.697-7.6333,88.34138,88.34138,0,0,1-27.86212,3.3783c-1.70172,2.88007-4.5481,6.04614-4.749,9.00476a40.77124,40.77124,0,0,0,9.34937,5.56653C126.10883,232.35925,133.50244,226.35626,136.46869,223.50385Z" transform="translate(-17.01182 -17.01182)"/><path class="cls-2" d="M122.54547,200.16681l-0.076.0423a62.60157,62.60157,0,0,1-3.81689,11.13873c3.09918,1.38495,11.63464,4.62811,29.63782-2.69824q1.01276-1.50751,2.01477-3.01886c1.26868-1.91235,2.55432-3.84906,3.82867-5.80963C142.88593,202.157,128.40106,202.70325,122.54547,200.16681Z" transform="translate(-17.01182 -17.01182)"/><path class="cls-2" d="M169.70514,161.66681c-17.28479-15.07379-19.3833-21.66083-20.12543-22.8952-0.77454-1.28851-.16534-2.67487,4.2785,1.25879a129.04923,129.04923,0,0,0,17.97732,13.22217,11.29236,11.29236,0,0,0,4.43685,1.53732,89.40817,89.40817,0,0,1,9.639,2.22195c5.44122,1.44067,10.87561,2.91669,16.31049,4.39337a1.932,1.932,0,0,1,3.01666-.28735l1.66315,1.5578c20.157,5.46613,40.35278,10.80206,60.97681,14.22522,18.18738,3.01874,45.66168,1.82574,63.94678-.53,9.52667-1.22736,51.821-13.00336,53.27448-25.88043-32.76642-20.15717-72.45874-51.01685-81.433-57.15717C263.78143,66.0434,203.88953,75.169,171.34491,105.03351c-13.21973,12.131-37.07428,45.07239-41.73712,61.17432a96.29444,96.29444,0,0,0-2.28516,10.13818c4.3548,1.20227,25.0838,6.73352,36.329,6.85529" transform="translate(-17.01182 -17.01182)"/><path class="cls-2" d="M315.47681,236.62006a4.50488,4.50488,0,0,1,.00024.98639c-0.3175,2.78046-3.13647,4.76294-6.41077,4.60577a18.79322,18.79322,0,0,0,4.30994.63623,15.45773,15.45773,0,0,0,7.62781-2.67664,1.65293,1.65293,0,0,0,.58307-0.63843C319.36322,238.40472,317.28271,237.39545,315.47681,236.62006Z" transform="translate(-17.01182 -17.01182)"/><path class="cls-2" d="M302.86133,236.16626a4.49864,4.49864,0,0,1,.10162-0.56122,29.43617,29.43617,0,0,1-3.33075.30115,34.14449,34.14449,0,0,1-4.93817.157,1.58346,1.58346,0,0,0,.45349.30615c2.92633,1.42133,6.5921,3.31329,10.27448,4.68658A5.22055,5.22055,0,0,1,302.86133,236.16626Z" transform="translate(-17.01182 -17.01182)"/><path d="M199.62352,366.2631c-1.02848-2.41174-3.02673-10.62184-1.895-9.99469,4.31606,2.3917,12.67716,27.2125,26.72194,37.04252,21.18937,14.83055,33.59593,13.41087,46.5403,6.70544,9.65828-5.00317,18.66708-19.54289,24.33273-26.0613,1.78247-1.70955-2.38948,7.17451-5.53857,13.23915-4.96212,9.55622-11.06656,16.54565-20.10326,20.161-15.47844,6.19248-32.64539,4.47551-50.99811-10.35464C211.15328,390.91558,206.61375,382.655,199.62352,366.2631Z" transform="translate(-17.01182 -17.01182)"/><path d="M141.319,262.60446c3.25844-.29243,2.72923-0.23354,1.69913-5.504-0.97655-4.99652-5.498-14.86212-3.98478-4.25885,0.84109,7.13951-2.1436,6.18487-4.094,7.86249-4.97475,3.77426,1.86259,16.93494,4.462,17.62083,1.98161,0.52288,4.31339,8.808,4.14747,5.454-0.16631-3.36182-.34166-8.87407-2.86415-10.04784C136.13229,272.25354,136.15836,263.0676,141.319,262.60446Z" transform="translate(-17.01182 -17.01182)"/><path d="M352.74467,283.935c-2.66509.64691-2.72291,4.22925-3.5705,7.48672-0.84563,3.24995,1.85163-2.63366,3.86446-2.73482,3.09513-.15556,13.90941-10.44444,7.5905-17.39519-2.34841-3.33589-3.11067-4.16225-1.76213-8.38557,0.995-7.67348-3.78427-3.29862-4.39774,3.76223-0.46466,5.34815-2.88432,4.43872.18835,5.37338C359.524,273.52207,357.42327,283.39481,352.74467,283.935Z" transform="translate(-17.01182 -17.01182)"/><path d="M235.80612,238.75342c-7.895,5.34035-19.49742,1.61338-25.43448-3.90087-4.24864-3.94608-11.10139-7.96988-5.54518-1.32805,10.35647,12.38,20.387,16.94472,35.55051,4.88138C242.22186,236.93818,240.32253,235.69845,235.80612,238.75342Z" transform="translate(-17.01182 -17.01182)"/><path d="M295.56058,244.18278a19.8018,19.8018,0,0,0,23.2687,4.50041c4.75719-2.14179,13.14146-6.14185,6.45861-.78755-15.8389,12.69014-28.15737,8.1825-36.15261-7.85877C288.11549,237.99079,291.77322,240.16785,295.56058,244.18278Z" transform="translate(-17.01182 -17.01182)"/><path d="M252.59014,219.07551c-0.92451-2.16567,2.60368.59807,4.88059,4.01692,4.0842,6.13257,1.32691,15.08214-6.96573,22.0023C249.99227,245.52261,258.77155,233.5555,252.59014,219.07551Z" transform="translate(-17.01182 -17.01182)"/><path d="M284.60211,227.49542c3.6276-5.86727-3.0368-3.29649-5.22832,1.27323-3.30612,6.89388-4.87208,17.6649,3.462,23.07753C283.38559,252.20324,277.77129,238.54354,284.60211,227.49542Z" transform="translate(-17.01182 -17.01182)"/><path d="M288.175,231.81751c13.43357-7.41242,23.6648-6.50986,29.48192-1.72967,4.0799,3.35264,5.38321,5.2834,9.54178,9.0881,2.48948,2.27764,1.09691-1.98547-.16069-4.3196-7.77092-14.42292-24.24733-13.03267-27.87865-11.70857-8.53963,2.14106-12.91148,9.17214-10.98436,8.66974h0Z" transform="translate(-17.01182 -17.01182)"/><path d="M235.7853,215.2337c-7.7386-4.43478-13.73629-2.945-20.24658-1.2912-4.69566,1.44193-13.20316,8.72819-7.98348,6.176,10.06682-4.92213,23.04445-4.60068,28.897.84377,4.24677,3.95066,4.3911,5.26205,8.90543,9.36211C247.10485,233.76548,248.22977,221.86282,235.7853,215.2337Z" transform="translate(-17.01182 -17.01182)"/><path d="M345.17206,235.57176c-0.6322-.67758-1.22877-2.34465-1.928-2.31057-1.57031.07655-13.22147,5.61306-13.22147,5.61306l0.569,1.52856S345.79662,236.24115,345.17206,235.57176Z" transform="translate(-17.01182 -17.01182)"/><path d="M184.90961,214.68575c0.69659-.61119,1.45636-2.21049,2.14875-2.10687,1.55486,0.23269,12.59612,6.903,12.59612,6.903L198.936,220.9461S184.22144,215.28955,184.90961,214.68575Z" transform="translate(-17.01182 -17.01182)"/><path d="M344.67884,247.59511c-0.68557.62352-1.41668,2.23613-2.11081,2.14488-1.55876-.20491-12.7173-6.67713-12.7173-6.67713L330.543,241.586S345.35613,246.97912,344.67884,247.59511Z" transform="translate(-17.01182 -17.01182)"/><path d="M184.20192,226.69838c0.62,0.68875,1.18673,2.36621,1.8865,2.3446,1.57142-.04851,13.31953-5.37624,13.31953-5.37624l-0.54159-1.53847S183.5894,226.018,184.20192,226.69838Z" transform="translate(-17.01182 -17.01182)"/><path class="cls-2" d="M237.03632,354.32269a19.79733,19.79733,0,0,0,2.39642,7.74493c5.55188,7.14618,8.34381,7.15863,13.13538,6.16473a13.006,13.006,0,0,0,2.41266-1.26605,21.46,21.46,0,0,0,4.3678-5.46716C256.78156,358.92462,241.70538,354.11658,237.03632,354.32269Z" transform="translate(-17.01182 -17.01182)"/><path d="M275.75665,340.47485c-3.05365-3.76807-3.33588-21.05505-6.014-35.60547-1.79028-9.72614-5.83777-6.48175-8.85126-2.42694-1.20862,1.62653-3.68793.81635-5.06726-2.83295-2.32446-6.14941-7.556,1.504-10.06177,7.91858-5.60986,14.36237-13.04126,22.44147-17.22473,24.78613-1.80212,1.01007-3.00348,3.78967-1.19458,3.24146,4.75134-1.43958,6.71918-1.40826,5.45709,5.14581-0.75836,3.93878-.52606,14.19153,2.92474,26.0838,2.36139,8.13794,17.06012,16.28827,24.07739,3.61993,6.97577-12.59314,9.29883-19.85944,15.09644-25.54211a22.10466,22.10466,0,0,0,2.86884,1.36725C284.04944,348.83295,277.43115,342.54108,275.75665,340.47485Zm-20.77588,26.49146a13.006,13.006,0,0,1-2.41266,1.26605c-4.79156.9939-7.5835,0.98145-13.13538-6.16473a19.79733,19.79733,0,0,1-2.39642-7.74493c4.66907-.20612,19.74524,4.60193,22.31226,7.17645A21.46,21.46,0,0,1,254.98077,366.96631Zm1.83777-48.2215c-0.63373-.37476-1.05188-1.70532-1.40985-4.02271-0.7384,3.3064-.102,3.54517-0.89191,4.08691-3.66254.04016-7.17755-.19727-8.89764-0.91052a22.02319,22.02319,0,0,1,1.657-3.187c5.37109-7.9162,6.16614-4.81586,9.56079-4.54663,2.82458,0.22394,6.636-8.41852,7.82928-.06659,0.16266,1.17218.27332,4.109,0.47589,7.73755A50.43009,50.43009,0,0,1,256.81854,318.74481Z" transform="translate(-17.01182 -17.01182)"/><path d="M285.62794,324.39294c4.97962-14.84093,3.82145-31.67177,2.26481-42.16842a5.8528,5.8528,0,0,1-8.25962.71924,10.15292,10.15292,0,0,1-6.031,1.15035c-2.26535,9.7391-21.48942,9.10565-22.452-1.94539-3.21228.14164-5.85641-2.16688-6.025-2.06464-3.6094,2.192-7.08068.70791-8.35917-2.29071-3.88377,11.06427-9.33281,27.72973-12.0719,42.68856-0.495-11.19322-.96932-25.15791,6.50362-39.6983a105.78427,105.78427,0,0,1,5.45786-9.241c1.32185-3.87742,3.1781-5.50336,4.4968-6.14247l0.0205-.02887-0.00594.0205c0.63992-.30647,1.06321-0.29109.94774,0.11223-0.35476,1.23991-4.40163,5.15737-4.14573,8.89361-0.0205,4.48,6.03042,5.44445,7.22312,1.55934,0.99873-3.253,7.63049-3.91075,8.36349,1.9578,1.33164,10.66445,15.6608,12.41425,18.76058,1.62192,0.89513-3.11678,4.55229-4.80453,6.35658-1.98478,1.336,2.08757,1.817,3.22793,3.44969,3.66093,2.38163,0.63183,7.954-1.39736,2.3622-10.21192-0.39172-.61726.3217-0.34463,1.25245,0.78976,0,0,.88537,1.58637,1.14383,2.06739a20.20614,20.20614,0,0,1,1.67753,3.75443c1.57849,3.67469,3.51,9.11575,3.88875,12.06149C295.28821,311.7715,283.40386,331.02173,285.62794,324.39294Z" transform="translate(-17.01182 -17.01182)"/><path d="M337.744,345.88989c6.11725,2.6026,20.12561.51959,25.67828-1.42065a2.03074,2.03074,0,0,0,1.1698-3.007c-5.66791-9.52844-9.98627-33.30231-9.97894-33.24188,4.42737-1.11444,19.127-7.20587,21.06073-49.002-0.0426-.55334,17.05969.24005,26.87128-14.37854,0.39343-.58618.98578-2.35986,0.19049-2.98-0.65393-.50995-14.853-12.21149-16.45721-36.61768,72.45624,11.518,76.30115-41.494,73.58954-41.82123-35.54608-4.29059-108.23053-61.02771-127.69281-75.2428C287.10852,55.2619,213.68945,52.57166,171.88928,83.30164c-63.69855,46.82886-49.15656,118.23566-70.07806,139.71075a2.48269,2.48269,0,0,0-.82715,1.71637c0.0755,3.85516,7.99817,10.30133,14.67523,14.41626-0.17212,2.03741-1.96588,63.5119,17.99792,64.00855-1.53479,5.657-4.33185,12.37726-10.68762,20.3728-1.74329,2.19305-.07037,2.86987.87408,3.46619,10.17993,6.42767,18.54852,7.3291,24.505,8.15222,1.81805,6.77771,5.0506,18.75006,4.62921,18.869-34.222,9.66852-66.54834,16.54553-102.31989,24.2984A239.86214,239.86214,0,0,0,158.84108,474.429c0.37128,0.16534.7605,0.36119,1.13275,0.52464,0.4212,0.185.878,0.34385,1.30052,0.52653,10.24481-2.17279,11.69012-51.69251,15.91882-59.40076,0.90564,22.56018,13.98926,52.5329,17.74969,57.64819,1.39209,1.895,1.28851,2.54187,4.79913,1.81995,5.69781-1.17139,6.11218-12.18005,25.48627-35.51562,2.2243,3.502,4.4422,6.75342,6.17529,8.24481,5.21973,4.49158,4.98853,8.62164-2.43237,20.46368-5.94354,9.48444-8.04865,10.93152.77832,15.37244,8.82721,4.44086,30.48584,5.55151,38.54663-1.022l0.01855-.01691c5.6886-4.67743-2.15143-14.657-7.91052-23.70007-4.87384-7.65265-3.17584-7.8941,1.6535-13.5484a47.361,47.361,0,0,0,3.90643-5.75012c2.85242,4.661,20.31805,33.41913,23.27051,33.41913a8.66282,8.66282,0,0,0,.88062-0.07556c9.83838-1.05078,27.86133-51.14508,24.10193-67.26935,9.50513,13.68567,11.53284,57.85425,19.90765,75.76233a239.58735,239.58735,0,0,0,117.86353-89.14026c0.01843-.04333.03979-0.08777,0.058-0.131-34.28326-10.55817-117.13934-29.09363-120.38727-29.97852C333.23193,358.84833,336.009,350.93213,337.744,345.88989Zm19.07623-5.96674c-8.37482,1.991-17.82312.137-18.02356-.19617,2.864-9.77844,7.36475-28.08472,8.08563-31.21527a25.62628,25.62628,0,0,0,2.84644.15839C351.00562,319.43518,352.92889,330.0462,356.82025,339.92316Zm30.70593-106.16943c0.77185,1.53021,5.5451,10.167,7.85358,11.35211-8.55554,8.34729-42.0235,17.10956-43.27936-26.22137C359.41663,225.06921,372.64478,236.304,387.52618,233.75372Zm-6.15881-21.24689c-8.92627-1.31219-18.1601-2.66516-29.24054-8.496l2.68921-1.23016c1.37958-.65167,1.26135-3.01538-0.0777-3.36041L351.225,198.0061c-0.10065-1.4563-.18079-2.6908-0.18726-2.994,3.48016,0.92316,21.02838,6.77661,29.55884,9.19952,0.15759,2.88422.45648,5.64331,0.82745,8.32111C381.40509,212.52924,381.38623,212.50952,381.36737,212.50684Zm1.38745,7.46942a70.43036,70.43036,0,0,0,2.32635,8.108c-0.02374.00348-.04968-0.00946-0.07312-0.00513-8.07513,1.50183-23.64606-4.5094-32.36267-13.00995-0.21558-2.01959-.39771-6.14288-0.545-8.05212C358.34393,211.53644,367.711,217.75757,382.75482,219.97626ZM135.28241,149.013c16.15747-34.90991,39.895-59.767,61.24951-67.34491,58.028-20.59265,103.42169-8.91168,166.61572,42.92273,22.49091,18.44788,51.314,33.16418,55.66882,34.96631,7.3634,2.1178,5.70587,3.77533,2.5036,5.6673-8.09,4.77972-18.11176,7.74707-16.68817,9.84894,1.99774,2.949,26.1062-7.73517,28.29767-6.35388,1.69824,1.0705-10.83093,8.892-8.68347,10.31348,1.69934,1.12494,19.21973-7.63049,20.38226-6.61749,2.25262,1.963-5.28937,7.64508-4.18243,8.30872,1.29443,0.77588,11.20685-5.01227,9.31012-1.57227-12.70447,23.04156-54.37628,28.19489-99.62665,8.39722,15.35187-9.34418,19.5556-12.7771,21.07556-14.40955,5.59875-6.014-27.63245,10.68951-35.81885,11.55634-1.113.1178-2.52972,0.42438-4.22156,0.61212l-0.53821-1.535c-0.41626-1.19348-1.84436-2.04144-3.04309-.66693l-2.61688,2.713c-2.64117.15887-5.6217,0.27594-8.90979,0.33612l-3.90051-5.21808a1.86427,1.86427,0,0,0-3.18988.4942l-1.64594,4.74762a351.83559,351.83559,0,0,1-73.11505-8.66724l-4.09717-7.09393c-0.58087-.88153-1.78058-1.66388-2.96973-0.436l-4.78809,4.5097q-2.04849-.57184-4.09149-1.17841l-11.35706-10.63739-1.66315-1.5578a1.932,1.932,0,0,0-3.01666.28735,2.31157,2.31157,0,0,0-.19049,1.35077l0.68231,5.37134a181.47377,181.47377,0,0,1-28.53955-13.46588,131.11573,131.11573,0,0,1-20.31592-14.631c-4.44385-3.93365-5.053-2.5473-4.2785-1.25879,0.74213,1.23438,2.84064,7.82141,20.12543,22.8952,0.75421,0.65771,1.52655,1.32556,2.33978,2.01587-1.10016,8.06775-1.98743,12.44849-3.45508,19.02844a17.64207,17.64207,0,0,1-4.93817.49017c-11.24524-.12177-31.97424-5.653-36.329-6.85529-0.52332-.14447-0.81274-0.22711-0.81781-0.22943C126.50482,173.94324,132.64343,154.7146,135.28241,149.013Zm158.5415,44.07715,9.84589,7.47186c1.3938,0.98352,2.55383.45972,2.83166-.85681l4.79132-13.81714,6.87183,9.19415a1.51407,1.51407,0,0,0,2.77985.177l7.20856-7.4762,2.77118,7.9035a1.82914,1.82914,0,0,0,2.93524.76617l10.3855-9.16394-2.35254,9.19415a1.83236,1.83236,0,0,0,1.0921,2.1496l6.44025,2.5921-8.5769,3.92151a1.82475,1.82475,0,0,0-1.01007,1.20215l-1.0921,4.17188-8.87469-7.28192a1.70708,1.70708,0,0,0-2.58557.2655l-4.06073,5.03546-0.16516.20477-0.28833-.1546-8.595-4.6087c-1.06512-.62262-2.82062.02991-2.68054,1.4115l-0.88489,7.99847-9.0517-3.63879a1.82306,1.82306,0,0,0-1.81293.25684l-7.83447,6.14667-4.76544-8.08911,6.03882,0.84387a1.78857,1.78857,0,0,0,2.07623-1.99854ZM198.8717,184.919l-6.42291-6.53735,13.22791,1.66406a1.86292,1.86292,0,0,0,2.13879-2.141l-1.31653-10.364L219.634,179.84283a1.91567,1.91567,0,0,0,2.62012-.0022l5.74963-5.415,6.62366,11.46893a1.92194,1.92194,0,0,0,2.1.9043l6.58264-1.5647,3.72083,13.14807a1.9165,1.9165,0,0,0,1.7525,1.392l8.24884,0.38416-8.32654,11.28986-4.96613-9.22656a2.11779,2.11779,0,0,0-2.28345-.91077l-6.0517,1.98993-5.5899-11.34375a1.871,1.871,0,0,0-2.89423-.66046l-5.73444,4.48486-6.10571-8.31573a1.919,1.919,0,0,0-2.43018-.56116l-16.02069,8.3891,2.7-8.45166A1.9147,1.9147,0,0,0,198.8717,184.919Zm-73.26282-1.97046c0.014,0.01251.25366,0.07416,0.64954,0.16772,3.75616,0.88794,23.40173,5.02014,34.96948,4.91791a20.73919,20.73919,0,0,0,6.29523-.78748c-0.3526,1.41931-.71112,2.81891-1.08319,4.17188-3.08038,1.07855-5.96234,1.94073-8.671,2.63507-20.77747,5.32635-30.85986.29749-33.8136-.68506,0.0058-.03113.01044-0.06372,0.01624-0.09491C124.59351,189.9292,125.12537,186.47809,125.60889,182.94855Zm-3.13947,17.26056,0.076-.0423c5.85559,2.53644,20.34045,1.99017,31.58832-.3457a47.98058,47.98058,0,0,0,10.537-3.25183c-0.00867.028-.0224,0.05444-0.03131,0.08252,0.09955-.02911.18719-0.05316,0.28729-0.08252q-0.73,2.33414-1.50458,4.535a121.51692,121.51692,0,0,1-15.13184,7.54535c-18.00317,7.32635-26.53864,4.08319-29.63782,2.69824A62.60157,62.60157,0,0,0,122.46942,200.20911ZM110.55457,228.2536a15.38047,15.38047,0,0,1-2.95093-2.8183c3.15753-1.74792,3.95422-3.57971,6.14917-6.22491,0.46057,0.01154.97925,0.02557,1.55078,0.03845a88.34138,88.34138,0,0,0,27.86212-3.3783,60.14542,60.14542,0,0,0,18.00006-8.85345c-4.29437,10.79443-8.21216,17.82092-15.42664,23.76123-8.88977,7.31958-18.48572,6.1405-25.8352,3.04181A40.77124,40.77124,0,0,1,110.55457,228.2536Zm19.86963,95.32672c5.57635-8.13525,6.31232-14.269,7.75458-20.11865a17.11744,17.11744,0,0,0,4.08258-.80475c0.93536,9.70026,1.39374,17.46375,3.47778,26.15448C140.9187,327.97,138.37518,327.2569,130.42419,323.58032Zm94.6861,104.86218c-3.91,5.82043-21.10638,27.98682-26.92627,36.01892-9.49091-11.11279-17.85016-40.40125-12.08124-58.96588,0.04443-.14294.082-0.291,0.12805-0.43268,0.13446,0.14374.28937,0.295,0.44226,0.44556,6.40924,6.31091,28.66565,18.43536,37.96613,21.17511,0.44568,0.13129.87225,0.24872,1.25513,0.33521A3.40244,3.40244,0,0,1,225.11029,428.4425Zm64.60376,36.01892c-3.84143-2.78223-24.56628-34.6051-25.69641-36.91876,13.12219-1.07642,36.0827-13.9671,43.27185-22.4798C305.24725,426.22076,298.63623,453.995,289.71405,464.46143Zm15.17-72.5199a118.32868,118.32868,0,0,1-10.40222,10.00623c-9.96552,8.41162-23.06152,16.10553-39.10126,17.04932-24.90137,1.90363-51.94611-4.5838-69.3327-27.66119-42.4762-56.37915-35.3103-97.906-36.68939-98.56671-0.8996.37915-3.0769,2.59045-5.74884,3.79736a7.80142,7.80142,0,0,1-3.55945.78113c-21.3977-1.00037-18.64941-55.72467-17.65015-55.37341a46.13778,46.13778,0,0,0,9.43066,2.32825c27.48761,3.49713,34.57745-28.79492,48.59277-77.47473a198.6701,198.6701,0,0,0,19.28314,8.6095l-12.24127-1.54041a1.94753,1.94753,0,0,0-1.60358,3.2395l9.4704,9.64093L191.566,198.56781c-0.49145,1.2594.88275,3.35858,2.71075,2.27692l18.69043-9.78766,6.29993,8.579a1.89534,1.89534,0,0,0,2.72156.37341l5.43445-4.24744,5.28345,10.72217a1.90645,1.90645,0,0,0,2.3136.97119l6.10785-2.00934,5.63953,10.47614a1.84155,1.84155,0,0,0,3.22656.22882l8.67688-11.765,3.56689-4.8363a2.02486,2.02486,0,0,0-1.45251-3.04749l-10.44806-.48773-1.79-6.3269a244.55842,244.55842,0,0,0,41.716,4.52881l1.11743,10.74622-7.47614-1.04462a1.85908,1.85908,0,0,0-1.8302,2.73883l7.74377,13.15668a1.75839,1.75839,0,0,0,2.70642.51147l8.65027-6.78552,10.3078,4.14386c1.12091,0.682,2.35339-.40546,2.49927-1.49567l0.85034-7.70282,7.83447,4.2a1.82487,1.82487,0,0,0,2.28772-.464l3.553-4.40314,0.47-.58246,0.43884,0.36011,9.21716,7.56287a1.84665,1.84665,0,0,0,2.93091-.95178l1.59277-6.09277,0.553-.25305c1.4126,20.84088,6.67517,48.85791,26.13989,50.67761,0.9054,11.296-5.62573,44.18665-19.91876,44.35419-10.06012.11786-4.66583-20.09735-9.68457,7.80041C338.36932,321.1283,320.92639,374.63617,304.88409,391.94153Z" transform="translate(-17.01182 -17.01182)"/><path d="M245.52435,233.136c-6.4603-3.1984-7.66294-5.64866-9.73181-7.77117-7.15506-7.34027-17.15338-6.47392-22.63486-.90312a61.09063,61.09063,0,0,1,11.4788-.42705,3.73888,3.73888,0,0,0-1.27489,2.635c-0.11211,2.75076,2.78279,5.25016,6.33008,5.54939,2.66011,0.22448,4.87485-.87363,5.74786-2.57024C238.71324,231.447,242.9056,233.09268,245.52435,233.136Z" transform="translate(-17.01182 -17.01182)"/><path d="M174.93056,126.86172c-3.64663,2.19589,29.78638,31.68592,58.63665,35.93347,28.96447,4.26436,5.27978-1.76887-15.18278-8.73136C200.11464,147.84744,177.77591,125.14833,174.93056,126.86172Z" transform="translate(-17.01182 -17.01182)"/><path d="M193.70363,112.76362c-3.80634,2.72213,27.01562,39.49082,88.54151,46.38229,4.99255,0.55921,5.332-2.01936-12.01971-6.54735-36.087-9.417-46.40205-14.44092-66.64263-32.23221C199.521,116.79607,196.75593,110.58075,193.70363,112.76362Z" transform="translate(-17.01182 -17.01182)"/><path d="M322.37225,239.931c-4.38232-7.38861-13.99323-12.0741-22.25787-8.08777-2.37036,1.14337-3.9751,2.91711-10.656,3.33252a17.01735,17.01735,0,0,0,5.23566.88751,34.14449,34.14449,0,0,0,4.93817-.157,29.43617,29.43617,0,0,0,3.33075-.30115,4.49864,4.49864,0,0,0-.10162.56122A5.22055,5.22055,0,0,0,305.422,241.056a7.24639,7.24639,0,0,0,3.14325,1.12042c0.16833,0.01923.33478,0.02783,0.501,0.03583,3.27429,0.15717,6.09326-1.82532,6.41077-4.60577a4.50488,4.50488,0,0,0-.00024-0.98639c1.80591,0.77539,3.88641,1.78467,6.11029,2.91333C321.84967,239.66663,322.10559,239.79431,322.37225,239.931Z" transform="translate(-17.01182 -17.01182)"/></svg>