<?xml version="1.0" encoding="utf-8"?>
<!-- Generator: Adobe Illustrator 21.0.0, SVG Export Plug-In . SVG Version: 6.00 Build 0)  -->
<svg version="1.1" id="Layer_1" xmlns="http://www.w3.org/2000/svg" xmlns:xlink="http://www.w3.org/1999/xlink" x="0px" y="0px"
	 viewBox="0 0 720 720" style="enable-background:new 0 0 720 720;" xml:space="preserve">
<style type="text/css">
	.st0{fill:#FFFFFF;}
</style>
<g>
	<path d="M36.31941,364.90643C39.58776,173.24176,189.49965,52.19951,334.61383,42.05772
		c100.75836-7.04184,187.58606,25.22927,258.44678,96.95358c61.87634,62.63037,93.41455,139.5654,92.39838,227.35736
		c-2.2149,191.34058-156.24524,324.87329-325.61743,323.17712C169.53566,687.63995,36.77143,534.49719,36.31941,364.90643z
		 M211.51549,247.06219c4.05592-26.21928,19.89952-46.00064,36.33891-66.98959c-5.43619-1.68735-10.1859-3.16161-15.67352-4.86493
		c12.83664-9.96289,27.86203-11.40784,42.96515-14.4342c-6.14053-2.0668-12.28104-4.13361-18.93405-6.37292
		c13.13922-5.49069,25.81281-5.15433,38.96225,0.16544c2.67081-8.868,1.08646-17.49066,0.11191-26.08635
		c0.46002-0.23724,0.92004-0.47449,1.38007-0.71173c6.37708,6.94566,12.75412,13.89134,18.87689,20.56004
		c0-10.1823,0-20.56975,0-32.47263c6.52737,7.76353,12.29236,14.6203,18.25974,21.7178
		c6.64899-7.89708,9.00275-16.94069,10.2132-26.45026c0.52267-0.26146,1.04535-0.52292,1.56802-0.78438
		c6.03079,7.4716,12.06158,14.94319,18.31015,22.68459c12.31375-4.01479,20.92371-12.97222,26.54779-25.23402
		c0.55606,0.01331,1.11212,0.02663,1.66818,0.03995c2.61182,10.25771,5.22363,20.51543,8.02203,31.50594
		c9.63486-7.69228,13.68259-18.88457,18.48849-29.56779c0.55432,0.08039,1.10864,0.16078,1.66296,0.24117
		c-0.64215,10.4107-1.28433,20.8214-1.92685,31.23774c3.66666-4.21353,7.37207-8.8663,11.5014-13.10625
		c4.16153-4.27296,8.74405-8.13591,13.14209-12.17851c-5.65128,17.05806-12.47736,33.16591-13.5491,52.28113
		c15.83603-8.47365,21.09564-22.77837,26.48462-37.3643c5.84448,13.32407,3.76727,26.24753-7.24677,45.52921
		c11.23972-4.49121,15.57565-14.73077,22.09683-23.89294c2.92447,11.46384-1.95914,20.7058-5.09998,30.83812
		c14.44983-14.3575,13.57111-36.98407-7.34479-58.01554c-3.62021,1.11252-7.45422,1.95179-9.24576-2.62679
		c-1.28036-3.27227-1.78787-6.84694-2.59894-10.1201c-5.65326,1.9561-11.32587,3.91889-16.47061,5.69904
		c-2.25867-5.89283-4.16254-10.86002-6.07782-15.85696c-4.03964,2.09173-6.8389,3.90567-9.89203,5.03082
		c-3.9082,1.44025-7.45874,1.64712-10.06097-3.05397c-2.13126-3.85033-5.41489-7.06279-8.55389-11.01965
		c-14.17499,18.59818-26.57764,8.46862-39.10272,0.51161c-0.18289,1.40026-0.30542,2.0274-0.34116,2.65946
		c-0.4111,7.27338-2.32138,8.91403-9.20621,7.40739c-4.3688-0.95604-8.69916-2.15866-12.95496-3.53461
		c-2.73547-0.8844-4.05923-0.68791-5.06335,2.48904c-1.34677,4.26099-4.30182,7.05331-9.11798,8.2179
		c-9.15778,2.21442-18.14883,5.11446-27.22089,7.68842c-6.39157,1.81345-12.80255,3.55857-20.12366,5.589
		c3.45706,2.14816,5.92932,3.68441,8.67087,5.38796c-18.81314,14.17239-37.31947,28.11366-56.26619,42.38669
		c5.62921,4.94731,4.60675,9.4335,2.10963,14.32219c-6.05934,11.86266-12.05843,23.76419-17.707,35.82559
		c-3.57376,7.63098-7.55287,15.37804-6.05795,24.26505c3.18311,18.92281,7.9171,37.37355,17.43582,54.27623
		c0.72351,1.28479,1.90453,2.67892,1.8499,3.97922c-0.67804,16.1405,4.16853,31.30469,13.54031,43.47833
		c10.56062,13.71786,12.6544,28.08755,11.40506,44.13126c-0.3741,4.80402-0.03104,9.66223-0.06418,14.4953
		c-0.01112,1.62177-0.17012,3.24255-0.25037,4.66577c-4.98079,0.98483-9.47504,1.87347-14.07556,2.78314
		c1.82257,15.49353-10.39763,25.10571-14.25064,38.44043c10.45625,5.91565,21.14467,11.96262,32.97418,18.65518
		c-5.62132-14.92703-10.71669-28.45749-15.81207-41.98795c0.35664-0.30701,0.71329-0.61404,1.06993-0.92108
		c15.38145,9.09131,30.76291,18.18265,45.7009,27.01184c-7.69513-21.81662-24.19177-32.53635-48.04921-33.81946
		c1.18774-1.57278,2.28403-2.7934,3.50075-2.92834c5.44771-0.60434,10.92412-1.11029,16.40068-1.25583
		c7.87547-0.20929,13.49666,3.48816,17.53371,10.27753c13.18027,22.16611,26.54193,44.22446,39.86392,66.30609
		c0.94806,1.57144,2.13998,2.99579,3.96832,5.52631c1.29074-5.94348,2.30154-10.1347-0.76172-14.58597
		c-3.95273-5.74371-7.34369-11.87952-10.8808-17.90271c-11.21576-19.09857-19.88608-40.10278-39.62634-53.0477
		c2.76819,0.69888,5.43723,1.58987,7.63211,3.14856c4.74756,3.37158,9.33899,6.97964,13.84064,10.67798
		c16.85132,13.84409,33.03668,28.60815,52.56665,38.77948c4.95346,2.5798,10.33401,4.33954,15.51831,6.4761
		c0.31665-0.49219,0.6333-0.98438,0.94995-1.47656c-3.43073-3.99594-6.22055-8.9043-10.39734-11.8381
		c-25.05869-17.60162-47.77167-37.84595-68.92294-59.88986c-4.87155-5.07706-9.11539-10.75641-13.6481-16.15863
		c0.32828-0.30893,0.65656-0.61786,0.9848-0.92679c20.25848,19.98331,41.82642,38.34073,65.94965,53.65546
		c-2.33606-3.86606-4.95779-7.46252-8.16522-10.42484c-16.29568-15.05017-32.16528-30.48782-45.60699-48.22318
		c-1.43771-1.89691-2.4892-4.08655-4.10052-6.77563c11.1102,10.31744,21.53406,19.99753,31.95792,29.67761
		c0.29648-0.30368,0.59296-0.60739,0.88943-0.91107c-5.48428-7.99411-10.96857-15.98819-16.97955-24.75
		c12.35764,0,23.50833,0.28745,34.63275-0.12827c5.11554-0.19119,7.86005,0.90955,7.87146,6.47128
		c0.0036,1.74277,0.88962,3.53021,1.57004,5.21719c3.35333,8.31406,7.47437,9.22208,14.1026,3.17017
		c9.45621-8.63412,11.07562-8.7179,21.2793-1.08856c0.66693,0.49866,1.31049,1.02847,1.97028,1.53683
		c12.2999,9.47754,25.99722,12.67874,41.30197,9.7117c7.43692-1.44177,14.99274-2.71844,22.53711-3.02457
		c6.74106-0.2735,10.98239,4.66422,12.47284,12.57196c1.24899,6.62662,0.35229,7.93283-6.88831,11.66953
		c-9.31317,4.80627-18.72995,9.46817-27.70114,14.85947c-5.41888,3.25656-10.11383,7.81015-11.03268,14.71115
		c-1.37799,10.34964,1.37701,21.22134-4.54959,30.70914c5.24377,2.01038,10.16681,3.19083,14.36465,5.62296
		c25.34528,14.68463,50.52866,29.64877,75.75674,44.53543c6.94785,4.09985,13.86334,8.25458,21.05533,12.53998
		c-10.23724,14.85797-20.07214,29.08325-29.8541,43.34485c-7.59671,11.07556-6.94513,10.74628-0.40851,22.38678
		c4.49637,8.00714,11.2598,8.85114,19.54779,9.9278c-6.80707-7.85687-13.0665-15.08167-19.49048-22.49634
		c15.81552-17.0459,31.29053-33.72479,47.22958-50.90381c-8.30054-4.70319-16.05533-9.12494-23.83594-13.50079
		c-29.14554-16.39136-58.31262-32.74445-87.41315-49.21521c-1.52353-0.8623-3.60397-2.70932-3.56439-4.0426
		c0.24146-8.1312,0.90613-16.25702,1.65112-24.36426c0.94943-10.33185,6.5827-16.70209,16.71335-19.09781
		c1.44693-0.34216,2.83228-0.95053,4.23932-1.45462c17.28241-6.19211,28.88089-17.48813,32.08215-36.12576
		c0.4053-2.35974,0.49155-5.16162-0.39661-7.29047c-4.28391-10.26782-8.81046-20.44196-13.5477-30.50967
		c-2.15616-4.58231-6.05334-7.36902-11.16452-8.33301c-9.51218-1.79398-18.92523-1.258-28.02615,1.8653
		c-9.39404,3.22388-18.5752,7.06409-27.92084,10.43698c-1.44724,0.52234-3.27594-0.01242-5.97952-0.08759
		c1.36636-1.77493,1.5813-2.32132,1.97415-2.5257c12.53442-6.52127,25.05893-13.0632,37.67569-19.42191
		c1.30786-0.65915,3.19495-0.3718,4.78687-0.22903c6.53427,0.58606,13.05835,1.28607,20.42676,2.0289
		c-1.10657-2.45068-1.7872-3.9086-2.42752-5.38403c-5.32013-12.25854-13.58752-19.87842-28.02878-18.48804
		c-3.52142,0.33899-7.14981-0.43289-12.35913-0.81293c1.62833-3.27777,2.20148-6.88379,4.08719-7.80606
		c8.48593-4.15009,17.17865-8.03778,26.1322-11.00946c5.1532-1.7103,10.94598-1.49365,17.27808-2.24219
		c0,5.18265-0.77377,9.19714,0.20459,12.72583c1.11166,4.00952,0.46786,7.54605-2.37512,9.44763
		c-5.74078,3.83975-4.34836,8.28879-2.52457,13.18723c1.09808,2.9494,1.7243,6.15747,3.2691,8.8428
		c5.62134,9.77164,11.53271,19.37665,17.36072,29.02881c0.51608,0.85471,1.22089,1.59546,1.16183,1.5195
		c2.66357-10.63483,4.29633-21.95599,8.40378-32.29395c4.74615-11.94553,2.88852-23.37759,1.6041-35.31488
		c-7.2099,2.54242-7.68668,3.71069-5.19168,12.9653c-4.37726-1.61905-8.43637-2.87006-12.23669-4.66797
		c-1.25418-0.59335-2.69681-2.66748-2.59406-3.94739c0.70987-8.84152-3.17117-15.00067-10.39212-19.56372
		c-4.39902-2.77979-7.099-6.71475-8.41956-11.88004c-0.88739-3.47116-2.36649-6.97156-4.35541-9.93988
		c-3.28412-4.90137-7.56134-4.29138-11.00513,0.36816c-6.20905,8.40094-12.65112,16.65091-19.3916,24.62958
		c-3.88968,4.60416-9.42123,6.36221-15.40121,5.29138c-11.61847-2.08051-23.22296-4.27399-34.76132-6.75528
		c-8.90173-1.91431-17.58868-5.31567-26.56198-6.27988c-10.21295-1.09741-20.63849-0.271-30.97031-0.15897
		c-1.88943,0.02051-3.77255,0.62405-5.55588,0.94028c0.46341,7.94513,0.89218,15.29715,1.36835,23.46121
		c-3.91641-2.38348-7.11609-4.40945-10.38943-6.30832c-10.48187-6.08044-21.05864-12.00299-31.39888-18.31403
		c-1.21141-0.73938-1.78154-3.57828-1.61044-5.34317c0.58299-6.01355,1.63065-11.98206,2.50095-17.96774
		c-0.47194-0.31262-0.94386-0.62524-1.4158-0.93787c-7.34349,8.7558-14.68697,17.5116-22.65181,27.00827
		c3.09142-19.16916,13.74789-33.85245,22.82494-49.27493c-12.66389,8.81387-23.1776,19.49982-31.15277,32.70581
		c4.54289-21.0374,16.17572-38.45956,28.57504-56.63225C227.15953,222.40994,219.02002,234.34657,211.51549,247.06219z
		 M470.19769,250.17741c0.44275-0.20749,0.8855-0.41498,1.32822-0.62247c-0.93439-3.81018-1.80539-7.63725-2.8154-11.42728
		c-2.78232-10.4407-6.27747-20.74632-8.21225-31.33888c-1.30994-7.17171-5.10312-12.6031-8.91324-18.19688
		c-1.42371-2.09023-3.79044-3.8671-6.11661-4.95122c-6.62143-3.08589-13.28641-6.22513-20.21652-8.4734
		c-18.62924-6.04366-37.98624-7.87761-57.41159-9.49438c-16.92639-1.4088-33.50528-2.10336-48.48538,7.92104
		c-1.64182,1.09868-3.51172,2.04323-5.41156,2.53889c-11.20038,2.92215-15.18042,10.28662-16.09421,21.58728
		c-0.91968,11.37357-0.74579,21.06418,11.77112,26.25171c-7.89987,13.17996-15.54034,25.92709-23.18079,38.67421
		c8.82901-3.2186,16.87708-7.41322,25.07175-11.29878c12.42474-5.89125,24.51968-12.9534,37.5365-17.00896
		c19.29657-6.01207,39.17593-5.91237,58.68817,1.40996c1.82471-5.09459,3.59741-10.04393,5.51636-15.40154
		c0.79648,0.86063,1.00031,0.97858,0.99911,1.09441c-0.04156,3.97699-0.07861,7.9543-0.1658,11.9305
		c-0.1658,7.56479-0.17593,7.5497,7.18851,8.76175c2.44977,0.40317,4.99423,0.59631,7.30063,1.42651
		c4.26663,1.53578,6.28336-0.30708,7.1897-4.16878c0.86346-3.67892,1.5907-7.38982,2.37781-11.08665
		c0.43967,0.03787,0.87933,0.07573,1.319,0.1136c0.27789,4.55434,0.55582,9.10869,0.84824,13.90038
		C451.26038,241.55949,461.13525,244.3177,470.19769,250.17741z M309.7793,605.84161
		c0.02829-0.19666,0.05661-0.39331,0.0849-0.59003c-18.31094-3.45764-36.60678-6.99939-54.9473-10.29236
		c-3.15613-0.56665-5.04109-1.60547-6.05612-4.81335c-1.74965-5.52954-3.9366-10.92175-5.97478-16.35864
		c-11.77225-31.40222-23.54778-62.80325-35.34276-94.19699c-1.41731-3.77231-3.63319-6.10257-8.25891-5.98206
		c-9.63528,0.25104-19.28401,0.02591-28.92676-0.05646c-25.31673-0.21625-50.63321-0.46185-75.94981-0.6922
		c-1.73163-0.01575-3.46352-0.00201-5.91441-0.00201c1.25226,2.93878,2.45549,4.97711,2.9882,7.17776
		c1.0759,4.44452,3.72425,5.53439,8.00479,5.04602c7.92496-0.90421,15.89648-1.39838,23.84742-2.07721
		c14.07673-1.20184,28.15122-2.42981,42.22915-3.61728c12.52072-1.05612,25.04482-2.07214,37.58348-3.10721
		c0.37074,0.9827,0.63759,1.58551,0.82872,2.21152c12.0153,39.35178,24.05478,78.69638,35.97646,118.07657
		c0.95071,3.1405,2.24922,4.35693,5.76584,4.53564c11.28482,0.57385,22.5365,1.77411,33.80847,2.63428
		C289.60516,604.50665,299.69443,605.14539,309.7793,605.84161z M415.82083,508.46591
		c-11.01178-3.66293-21.62604-7.19363-32.96832-10.96652c8.27182,8.88919,16.14426,17.2262,23.82547,25.73584
		c1.15631,1.28101,2.34363,3.64856,1.9245,5.03064c-1.3204,4.35425-3.39877,8.47876-5.88727,14.35272
		c-4.77542-5.21222-8.74478-9.10663-12.18576-13.4223c-3.51862-4.41321-6.58447-9.19568-9.7276-13.89734
		c-3.00418-4.49387-5.85263-9.09174-8.76956-13.64389c8.78763,33.34647,23.06808,64.08975,40.9848,93.28696
		C413.95367,566.05463,414.89026,537.1673,415.82083,508.46591z M469.49545,301.43924
		c7.77542-3.40753,13.3989-14.79602,11.56656-23.45886c-2.55612,3.85544-4.76318,7.81424-7.58621,11.26981
		C470.50085,292.89157,467.13971,296.11758,469.49545,301.43924z"/>
	<path class="st0" d="M211.51549,247.06219c7.50453-12.71562,15.64404-24.65225,30.55331-31.56279
		c-12.39932,18.17268-24.03215,35.59485-28.57504,56.63225c7.97517-13.20599,18.48888-23.89194,31.15277-32.70581
		c-9.07704,15.42249-19.73352,30.10577-22.82494,49.27493c7.96484-9.49667,15.30832-18.25247,22.65181-27.00827
		c0.47194,0.31262,0.94386,0.62524,1.4158,0.93787c-0.8703,5.98569-1.91795,11.95419-2.50095,17.96774
		c-0.1711,1.76489,0.39903,4.60379,1.61044,5.34317c10.34024,6.31104,20.91701,12.23358,31.39888,18.31403
		c3.27335,1.89886,6.47302,3.92484,10.38943,6.30832c-0.47617-8.16406-0.90494-15.51608-1.36835-23.46121
		c1.78333-0.31622,3.66644-0.91977,5.55588-0.94028c10.33182-0.11203,20.75735-0.93845,30.97031,0.15897
		c8.9733,0.9642,17.66025,4.36557,26.56198,6.27988c11.53836,2.48129,23.14285,4.67477,34.76132,6.75528
		c5.97998,1.07083,11.51154-0.68723,15.40121-5.29138c6.74048-7.97867,13.18256-16.22864,19.3916-24.62958
		c3.44379-4.65955,7.72101-5.26953,11.00513-0.36816c1.98892,2.96832,3.46802,6.46872,4.35541,9.93988
		c1.32056,5.16528,4.02054,9.10025,8.41956,11.88004c7.22095,4.56305,11.10199,10.7222,10.39212,19.56372
		c-0.10275,1.27991,1.33987,3.35403,2.59406,3.94739c3.80032,1.79791,7.85944,3.04892,12.23669,4.66797
		c-2.495-9.25461-2.01822-10.42288,5.19168-12.9653c1.28442,11.93729,3.14206,23.36935-1.6041,35.31488
		c-4.10745,10.33795-5.7402,21.65912-8.40378,32.29395c0.05905,0.07596-0.64575-0.66479-1.16183-1.5195
		c-5.828-9.65216-11.73938-19.25717-17.36072-29.02881c-1.5448-2.68533-2.17102-5.8934-3.2691-8.8428
		c-1.82379-4.89844-3.21622-9.34747,2.52457-13.18723c2.84299-1.90158,3.48679-5.43811,2.37512-9.44763
		c-0.97836-3.52869-0.20459-7.54318-0.20459-12.72583c-6.33209,0.74854-12.12488,0.53189-17.27808,2.24219
		c-8.95355,2.97168-17.64627,6.85938-26.1322,11.00946c-1.88571,0.92227-2.45886,4.52829-4.08719,7.80606
		c5.20932,0.38004,8.83771,1.15192,12.35913,0.81293c14.44125-1.39038,22.70865,6.22949,28.02878,18.48804
		c0.64032,1.47543,1.32095,2.93335,2.42752,5.38403c-7.36841-0.74283-13.89249-1.44284-20.42676-2.0289
		c-1.59192-0.14276-3.479-0.43011-4.78687,0.22903c-12.61676,6.3587-25.14127,12.90063-37.67569,19.42191
		c-0.39285,0.20438-0.60779,0.75076-1.97415,2.5257c2.70358,0.07516,4.53229,0.60992,5.97952,0.08759
		c9.34564-3.37289,18.52679-7.2131,27.92084-10.43698c9.10092-3.12329,18.51398-3.65927,28.02615-1.8653
		c5.11118,0.96399,9.00836,3.7507,11.16452,8.33301c4.73724,10.06772,9.26379,20.24185,13.5477,30.50967
		c0.88815,2.12885,0.80191,4.93073,0.39661,7.29047c-3.20126,18.63763-14.79974,29.93365-32.08215,36.12576
		c-1.40704,0.50409-2.79239,1.11246-4.23932,1.45462c-10.13065,2.39572-15.76392,8.76596-16.71335,19.09781
		c-0.745,8.10724-1.40967,16.23306-1.65112,24.36426c-0.03958,1.33328,2.04086,3.1803,3.56439,4.0426
		c29.10052,16.47076,58.26761,32.82385,87.41315,49.21521c7.78061,4.37585,15.5354,8.79761,23.83594,13.50079
		c-15.93906,17.17902-31.41406,33.85791-47.22958,50.90381c6.42398,7.41467,12.68341,14.63947,19.49048,22.49634
		c-8.28799-1.07666-15.05142-1.92065-19.54779-9.9278c-6.53662-11.6405-7.1882-11.31122,0.40851-22.38678
		c9.78195-14.2616,19.61685-28.48688,29.8541-43.34485c-7.19199-4.2854-14.10748-8.44012-21.05533-12.53998
		c-25.22809-14.88666-50.41147-29.8508-75.75674-44.53543c-4.19785-2.43213-9.12088-3.61258-14.36465-5.62296
		c5.92661-9.48779,3.1716-20.3595,4.54959-30.70914c0.91885-6.901,5.6138-11.45459,11.03268-14.71115
		c8.97119-5.3913,18.38797-10.05319,27.70114-14.85947c7.2406-3.73669,8.1373-5.04291,6.88831-11.66953
		c-1.49045-7.90775-5.73178-12.84546-12.47284-12.57196c-7.54437,0.30612-15.10019,1.58279-22.53711,3.02457
		c-15.30475,2.96704-29.00208-0.23416-41.30197-9.7117c-0.65979-0.50836-1.30334-1.03818-1.97028-1.53683
		c-10.20367-7.62933-11.82309-7.54556-21.2793,1.08856c-6.62823,6.05191-10.74927,5.14389-14.1026-3.17017
		c-0.68042-1.68698-1.56644-3.47443-1.57004-5.21719c-0.01141-5.56174-2.75592-6.66248-7.87146-6.47128
		c-11.12442,0.41571-22.27512,0.12827-34.63275,0.12827c6.01099,8.76181,11.49527,16.75589,16.97955,24.75
		c-0.29648,0.30368-0.59296,0.60739-0.88943,0.91107c-10.42386-9.68008-20.84772-19.36017-31.95792-29.67761
		c1.61133,2.68909,2.66281,4.87872,4.10052,6.77563c13.44171,17.73535,29.31131,33.173,45.60699,48.22318
		c3.20743,2.96231,5.82916,6.55878,8.16522,10.42484c-24.12323-15.31473-45.69116-33.67215-65.94965-53.65546
		c-0.32825,0.30893-0.65652,0.61786-0.9848,0.92679c4.53271,5.40222,8.77655,11.08157,13.6481,16.15863
		c21.15128,22.04391,43.86426,42.28824,68.92294,59.88986c4.17679,2.93381,6.96661,7.84216,10.39734,11.8381
		c-0.31665,0.49219-0.6333,0.98438-0.94995,1.47656c-5.1843-2.13657-10.56485-3.8963-15.51831-6.4761
		c-19.52997-10.17133-35.71533-24.93539-52.56665-38.77948c-4.50165-3.69833-9.09308-7.3064-13.84064-10.67798
		c-2.19489-1.55869-4.86392-2.44968-7.63211-3.14856c19.74026,12.94492,28.41058,33.94913,39.62634,53.0477
		c3.53711,6.02319,6.92807,12.159,10.8808,17.90271c3.06326,4.45126,2.05246,8.64249,0.76172,14.58597
		c-1.82834-2.53052-3.02026-3.95486-3.96832-5.52631c-13.32199-22.08163-26.68365-44.13998-39.86392-66.30609
		c-4.03705-6.78937-9.65823-10.48682-17.53371-10.27753c-5.47656,0.14554-10.95297,0.65149-16.40068,1.25583
		c-1.21672,0.13495-2.313,1.35556-3.50075,2.92834c23.85744,1.28311,40.35408,12.00284,48.04921,33.81946
		c-14.93799-8.82919-30.31944-17.92053-45.7009-27.01184c-0.35664,0.30704-0.71329,0.61407-1.06993,0.92108
		c5.09538,13.53046,10.19075,27.06091,15.81207,41.98795c-11.82951-6.69257-22.51793-12.73953-32.97418-18.65518
		c3.85301-13.33472,16.07321-22.9469,14.25064-38.44043c4.60052-0.90967,9.09477-1.79831,14.07556-2.78314
		c0.08025-1.42322,0.23924-3.04401,0.25037-4.66577c0.03314-4.83307-0.30992-9.69128,0.06418-14.4953
		c1.24934-16.0437-0.84444-30.41339-11.40506-44.13126c-9.37178-12.17365-14.21835-27.33783-13.54031-43.47833
		c0.05463-1.30029-1.12639-2.69443-1.8499-3.97922c-9.51872-16.90268-14.25272-35.35342-17.43582-54.27623
		c-1.49492-8.88701,2.48419-16.63406,6.05795-24.26505c5.64857-12.0614,11.64766-23.96294,17.707-35.82559
		c2.49712-4.88869,3.51958-9.37488-2.10963-14.32219c18.94672-14.27303,37.45305-28.21429,56.26619-42.38669
		c-2.74155-1.70355-5.21381-3.2398-8.67087-5.38796c7.32111-2.03043,13.73209-3.77555,20.12366-5.589
		c9.07205-2.57396,18.06311-5.474,27.22089-7.68842c4.81616-1.16458,7.77121-3.95691,9.11798-8.2179
		c1.00412-3.17696,2.32788-3.37344,5.06335-2.48904c4.2558,1.37595,8.58615,2.57857,12.95496,3.53461
		c6.88483,1.50665,8.7951-0.13401,9.20621-7.40739c0.03574-0.63206,0.15826-1.2592,0.34116-2.65946
		c12.52509,7.95701,24.92773,18.08656,39.10272-0.51161c3.13901,3.95686,6.42264,7.16932,8.55389,11.01965
		c2.60223,4.70109,6.15277,4.49422,10.06097,3.05397c3.05313-1.12515,5.85239-2.93909,9.89203-5.03082
		c1.91528,4.99694,3.81915,9.96413,6.07782,15.85696c5.14474-1.78015,10.81735-3.74294,16.47061-5.69904
		c0.81107,3.27316,1.31857,6.84783,2.59894,10.1201c1.79153,4.57858,5.62555,3.73931,9.24576,2.62679
		c20.91589,21.03147,21.79462,43.65804,7.34479,58.01554c3.14084-10.13232,8.02444-19.37428,5.09998-30.83812
		c-6.52118,9.16217-10.85712,19.40173-22.09683,23.89294c11.01404-19.28168,13.09125-32.20514,7.24677-45.52921
		c-5.38898,14.58594-10.64859,28.89066-26.48462,37.3643c1.07175-19.11522,7.89783-35.22307,13.5491-52.28113
		c-4.39804,4.0426-8.98056,7.90556-13.14209,12.17851c-4.12933,4.23994-7.83475,8.89272-11.5014,13.10625
		c0.64252-10.41634,1.2847-20.82704,1.92685-31.23774c-0.55432-0.08039-1.10864-0.16078-1.66296-0.24117
		c-4.80591,10.68323-8.85364,21.87552-18.48849,29.56779c-2.7984-10.99051-5.41022-21.24822-8.02203-31.50594
		c-0.55606-0.01332-1.11212-0.02663-1.66818-0.03995c-5.62408,12.2618-14.23404,21.21924-26.54779,25.23402
		c-6.24857-7.7414-12.27936-15.213-18.31015-22.68459c-0.52267,0.26146-1.04535,0.52292-1.56802,0.78438
		c-1.21045,9.50957-3.56421,18.55318-10.2132,26.45026c-5.96738-7.0975-11.73236-13.95427-18.25974-21.7178
		c0,11.90288,0,22.29033,0,32.47263c-6.12277-6.6687-12.49982-13.61438-18.87689-20.56004
		c-0.46002,0.23724-0.92004,0.47449-1.38007,0.71173c0.97455,8.59569,2.5589,17.21835-0.11191,26.08635
		c-13.14944-5.31976-25.82303-5.65613-38.96225-0.16544c6.65302,2.23932,12.79352,4.30612,18.93405,6.37292
		c-15.10312,3.02637-30.12851,4.47131-42.96515,14.4342c5.48763,1.70332,10.23734,3.17758,15.67352,4.86493
		C231.41501,201.06155,215.57141,220.84291,211.51549,247.06219z M256.97641,314.97745
		c-1.39212-2.35538-2.38625-4.47427-3.77185-6.29532c-3.40544-4.47565-6.61412-9.2009-10.61171-13.09763
		c-3.88802-3.78992-8.0415-3.3746-10.74521,0.60828c-5.08479,7.4906-6.76509,15.88187-5.86969,25.51086
		c5.32304-2.9212,8.79913-6.23697,10.10146-11.71793c0.44168-1.85883,1.73869-4.18896,3.30214-4.94574
		c2.24283-1.08557,7.24217,3.40509,7.75751,6.4061c0.69073,4.02258-0.10742,6.92596-5.04016,6.99945
		c-1.62749,0.02426-3.24797,0.51978-4.97211,0.81714c-1.34962,4.61359-0.17981,8.60376,2.50961,12.21603
		c2.01292,2.70358,3.74725,3.44293,6.70668,0.35059c1.76752-1.84689,5.40218-1.90689,8.19753-2.77014
		c0.20174,2.30377,0.40346,4.60757,0.64986,7.42157c5.54117,2.94366,9.88239,2.48526,14.5228-2.21973
		c-1.5498-2.27847-2.90347-4.80673-4.75757-6.88956c-4.81097-5.40472-5.92432-10.75711-0.5863-16.44946
		c0.05505-0.05869-0.2373-0.44318-0.48529-0.88599C261.71646,311.58661,259.56915,313.12271,256.97641,314.97745z
		 M401.88959,382.62164c0.67966,0.42123,0.84906,0.6098,0.95508,0.57916c1.27414-0.36829,2.54181-0.75998,3.80569-1.16272
		c9.64673-3.07373,19.55759-4.91849,29.48392-2.46713c5.55493,1.37183,7.64984-0.77112,9.11487-5.26871
		c0.40945-1.25702,0.96729-2.46558,1.37946-3.72183c1.08508-3.30707,0.02499-5.96368-3.41638-6.36829
		c-8.20993-0.96527-16.4707-1.7171-24.72693-1.92825c-2.29932-0.05878-5.54999,1.46008-6.81503,3.31293
		C407.9837,370.99619,405.08084,376.93066,401.88959,382.62164z M247.07986,354.95499
		c2.95215,8.06821,13.41855,12.45822,21.18185,9.34857c6.29724-2.5224,8.81677-8.97653,5.88904-15.08569
		C266.63483,359.92828,263.62756,360.59949,247.07986,354.95499z M232.55078,327.27283
		c-0.83284,7.66977,5.77055,18.35663,11.8549,20.05371c1.44513,0.40305,3.77606-0.17169,4.83191-1.19333
		c1.04263-1.00888,0.98671-3.15308,1.48875-5.09299C239.60052,342.75528,237.09471,334.49509,232.55078,327.27283z"/>
	<path class="st0" d="M470.19769,250.17741c-9.06244-5.85971-18.93732-8.61792-29.88824-7.85899
		c-0.29242-4.79169-0.57034-9.34604-0.84824-13.90038c-0.43967-0.03787-0.87933-0.07573-1.319-0.1136
		c-0.78711,3.69684-1.51434,7.40773-2.37781,11.08665c-0.90634,3.86169-2.92307,5.70456-7.1897,4.16878
		c-2.3064-0.8302-4.85086-1.02335-7.30063-1.42651c-7.36444-1.21205-7.35431-1.19696-7.18851-8.76175
		c0.08719-3.9762,0.12424-7.95351,0.1658-11.9305c0.00119-0.11583-0.20264-0.23378-0.99911-1.09441
		c-1.91895,5.3576-3.69165,10.30695-5.51636,15.40154c-19.51224-7.32233-39.3916-7.42203-58.68817-1.40996
		c-13.01682,4.05556-25.11176,11.11771-37.5365,17.00896c-8.19467,3.88556-16.24274,8.08018-25.07175,11.29878
		c7.64044-12.74712,15.28091-25.49425,23.18079-38.67421c-12.51691-5.18753-12.6908-14.87814-11.77112-26.25171
		c0.91379-11.30066,4.89383-18.66513,16.09421-21.58728c1.89984-0.49567,3.76974-1.44022,5.41156-2.53889
		c14.9801-10.0244,31.55899-9.32983,48.48538-7.92104c19.42535,1.61678,38.78235,3.45073,57.41159,9.49438
		c6.93011,2.24828,13.59509,5.38751,20.21652,8.4734c2.32617,1.08412,4.6929,2.86099,6.11661,4.95122
		c3.81012,5.59378,7.6033,11.02518,8.91324,18.19688c1.93478,10.59256,5.42993,20.89818,8.21225,31.33888
		c1.01001,3.79002,1.88101,7.6171,2.8154,11.42728C471.08319,249.76244,470.64044,249.96992,470.19769,250.17741z"/>
	<path class="st0" d="M309.7793,605.84161c-10.08487-0.69623-20.17413-1.33496-30.25342-2.104
		c-11.27197-0.86017-22.52365-2.06042-33.80847-2.63428c-3.51662-0.17871-4.81512-1.39514-5.76584-4.53564
		c-11.92168-39.38019-23.96115-78.72479-35.97646-118.07657c-0.19113-0.62601-0.45798-1.22882-0.82872-2.21152
		c-12.53867,1.03506-25.06276,2.05109-37.58348,3.10721c-14.07793,1.18747-28.15242,2.41544-42.22915,3.61728
		c-7.95094,0.67883-15.92246,1.173-23.84742,2.07721c-4.28054,0.48837-6.92889-0.6015-8.00479-5.04602
		c-0.53271-2.20065-1.73595-4.23898-2.9882-7.17776c2.4509,0,4.18279-0.01373,5.91441,0.00201
		c25.3166,0.23035,50.63309,0.47595,75.94981,0.6922c9.64275,0.08237,19.29147,0.3075,28.92676,0.05646
		c4.62572-0.12051,6.8416,2.20975,8.25891,5.98206c11.79498,31.39374,23.57051,62.79477,35.34276,94.19699
		c2.03818,5.43689,4.22513,10.8291,5.97478,16.35864c1.01503,3.20789,2.89999,4.2467,6.05612,4.81335
		c18.34052,3.29297,36.63635,6.83472,54.9473,10.29236C309.83591,605.4483,309.80759,605.64496,309.7793,605.84161z"/>
	<path class="st0" d="M415.82083,508.46591c-0.93057,28.70139-1.86716,57.58871-2.80374,86.4761
		c-17.91672-29.1972-32.19717-59.94049-40.9848-93.28696c2.91693,4.55215,5.76538,9.15002,8.76956,13.64389
		c3.14313,4.70166,6.20898,9.48413,9.7276,13.89734c3.44098,4.31567,7.41034,8.21008,12.18576,13.4223
		c2.48849-5.87396,4.56686-9.99847,5.88727-14.35272c0.41913-1.38208-0.76819-3.74963-1.9245-5.03064
		c-7.68121-8.50964-15.55365-16.84665-23.82547-25.73584C394.19479,501.27228,404.80905,504.80298,415.82083,508.46591z"/>
	<path class="st0" d="M469.49545,301.43924c-2.35574-5.32166,1.0054-8.54767,3.98035-12.18906
		c2.82303-3.45557,5.03009-7.41437,7.58621-11.26981C482.89435,286.64322,477.27087,298.03171,469.49545,301.43924z"/>
	<path d="M256.97641,314.97745c2.59274-1.85474,4.74005-3.39084,6.90768-4.94147c0.24799,0.44281,0.54034,0.8273,0.48529,0.88599
		c-5.33801,5.69235-4.22467,11.04474,0.5863,16.44946c1.8541,2.08282,3.20776,4.61108,4.75757,6.88956
		c-4.64041,4.70499-8.98163,5.16339-14.5228,2.21973c-0.2464-2.814-0.44812-5.1178-0.64986-7.42157
		c-2.79535,0.86325-6.43001,0.92325-8.19753,2.77014c-2.95943,3.09235-4.69376,2.353-6.70668-0.35059
		c-2.68942-3.61227-3.85924-7.60245-2.50961-12.21603c1.72414-0.29736,3.34462-0.79288,4.97211-0.81714
		c4.93274-0.07349,5.7309-2.97687,5.04016-6.99945c-0.51534-3.00101-5.51468-7.49167-7.75751-6.4061
		c-1.56345,0.75677-2.86046,3.08691-3.30214,4.94574c-1.30232,5.48096-4.77841,8.79672-10.10146,11.71793
		c-0.8954-9.629,0.7849-18.02026,5.86969-25.51086c2.7037-3.98288,6.85719-4.39819,10.74521-0.60828
		c3.99759,3.89673,7.20627,8.62198,10.61171,13.09763C254.59016,310.50317,255.58429,312.62207,256.97641,314.97745z"/>
	<path d="M401.88959,382.62164c3.19125-5.69098,6.09412-11.62546,9.78067-17.02484c1.26505-1.85284,4.51572-3.3717,6.81503-3.31293
		c8.25623,0.21115,16.517,0.96298,24.72693,1.92825c3.44138,0.4046,4.50146,3.06122,3.41638,6.36829
		c-0.41217,1.25626-0.97,2.46481-1.37946,3.72183c-1.46503,4.49759-3.55994,6.64053-9.11487,5.26871
		c-9.92633-2.45135-19.83719-0.6066-29.48392,2.46713c-1.26389,0.40274-2.53156,0.79443-3.80569,1.16272
		C402.73865,383.23145,402.56924,383.04288,401.88959,382.62164z"/>
	<path d="M247.07986,354.95499c16.5477,5.6445,19.55496,4.9733,27.07089-5.73712c2.92773,6.10916,0.4082,12.56329-5.88904,15.08569
		C260.49841,367.41321,250.03201,363.02319,247.07986,354.95499z"/>
	<path d="M232.55078,327.27283c4.54393,7.22226,7.04974,15.48245,18.17557,13.7674
		c-0.50204,1.93991-0.44612,4.08411-1.48875,5.09299c-1.05585,1.02164-3.38678,1.59637-4.83191,1.19333
		C238.32133,345.62946,231.71794,334.9426,232.55078,327.27283z"/>
</g>
</svg>
