<?xml version="1.0" encoding="utf-8"?>
<!-- Generator: Adobe Illustrator 16.0.0, SVG Export Plug-In . SVG Version: 6.00 Build 0)  -->
<!DOCTYPE svg PUBLIC "-//W3C//DTD SVG 1.1//EN" "http://www.w3.org/Graphics/SVG/1.1/DTD/svg11.dtd">
<svg version="1.1" xmlns="http://www.w3.org/2000/svg" xmlns:xlink="http://www.w3.org/1999/xlink" x="0px" y="0px"
	 width="468.333px" height="468.333px" viewBox="0.101 -0.956 468.333 468.333"
	 enable-background="new 0.101 -0.956 468.333 468.333" xml:space="preserve">
<g id="Layer_2">
	<circle fill="#070404" stroke="#000000" stroke-miterlimit="10" cx="234.269" cy="233.21" r="233.668"/>
</g>
<g id="Ebene_1">
	<rect display="none" fill="#FFFFFF" width="500" height="500"/>
	
		<rect y="0.001" display="none" fill="#FFFFFF" stroke="#FFFFFF" stroke-width="12" stroke-miterlimit="10" width="500" height="499.999"/>
	<polygon display="none" fill="#FFFFFF" points="494,264.434 494,494 222.848,494 91.187,364.457 89.014,320.664 106.935,241.618 
		135.301,170.859 177.179,212.769 175.42,202.714 140.08,166.599 180.371,96.367 213.737,82.628 233.756,93.227 245.786,92.845 
		254.951,103 265,103 255.268,92.259 260.188,93.76 267.445,92.103 289.104,85.501 315.041,87.722 	"/>
	<g>
		<g>
			<path fill="#FFFFFF" d="M114.94,372.621c-8.014-43.783-0.464-85.42,15.714-125.868c1.099,0.021,2.2,0.039,3.299,0.06
				c0.189,3.651,1.247,7.515,0.415,10.916c-3.232,13.215-6.997,26.299-10.686,39.398c-6.969,24.736-8.235,50.002-7.135,75.494
				C116.012,372.621,115.477,372.621,114.94,372.621z"/>
			<path fill="#FFFFFF" d="M347.994,372.621c0.471-11.621,2.938-23.592,1.006-34.801c-4.512-26.189-11.242-51.99-16.783-78.012
				c-0.846-3.973-0.116-8.281,1.529-12.533c18.779,40.064,24.799,81.769,17.463,125.345
				C350.139,372.621,349.066,372.621,347.994,372.621z"/>
			<path fill="#FFFFFF" d="M318.451,129.194c-0.729,4.716-0.619,9.506-2.25,13.604c-7.576,19.057-11.318,38.917-13.387,59.176
				c-1.254,12.253-7.969,20.272-18.418,26.355c-12.447,7.245-24.33,15.457-36.479,23.214c-9.131,5.83-19.315,5.635-27.905,0.777
				c-16.216-9.168-31.961-19.375-46.879-30.521c-4.885-3.651-8.293-11.236-9.453-17.559c-3.796-20.708-6.018-41.562-13.361-61.666
				c-7.282-19.939,2.116-36.008,16.712-49.048c12.054-10.768,26.605-17.568,42.729-18.525c24.106-1.43,48.419-3.708,71.591,6.924
				c15.861,7.276,26.847,19.198,34.831,34.087C318.197,119.768,317.771,124.831,318.451,129.194z"/>
			<path fill="#FFFFFF" d="M214.977,259.854c11.047,0,21.183-0.264,31.281,0.244c1.852,0.092,4.858,3.17,5.108,5.15
				c3.483,27.531,6.459,55.125,9.869,82.668c0.713,5.75-2.063,8.475-6.765,8.592c-14.36,0.359-28.751,0.357-43.107-0.129
				c-4.684-0.156-7.246-3.18-6.554-8.82C208.348,318.715,211.54,289.824,214.977,259.854z"/>
			<path fill="#FFFFFF" d="M314.045,158.113c2.89-8.299,5.174-15.129,7.642-21.892c6.815-18.696,2.192-34.921-14.218-46.894
				c-18.586-13.562-39.633-20.547-62.594-21.931c-2.227-0.134-4.398-1.242-6.807-3.571c12.637,1.933,17.363-6.944,23.404-14.315
				c1.537-1.877,5.932-3.263,8.108-2.449c10.449,3.905,21.394,7.396,30.637,13.384c12.285,7.958,52.697,51.079,48.343,66.693
				C343.986,143.539,331.775,153.08,314.045,158.113z"/>
			<path fill="#FFFFFF" d="M151.742,157.456c-15.434-4.176-26.159-12.209-32.183-26.055c-6.273-14.415-3.548-28.362,7.118-38.54
				c18.295-17.455,37.145-34.738,61.642-43.739c10.768-3.957,14.429-3.718,20.278,5.799c4.689,7.63,6.588,8.733,17.161,8.962
				c5.372-0.229,3.277,1.2,1.969,1.812c-2.301,0.594-4.576,1.575-6.905,1.722c-19.806,1.248-38.692,6.163-55.121,17.255
				c-8.171,5.517-15.459,13.148-21.221,21.202c-5.71,7.982-6.621,17.704-2.169,27.422
				C145.722,140.746,148.314,148.572,151.742,157.456z"/>
			<path fill="#FFFFFF" d="M149.975,268.012c13.146,4.834,25.013,8.855,36.604,13.557c10.683,4.33,17.738,17.066,16.737,28.576
				c-0.741,8.508-1.184,17.039-2.072,25.527c-0.45,4.295-1.59,8.514-2.461,12.988c-2.128-0.596-3.168-0.561-3.566-1.049
				c-14.481-17.762-28.83-35.635-43.367-53.352C145.086,286.018,151.146,277.486,149.975,268.012z"/>
			<path fill="#FFFFFF" d="M267.344,351.176c-1.51-11.412-2.813-21.033-4.028-30.668c-0.3-2.381-0.279-4.807-0.447-7.207
				c-1.265-18.125,5.801-28.391,23.371-34.355c9.59-3.256,19.076-6.813,28.611-10.232c3.852,12.787,2.573,23.414-7.586,33.969
				C293.449,317.031,281.758,333.426,267.344,351.176z"/>
			<path fill="#FFFFFF" d="M74.376,336.035c-18.512-36.574,7.147-150.681,41.115-195.648c7.83,4.22,6.409,10.893,4.009,17.09
				c-9.533,24.631-19.988,48.918-29.022,73.725c-9.905,27.201-16.821,55.167-16.125,84.496
				C74.513,322.473,74.376,329.256,74.376,336.035z"/>
			<path fill="#FFFFFF" d="M393.225,333.73c-0.408-1.363-1.224-2.742-1.166-4.088c2.354-55.906-16.619-106.403-39.093-156.112
				c-3.645-8.053-5.7-16.923-7.555-25.617c-0.52-2.428,2.309-5.57,5.098-8.231c34.896,60.347,53.293,123.9,45.949,193.332
				C395.381,333.252,394.305,333.492,393.225,333.73z"/>
			<path fill="#FFFFFF" d="M99.119,358.42c-9.943-59.453-0.819-116.54,22.283-173.284c6.548,5.529,6.846,10.869,5.12,16.884
				c-5.003,17.443-10.13,34.858-14.801,52.394c-8.24,30.928-12.104,62.348-9.825,94.398c0.234,3.281,0.032,6.598,0.032,9.896
				C100.992,358.613,100.055,358.516,99.119,358.42z"/>
			<path fill="#FFFFFF" d="M364.365,355.596c0-5.756-0.389-11.539,0.063-17.256c2.466-31.104-4.133-61.033-11.646-90.808
				c-3.91-15.501-8.475-30.843-12.98-46.187c-1.698-5.771-0.918-10.586,4.191-16.971c22.809,56.535,32.689,112.569,23.594,171.122
				C366.512,355.529,365.439,355.563,364.365,355.596z"/>
			<path fill="#FFFFFF" d="M143.249,205.608c3.398,7.415,7.477,14.603,10.054,22.293c5.511,16.455,18.782,23.087,33.632,27.666
				c7.032,2.168,14.477,3.002,22.064,4.502c-1.166,10.953-2.227,20.916-3.428,32.207c-1.739-2.086-3.215-3.184-3.773-4.637
				c-3.729-9.699-11.145-14.449-20.962-16.264c-2.089-0.389-4.067-1.344-6.14-1.848c-15.052-3.654-26.019-9.912-25.122-28.614
				c0.388-8.102-4.201-16.431-6.472-24.674c-0.904-3.283-1.651-6.609-2.468-9.916C141.505,206.086,142.377,205.847,143.249,205.608z
				"/>
			<path fill="#FFFFFF" d="M260.264,290.758c-0.752-8.396-1.517-16.795-2.246-25.193c-0.4-4.615,1.725-6.469,6.377-7.023
				c14.008-1.666,27.315-5.664,38.135-15.178c3.637-3.201,6.77-7.385,8.977-11.712c4.033-7.899,7.203-16.239,10.732-24.396
				c0.791,0.281,1.584,0.561,2.375,0.841c-0.896,3.461-1.92,6.896-2.672,10.39c-2.687,12.486-5.092,25.034-8.072,37.448
				c-0.568,2.363-2.848,5.176-5.051,6.131c-9.051,3.912-18.185,7.9-27.662,10.48c-7.693,2.09-12.719,6.018-15.676,13.191
				c-0.787,1.914-2.199,3.568-3.322,5.342C261.525,290.971,260.896,290.865,260.264,290.758z"/>
		</g>
	</g>
</g>
</svg>
